{"glyphs":{" ":{"ha":694,"x_min":0,"x_max":0,"o":""},"A":{"ha":1379,"x_min":14,"x_max":1364,"o":"m 640 81 q 644 76 644 81 q 650 38 650 58 q 653 0 650 18 l 685 0 l 717 0 q 741 1 725 0 q 757 4 757 3 l 757 97 q 761 101 757 101 q 769 101 767 101 l 775 101 q 797 88 781 97 q 831 69 813 79 q 864 51 849 60 q 886 38 879 42 q 898 31 892 35 q 911 28 904 28 l 911 149 q 888 172 911 161 q 837 196 865 182 q 785 226 808 210 q 763 268 763 243 l 763 288 q 771 292 764 292 q 797 283 779 292 q 833 261 814 274 q 872 237 853 249 q 903 219 892 225 l 904 219 l 907 219 q 910 258 910 243 q 911 294 911 272 l 911 322 q 875 351 896 340 q 835 372 854 361 q 822 381 831 375 q 801 394 813 388 q 781 406 790 400 q 767 415 771 413 q 759 434 760 424 q 758 456 758 444 q 759 466 758 463 q 767 469 760 469 l 771 469 q 785 462 775 467 q 807 451 796 457 q 828 439 818 444 q 843 432 839 433 q 863 419 850 428 q 886 410 876 410 l 886 503 q 915 494 899 503 q 936 469 932 485 q 940 390 938 432 q 949 308 942 347 q 961 300 951 306 q 981 289 971 294 q 1000 279 992 283 q 1008 275 1008 275 l 1015 279 l 1015 425 q 1028 423 1019 425 q 1044 418 1036 421 q 1059 411 1053 415 q 1065 401 1065 407 l 1065 250 q 1067 247 1065 250 q 1072 242 1069 243 q 1091 224 1079 231 q 1114 211 1103 218 q 1134 199 1121 207 q 1149 190 1147 190 l 1157 190 q 1158 203 1157 190 q 1161 224 1160 217 l 1161 339 l 1165 343 l 1167 343 l 1169 343 q 1206 327 1186 339 q 1238 308 1226 315 l 1239 308 q 1247 319 1239 308 q 1265 346 1256 331 q 1283 376 1275 361 q 1292 400 1292 392 l 1292 407 q 1282 413 1289 408 q 1267 422 1275 417 q 1251 431 1258 426 q 1242 436 1244 435 q 1231 440 1235 439 q 1228 449 1228 442 l 1228 453 q 1258 474 1238 463 q 1300 495 1279 485 q 1338 516 1321 506 q 1360 538 1356 526 q 1356 547 1361 542 q 1342 558 1350 553 q 1326 566 1333 563 q 1317 571 1318 569 q 1297 582 1313 574 q 1275 593 1281 590 l 1268 593 q 1261 592 1263 593 q 1254 589 1260 592 q 1194 553 1224 571 q 1135 517 1165 535 q 1128 512 1129 513 q 1121 511 1126 511 q 1095 519 1111 511 q 1079 538 1079 526 l 1081 542 q 1103 556 1086 544 q 1126 571 1121 568 q 1144 581 1131 572 q 1172 599 1157 589 q 1199 617 1188 608 q 1211 628 1211 625 q 1200 640 1211 632 q 1174 655 1189 647 q 1147 668 1160 663 q 1131 674 1133 674 q 1096 661 1114 674 q 1058 634 1078 649 q 1019 608 1039 619 q 981 596 999 596 q 961 601 969 596 q 940 614 953 606 l 940 618 q 956 635 940 626 q 992 655 972 644 q 1027 674 1011 665 q 1043 692 1043 683 q 1042 694 1043 693 q 1042 694 1042 694 q 990 728 1022 714 q 936 757 958 743 q 934 760 936 758 q 932 761 932 761 l 932 764 l 932 765 q 954 781 940 771 q 979 792 968 792 q 1010 780 992 792 q 1047 753 1028 768 q 1085 727 1067 739 q 1117 715 1103 715 l 1118 715 q 1165 739 1140 724 q 1207 765 1189 754 q 1178 788 1199 775 q 1138 813 1158 801 q 1101 835 1117 825 q 1085 850 1085 844 q 1099 869 1085 863 q 1124 876 1113 876 q 1158 865 1140 876 q 1192 840 1175 854 q 1227 815 1210 826 q 1260 804 1244 804 q 1282 811 1267 804 q 1314 827 1297 818 q 1344 847 1331 836 q 1364 864 1358 857 q 1338 884 1357 872 q 1297 908 1318 896 q 1260 930 1276 919 q 1244 946 1244 940 q 1245 947 1244 946 q 1246 949 1246 947 q 1257 956 1249 950 q 1275 967 1265 961 q 1293 978 1285 974 q 1304 986 1301 983 q 1313 990 1307 989 q 1318 997 1318 992 l 1317 999 q 1290 1048 1304 1025 q 1263 1096 1276 1071 l 1250 1096 q 1228 1083 1244 1093 q 1207 1071 1213 1074 q 1194 1067 1201 1067 q 1186 1086 1190 1067 q 1179 1130 1182 1106 q 1175 1175 1176 1154 q 1174 1200 1174 1196 q 1149 1193 1165 1200 q 1114 1176 1132 1186 q 1080 1156 1096 1167 q 1060 1139 1064 1146 q 1059 1130 1060 1136 q 1058 1121 1058 1124 q 1063 1062 1058 1092 q 1068 1001 1068 1032 q 1056 978 1068 989 q 1029 968 1043 968 q 1021 978 1021 968 q 1019 998 1021 983 q 1015 1028 1017 1013 q 1011 1059 1013 1044 q 1008 1079 1010 1074 q 1007 1090 1008 1082 q 1004 1100 1006 1097 q 978 1090 993 1097 q 957 1079 964 1082 q 937 1067 950 1075 q 924 1058 924 1058 l 924 914 q 908 891 924 901 q 882 881 893 881 l 878 881 q 872 933 872 911 q 868 990 871 954 l 864 990 q 840 983 851 990 q 818 969 829 975 q 804 962 813 967 q 788 953 796 957 q 773 946 779 949 q 767 943 767 943 l 754 943 l 754 994 q 775 1009 754 997 q 820 1035 796 1021 q 865 1062 844 1049 q 886 1079 886 1075 l 886 1189 q 858 1172 875 1183 q 822 1148 840 1160 q 785 1127 803 1136 q 754 1118 767 1118 l 754 1168 q 775 1183 754 1171 q 820 1210 796 1196 q 865 1236 844 1224 q 886 1253 886 1249 l 886 1368 q 860 1358 878 1368 q 821 1334 842 1347 q 781 1309 800 1321 q 754 1294 763 1297 l 753 1294 l 750 1294 q 747 1297 749 1296 q 744 1299 744 1299 l 744 1375 l 625 1375 l 625 1307 l 615 1307 q 608 1311 615 1307 q 590 1321 600 1315 q 569 1332 579 1326 q 551 1342 558 1338 q 545 1345 550 1342 q 539 1350 540 1349 q 522 1358 532 1353 q 503 1367 513 1363 q 487 1376 494 1372 q 479 1379 479 1379 l 471 1379 l 471 1274 q 494 1249 471 1264 q 547 1219 518 1235 q 600 1190 576 1203 q 624 1172 624 1178 l 624 1124 q 592 1135 615 1124 q 546 1161 569 1147 q 503 1186 522 1175 q 483 1197 483 1197 l 479 1193 l 483 1100 q 503 1076 483 1089 q 547 1051 522 1064 q 594 1027 572 1039 q 624 1003 617 1015 q 627 986 626 996 q 628 969 628 976 l 628 953 q 624 949 628 949 q 607 957 624 949 q 569 976 590 965 q 531 998 549 988 q 508 1011 513 1008 l 508 882 q 467 899 479 882 q 453 940 456 915 q 453 990 450 964 q 454 1036 456 1017 q 453 1056 454 1042 q 450 1075 451 1071 q 447 1077 449 1075 q 446 1079 446 1079 q 408 1103 431 1089 q 365 1125 385 1118 q 363 1113 364 1122 q 361 1100 361 1103 q 363 1092 361 1097 q 365 1083 364 1086 l 365 961 q 333 976 343 961 q 318 1010 322 990 q 314 1051 314 1031 q 314 1088 314 1074 l 314 1113 q 322 1108 318 1108 q 326 1113 326 1108 l 313 1121 l 313 1156 q 299 1166 313 1158 q 269 1182 286 1174 q 236 1197 253 1190 q 213 1203 219 1203 l 213 1063 q 204 1053 213 1053 q 194 1056 197 1053 q 183 1063 190 1058 q 162 1075 178 1065 q 140 1088 146 1085 l 135 1088 q 120 1075 131 1088 q 99 1047 110 1063 q 81 1015 89 1031 q 74 996 74 1000 q 85 985 74 993 q 112 968 97 978 q 140 949 126 958 q 158 935 154 940 q 126 908 146 918 q 87 888 107 897 q 47 869 67 879 q 14 842 28 858 q 22 836 17 838 q 31 829 28 835 l 107 788 q 110 787 107 788 q 117 786 114 786 q 169 806 142 786 q 217 838 196 825 q 243 856 229 844 q 272 868 257 868 q 297 860 282 868 q 311 842 311 853 q 306 835 311 835 q 297 829 300 835 q 282 819 293 826 q 258 804 271 813 q 233 789 244 796 q 217 779 221 782 q 194 767 211 775 q 178 751 178 758 q 178 751 178 751 q 179 749 179 750 q 189 743 182 747 q 204 734 196 739 q 219 725 213 729 q 229 719 226 721 q 242 712 235 717 q 257 707 250 707 q 276 713 268 707 q 293 724 285 718 q 311 735 299 726 q 338 751 324 743 q 365 768 353 760 q 382 779 378 776 q 392 787 385 783 q 403 792 400 790 l 406 792 l 407 792 q 416 788 410 790 q 425 783 422 785 q 440 773 431 779 q 450 765 450 767 l 450 757 l 374 711 l 365 703 q 387 685 371 694 q 421 668 403 676 q 453 651 439 660 q 467 635 467 643 q 458 622 467 628 q 444 613 456 619 q 429 606 432 607 q 399 622 417 611 q 362 644 381 633 q 325 665 343 656 q 296 674 307 674 q 272 666 283 674 q 251 651 261 658 q 233 640 244 647 q 213 628 221 633 q 204 622 206 624 l 204 614 l 268 579 q 281 570 272 574 q 298 563 289 567 q 313 555 307 560 q 319 542 319 550 l 318 538 q 299 524 311 533 q 276 515 286 515 q 248 526 265 515 q 212 550 231 538 q 175 574 193 563 q 144 585 157 585 q 143 585 144 585 q 140 583 142 585 q 118 572 131 579 q 94 558 106 565 q 71 542 82 550 q 51 529 60 535 l 51 526 l 51 525 l 56 521 q 67 513 58 518 q 85 502 75 508 q 103 490 94 496 q 115 482 111 485 q 140 469 128 475 q 163 453 151 464 l 163 449 q 161 443 163 443 q 154 440 160 443 q 127 423 140 431 q 99 407 114 415 l 99 404 l 99 401 q 103 394 100 400 q 107 385 106 388 q 116 370 110 381 q 128 349 122 360 q 141 327 135 338 q 150 313 147 317 l 156 313 q 173 318 164 313 q 190 330 182 324 q 208 342 199 336 q 225 347 217 347 l 229 347 q 233 279 231 307 q 238 215 235 251 l 243 215 q 260 222 246 215 q 291 236 275 228 q 320 252 307 244 q 333 263 333 260 l 333 411 q 340 417 333 413 q 353 425 346 421 q 368 433 361 429 q 378 436 375 436 q 382 432 382 436 q 386 364 385 397 q 390 296 388 331 l 394 296 q 415 302 401 296 q 442 317 428 308 q 465 333 456 325 q 475 343 475 340 l 475 490 q 479 494 475 494 q 498 506 489 501 q 518 517 507 511 q 522 508 518 513 l 522 504 q 523 479 522 497 q 524 442 524 461 q 526 405 525 422 q 526 381 526 388 l 535 381 q 556 394 539 383 q 576 407 572 404 q 604 425 590 414 q 635 436 618 436 q 641 424 642 436 q 640 411 640 411 q 624 373 640 386 q 585 349 607 360 q 544 328 564 339 q 518 300 524 318 q 517 284 518 297 q 517 267 517 271 q 517 235 517 250 q 522 203 518 219 l 539 211 q 556 222 543 214 q 583 239 568 231 q 610 256 597 247 q 628 267 622 264 l 640 267 l 640 215 l 636 211 q 626 206 636 211 q 604 192 617 200 q 578 175 592 183 q 556 161 564 167 q 535 152 549 157 q 522 140 522 147 l 522 18 q 553 28 539 18 q 581 49 567 38 q 609 71 594 61 q 640 81 624 81 m 924 753 q 926 749 926 753 q 924 744 926 744 q 921 749 921 744 q 924 753 921 753 m 949 914 q 951 910 951 914 q 949 906 951 906 q 946 910 946 906 q 949 914 946 914 z "},"B":{"ha":1265,"x_min":14,"x_max":1250,"o":"m 547 124 q 550 117 547 124 q 556 107 553 110 q 595 38 575 71 q 636 -29 615 6 q 656 -1 642 -22 q 685 44 671 21 q 710 89 699 68 q 721 115 721 110 l 721 119 l 661 225 l 661 314 q 665 322 661 315 q 669 331 668 328 q 674 338 671 332 q 683 349 678 343 q 691 361 688 356 q 696 368 694 367 q 703 382 697 372 q 715 403 708 392 q 726 423 721 414 q 733 436 731 432 l 742 444 q 746 440 746 444 q 751 435 749 439 q 753 432 753 432 l 753 238 l 954 351 l 950 356 q 910 378 935 365 q 860 407 885 392 q 814 439 835 422 q 789 471 793 456 l 928 471 q 934 469 929 471 q 940 467 939 468 q 955 458 946 464 q 973 447 964 453 q 989 438 982 442 q 996 432 996 433 q 1001 423 997 431 q 1010 407 1006 415 q 1019 391 1015 399 q 1025 382 1024 383 q 1033 369 1028 378 q 1044 352 1039 361 q 1056 337 1050 343 q 1064 331 1061 331 l 1222 331 q 1219 344 1222 338 q 1213 356 1215 350 q 1192 390 1204 369 q 1168 429 1179 410 q 1149 463 1157 449 q 1140 476 1140 476 l 1013 476 q 1006 481 1013 476 q 990 490 999 485 q 973 502 982 496 q 958 513 964 508 q 942 528 949 519 q 928 546 935 536 q 912 576 922 557 q 894 608 901 594 q 886 622 888 621 q 903 625 890 622 q 919 626 917 628 q 955 612 935 622 q 996 588 975 601 q 1037 563 1017 575 q 1072 542 1057 550 l 1074 542 l 1076 542 q 1081 658 1081 597 q 1082 772 1082 719 q 1043 758 1067 772 q 994 728 1019 744 q 944 696 968 711 q 903 678 919 681 l 899 678 l 894 678 q 888 679 893 678 q 882 682 883 681 l 890 699 q 903 722 894 706 q 924 756 913 738 q 944 791 935 775 q 958 814 954 807 q 974 830 964 821 q 998 847 985 839 q 1024 859 1011 854 q 1047 864 1038 864 l 1153 864 l 1161 868 q 1171 884 1161 868 q 1194 922 1181 900 q 1222 969 1207 944 q 1246 1008 1236 993 q 1248 1013 1246 1010 q 1250 1017 1250 1015 q 1226 1017 1243 1017 q 1189 1019 1208 1018 q 1152 1020 1169 1019 q 1128 1021 1135 1021 l 1101 1021 l 1085 1021 l 1081 1017 l 1029 932 q 1015 915 1019 925 q 1000 897 1011 904 q 984 888 994 893 q 964 877 974 882 q 946 868 954 872 q 936 864 938 864 l 782 864 q 788 888 782 879 q 806 903 793 896 q 835 918 814 907 q 880 942 856 929 q 925 967 904 956 q 954 982 946 978 l 940 996 l 763 1106 l 754 1110 q 750 1014 751 1061 q 746 919 749 967 q 740 905 743 913 q 729 893 736 897 l 725 897 l 679 982 q 674 986 675 986 q 666 1001 671 992 q 661 1013 661 1011 l 661 1106 q 671 1124 661 1113 q 683 1139 681 1135 q 694 1158 688 1146 q 706 1180 700 1169 q 717 1199 713 1190 q 721 1207 721 1207 l 721 1215 q 717 1223 721 1215 q 709 1240 714 1231 q 699 1258 704 1249 q 692 1275 694 1268 q 681 1294 688 1282 q 667 1317 674 1306 q 655 1338 660 1329 q 649 1347 650 1346 l 644 1351 q 631 1333 635 1344 q 619 1313 626 1322 q 613 1303 617 1310 q 603 1288 608 1296 q 594 1274 599 1281 q 589 1267 590 1268 q 585 1263 589 1263 q 581 1254 585 1261 q 572 1239 576 1247 q 563 1223 568 1231 q 556 1211 558 1215 l 551 1203 l 585 1139 q 589 1135 589 1139 q 597 1122 590 1133 q 607 1106 604 1111 l 611 1097 l 611 1021 q 610 1017 611 1021 q 607 1013 608 1014 q 597 996 604 1007 q 589 982 590 985 l 585 978 l 535 893 l 533 893 l 531 893 q 528 896 531 894 q 526 897 526 897 q 519 907 519 904 l 519 1097 l 315 985 l 475 885 q 479 878 476 885 q 483 868 482 871 l 483 864 l 353 864 q 338 871 351 864 q 318 881 325 878 q 294 895 307 888 q 272 915 281 903 q 264 928 269 919 q 252 949 258 938 q 240 969 246 960 q 233 982 235 978 q 221 994 224 989 q 216 1004 218 1000 q 209 1010 214 1008 q 189 1013 204 1013 l 171 1013 q 147 1012 164 1013 q 111 1010 131 1011 q 75 1009 92 1010 q 51 1008 58 1008 l 51 1006 q 56 992 51 1001 q 67 974 61 983 q 79 958 74 965 q 86 949 85 950 q 93 935 88 944 q 105 915 99 926 q 116 894 111 904 q 124 881 121 885 q 131 870 125 881 q 140 860 138 860 l 256 860 q 265 855 256 860 q 281 847 275 850 q 326 809 311 831 q 357 758 342 788 q 364 744 360 753 q 372 728 368 736 q 379 713 376 719 q 382 707 382 707 q 369 704 379 707 q 357 703 360 701 q 320 722 338 710 q 285 746 303 733 q 250 769 268 758 q 213 788 232 781 l 210 788 l 208 788 l 204 767 l 204 564 l 357 649 l 382 649 q 373 620 382 640 q 351 578 364 600 q 325 539 339 557 q 301 517 311 521 l 239 483 l 103 483 q 88 463 101 483 q 57 416 74 442 q 27 367 40 390 q 14 340 14 344 l 14 339 l 31 335 q 44 334 32 335 q 74 333 57 333 q 108 331 90 332 q 136 331 125 331 l 163 331 l 188 331 q 219 376 208 357 q 241 411 229 396 q 269 440 253 426 q 318 471 286 454 q 326 474 321 472 q 332 475 331 475 l 463 475 l 475 471 q 448 435 467 447 q 406 412 429 422 q 362 390 383 401 q 328 360 340 379 l 332 356 q 346 347 333 354 q 377 327 358 339 q 407 310 396 315 q 460 278 433 294 q 514 250 486 263 l 514 432 q 519 442 514 436 q 526 449 524 447 q 589 343 561 397 q 603 318 594 335 q 611 301 611 301 l 611 238 l 607 229 q 597 213 604 224 q 589 200 590 201 q 585 196 589 196 l 547 124 m 768 399 q 771 394 771 399 q 768 390 771 390 q 764 394 764 390 q 768 399 764 399 m 301 657 q 304 653 304 657 q 301 649 304 649 q 299 653 299 649 q 301 657 299 657 m 124 996 q 126 990 126 996 q 124 986 126 986 q 121 990 121 986 q 124 996 121 996 z "},"C":{"ha":1249,"x_min":14,"x_max":1233,"o":"m 599 4 q 607 0 603 0 q 618 0 613 0 q 628 1 624 0 q 636 8 633 1 q 637 22 636 13 q 638 40 638 31 q 640 59 639 50 q 640 72 640 68 q 642 78 640 74 q 644 85 643 83 q 679 69 664 83 q 714 54 694 54 q 738 60 724 54 q 751 78 751 67 q 751 80 751 79 q 750 81 750 81 q 713 101 732 93 q 677 120 693 110 q 651 146 661 131 q 640 186 640 161 l 640 194 q 643 213 642 201 q 644 225 644 225 l 661 225 l 826 126 l 836 126 q 860 132 846 126 q 874 149 874 138 l 874 153 q 856 163 869 156 q 839 174 843 171 q 835 176 839 174 q 831 178 832 178 q 781 207 811 189 q 722 242 750 225 q 674 271 694 258 q 653 283 653 283 l 644 292 l 644 461 q 647 464 644 463 q 653 465 650 465 l 656 465 l 657 465 q 669 460 660 465 q 683 453 679 456 q 722 432 708 439 q 741 417 735 425 q 748 394 747 408 q 750 351 749 379 q 751 337 750 346 q 752 319 751 328 q 753 303 753 310 q 754 296 754 296 l 760 292 q 769 294 760 292 q 785 300 779 297 q 789 304 785 304 q 792 310 790 307 q 794 314 794 313 l 794 375 q 816 372 807 375 q 833 363 825 368 q 848 355 840 358 q 865 351 856 351 q 884 358 876 351 q 899 372 892 365 q 878 388 894 378 q 844 408 863 397 q 812 429 826 418 q 797 449 797 440 l 797 550 q 801 555 797 554 q 808 556 806 556 q 830 547 813 556 q 867 526 847 538 q 904 503 886 514 q 928 488 922 492 q 947 474 935 482 q 960 465 960 467 l 960 193 q 969 195 963 193 q 984 201 976 197 q 997 208 992 204 q 1003 215 1003 213 l 1003 424 q 1007 431 1003 431 q 1015 432 1011 432 q 1030 426 1019 432 q 1052 414 1040 421 q 1072 399 1064 407 q 1081 385 1081 390 l 1081 288 q 1083 276 1081 285 q 1092 267 1085 267 q 1116 278 1108 267 q 1126 304 1124 289 q 1128 335 1129 319 q 1128 360 1128 350 q 1132 360 1129 360 q 1136 361 1135 361 q 1154 356 1146 361 q 1171 344 1163 350 q 1188 332 1179 338 q 1206 326 1196 326 q 1219 338 1214 326 q 1225 356 1225 350 q 1215 372 1225 365 q 1193 383 1206 378 q 1171 393 1181 388 q 1161 408 1161 399 q 1170 421 1161 415 q 1191 431 1179 426 q 1212 442 1203 436 q 1221 453 1221 447 l 1221 496 l 1115 440 l 1107 440 q 1067 452 1089 440 q 1035 478 1046 464 q 1069 501 1039 483 q 1133 540 1099 519 q 1197 576 1168 560 q 1225 597 1225 593 l 1225 631 l 1221 635 q 1213 633 1221 636 q 1200 626 1204 629 q 1124 584 1163 607 q 1051 542 1086 561 q 1038 534 1047 539 q 1018 524 1029 529 q 997 515 1007 519 q 983 508 988 510 q 934 534 958 519 q 886 563 910 549 q 864 576 878 567 q 841 590 850 585 q 831 597 832 596 l 831 606 q 838 610 831 606 q 853 622 844 615 q 873 633 863 628 q 890 643 883 639 q 908 652 894 646 q 924 661 921 658 q 948 647 933 657 q 977 628 963 638 q 1006 613 992 619 q 1028 606 1019 606 q 1041 618 1039 606 q 1043 638 1043 631 q 1035 653 1043 646 q 1017 667 1028 661 q 997 679 1007 674 q 983 690 988 685 q 1013 711 994 706 q 1043 732 1032 717 l 1043 747 q 1043 761 1043 751 q 1035 771 1043 771 q 1008 763 1021 771 q 983 745 996 754 q 958 728 971 736 q 931 719 944 719 q 910 728 926 719 q 876 747 894 736 q 844 766 858 757 q 831 776 831 775 l 831 779 l 849 792 l 983 868 l 988 868 q 998 866 994 868 q 1008 860 1001 864 q 1094 812 1050 836 q 1178 763 1138 788 q 1185 757 1179 761 q 1199 748 1192 753 q 1212 740 1206 743 q 1222 736 1218 736 l 1225 736 q 1227 749 1225 739 q 1229 763 1229 760 l 1229 767 l 1229 771 q 1227 777 1229 772 q 1225 783 1225 782 q 1197 800 1217 788 q 1155 826 1178 813 q 1113 851 1132 839 q 1085 868 1093 864 q 1062 880 1078 872 q 1046 897 1046 888 q 1054 911 1046 904 q 1074 924 1063 918 q 1096 933 1085 929 q 1111 936 1107 936 l 1119 936 l 1221 881 l 1229 881 l 1229 914 q 1224 920 1229 915 q 1217 928 1219 925 q 1191 945 1210 932 q 1165 961 1172 958 l 1165 964 l 1165 965 q 1182 980 1171 974 q 1204 992 1193 986 q 1224 1002 1215 997 q 1233 1014 1233 1007 q 1227 1031 1233 1019 q 1214 1042 1221 1042 l 1213 1042 q 1181 1028 1197 1038 q 1153 1013 1164 1019 q 1149 1011 1151 1011 q 1144 1011 1146 1011 q 1135 1013 1140 1011 q 1129 1021 1129 1014 l 1129 1083 q 1113 1098 1129 1090 q 1092 1106 1097 1106 l 1092 978 l 1031 944 l 1013 944 q 1007 1050 1007 996 q 1004 1156 1007 1106 q 990 1169 999 1163 q 971 1176 981 1176 q 967 1172 967 1176 l 967 928 q 947 901 967 917 q 903 869 928 885 q 853 840 878 853 q 818 825 828 828 q 810 826 815 825 q 801 828 804 828 l 801 936 q 817 951 801 942 q 852 972 833 961 q 887 992 871 983 q 903 1006 903 1001 q 893 1023 903 1017 q 874 1029 883 1029 q 843 1016 856 1029 q 813 1003 831 1003 l 810 1003 q 803 1013 804 1006 q 801 1025 801 1019 q 799 1050 801 1031 q 797 1075 797 1069 q 783 1085 793 1082 q 765 1089 772 1089 l 764 1088 q 757 1079 757 1083 l 757 974 q 744 962 757 971 q 714 943 731 953 q 682 926 697 933 q 661 918 667 918 q 656 919 658 918 q 653 924 653 919 l 653 1088 q 658 1097 653 1092 q 665 1106 663 1103 q 767 1164 711 1136 q 865 1215 822 1192 q 874 1221 867 1217 q 882 1231 882 1225 l 882 1232 q 867 1244 875 1239 q 849 1249 858 1249 l 843 1249 q 837 1247 842 1249 q 831 1244 832 1246 l 679 1160 q 667 1156 668 1154 q 657 1157 667 1157 l 657 1243 l 746 1292 q 751 1295 747 1292 q 754 1300 754 1299 q 756 1300 756 1300 q 756 1301 756 1301 q 744 1317 756 1313 q 725 1321 732 1321 q 694 1310 707 1321 q 664 1300 682 1300 l 657 1300 q 651 1341 653 1318 q 649 1381 650 1364 l 604 1381 l 604 1300 q 602 1298 604 1300 q 599 1296 600 1296 l 596 1296 q 565 1310 579 1296 q 532 1325 550 1325 q 512 1318 521 1325 q 497 1304 503 1311 q 513 1294 501 1301 q 537 1278 524 1286 q 561 1263 550 1271 q 576 1253 572 1256 q 592 1246 582 1250 q 603 1232 603 1242 l 603 1157 q 565 1167 588 1157 q 520 1192 543 1178 q 476 1219 497 1206 q 442 1240 456 1233 q 424 1251 428 1247 q 408 1254 419 1254 q 389 1247 397 1254 q 374 1232 381 1240 q 397 1214 378 1225 q 440 1189 415 1203 q 494 1160 465 1175 q 547 1131 524 1144 q 587 1106 571 1117 q 603 1092 603 1096 l 603 924 q 599 919 603 919 q 592 918 594 918 q 566 925 582 918 q 535 942 550 932 q 508 965 519 953 q 497 990 497 978 q 497 1009 497 996 q 496 1036 496 1022 q 497 1065 496 1051 q 497 1083 497 1078 q 485 1093 492 1093 q 463 1088 479 1093 q 447 1075 447 1082 l 447 1013 q 442 1008 447 1008 q 439 1007 442 1007 q 409 1020 422 1007 q 378 1033 396 1033 q 358 1025 368 1033 q 347 1008 347 1017 q 363 990 347 1000 q 397 972 378 981 q 431 954 415 963 q 446 940 446 946 l 446 835 q 442 829 446 833 l 439 829 q 406 842 431 829 q 356 869 382 854 q 310 900 331 885 q 289 919 289 915 q 290 1052 290 982 q 285 1186 289 1122 l 283 1186 q 265 1178 275 1186 q 251 1164 256 1171 q 249 1060 249 1115 q 243 953 250 1004 l 239 949 l 236 949 q 224 955 235 949 q 199 968 213 961 q 175 982 186 975 q 164 990 164 989 l 164 1110 q 158 1114 164 1114 q 137 1105 151 1114 q 122 1088 122 1096 l 122 1029 q 111 1019 122 1019 q 108 1020 110 1019 q 107 1021 107 1021 l 39 1054 l 38 1054 q 24 1042 29 1054 q 18 1022 18 1029 l 18 1017 q 44 1001 25 1013 q 69 986 63 990 q 76 982 72 985 q 82 978 81 979 l 82 976 l 82 974 q 55 951 72 961 q 26 936 38 942 q 22 928 22 932 q 22 910 22 924 q 21 892 21 896 q 51 900 38 892 q 79 918 65 908 q 107 936 93 928 q 138 944 121 944 q 151 940 140 944 q 174 928 163 935 q 196 915 186 922 q 206 901 206 907 q 189 884 206 894 q 151 862 172 874 q 110 840 131 850 q 82 825 90 831 q 69 817 78 822 q 52 808 61 813 q 35 798 43 803 q 26 792 28 793 l 22 788 l 22 754 q 26 750 22 750 q 68 765 49 750 q 107 792 88 781 q 148 813 124 800 q 195 839 172 826 q 235 860 218 851 q 251 868 251 868 l 276 868 q 347 826 311 846 q 417 783 382 807 l 417 781 l 417 779 q 414 777 415 779 q 413 775 413 775 q 399 766 408 772 q 386 758 389 760 q 362 744 378 753 q 335 731 346 736 q 324 724 325 725 l 310 724 l 217 775 l 213 775 q 208 774 211 775 q 204 771 204 774 l 204 736 l 213 728 q 236 713 218 725 q 260 699 254 701 q 260 695 260 697 q 261 692 261 693 q 251 679 261 683 q 231 671 242 675 q 210 661 219 667 q 200 646 200 656 q 201 626 200 639 q 213 614 201 614 l 217 614 l 301 661 l 313 661 q 329 660 325 661 q 344 651 333 658 q 358 643 349 649 q 378 631 367 638 q 399 619 389 625 q 413 610 408 613 q 414 608 413 610 q 417 606 415 606 l 417 603 q 396 590 417 603 q 349 560 375 576 q 297 530 322 543 q 264 517 272 517 q 237 525 254 517 q 201 544 219 533 q 165 565 182 554 q 140 581 149 575 q 126 589 138 582 q 103 603 115 596 q 79 618 90 611 q 65 626 68 625 q 47 635 60 629 q 31 643 33 642 q 22 646 28 646 l 22 601 q 24 599 22 601 q 26 597 25 597 q 31 594 28 596 q 35 593 35 593 q 44 587 36 592 q 63 576 53 582 q 80 565 72 569 q 90 558 88 560 q 117 544 101 551 q 150 529 133 538 q 181 510 167 521 q 204 488 196 500 l 204 485 q 196 472 204 479 q 176 459 188 465 q 154 449 165 453 q 136 444 143 444 q 106 453 119 444 q 79 473 93 463 q 52 492 65 483 q 22 501 39 501 l 22 461 q 30 453 22 458 q 47 442 38 449 q 67 428 57 435 q 82 415 78 421 q 64 400 75 406 q 42 390 53 394 q 22 378 31 385 q 14 360 14 372 q 16 343 14 353 q 28 333 18 333 q 50 338 40 333 q 70 349 60 343 q 91 361 81 356 q 114 367 101 367 l 114 296 q 128 280 114 289 q 150 271 143 271 q 156 272 151 271 q 160 275 160 272 l 160 394 q 169 406 160 399 q 192 422 179 414 q 215 435 204 429 q 229 440 226 440 q 235 438 232 440 q 239 432 239 435 l 239 229 q 251 208 239 218 q 275 199 264 199 l 276 199 l 281 203 l 289 469 q 296 478 289 471 q 306 488 303 485 q 367 522 333 507 q 429 554 400 538 l 442 554 l 442 444 q 424 427 442 435 q 399 415 407 419 q 384 406 393 411 q 366 394 375 400 q 351 385 357 389 q 344 381 344 381 l 344 376 l 365 356 l 378 356 l 429 381 q 431 381 429 381 q 433 382 432 382 q 439 381 435 382 q 443 376 443 379 l 443 310 q 446 307 443 308 q 450 304 449 306 q 464 297 454 301 q 475 292 474 293 l 478 292 l 479 292 l 483 296 l 492 415 q 502 422 493 415 q 518 432 511 429 q 531 439 522 433 q 550 449 540 444 q 569 459 560 454 q 581 465 578 464 q 584 466 582 465 q 588 467 586 467 q 596 465 592 467 q 599 457 600 464 l 599 407 l 599 356 q 598 339 599 349 q 597 319 597 329 q 595 301 596 308 q 594 292 594 293 l 590 283 q 576 275 589 283 q 556 263 563 267 q 457 209 507 235 q 361 153 407 183 l 361 150 l 361 149 q 365 144 361 144 q 378 135 369 142 q 390 126 388 128 l 393 126 q 415 133 400 126 q 446 149 429 140 q 478 168 463 158 q 501 182 493 178 q 509 187 503 183 q 522 194 515 190 q 535 203 529 199 q 543 207 542 207 q 565 218 549 210 q 586 229 581 226 l 588 229 l 590 229 l 594 225 l 594 153 q 577 135 594 144 q 539 115 560 125 q 501 94 518 104 q 483 78 483 85 q 498 63 483 68 q 519 58 513 58 q 526 59 522 58 q 531 60 531 60 l 535 64 l 576 85 l 590 85 q 592 46 590 69 q 599 4 594 22 m 501 85 q 504 81 504 85 q 501 76 504 76 q 499 81 499 76 q 501 85 499 85 m 365 696 l 365 699 q 426 731 393 714 q 488 767 460 747 q 494 771 490 768 q 497 775 497 774 l 497 893 l 501 910 q 510 908 504 910 q 518 901 515 906 q 537 892 524 899 q 565 876 550 885 q 592 861 579 868 q 611 851 606 854 q 617 849 613 850 q 624 847 621 847 l 626 847 q 655 857 639 847 q 688 879 671 867 q 724 901 706 892 q 757 911 742 911 l 757 767 q 769 759 758 765 q 797 743 781 753 q 822 728 813 733 q 831 724 824 728 q 839 719 838 721 q 863 705 846 717 q 886 690 881 693 l 886 688 q 865 672 886 683 q 819 649 844 661 q 774 625 794 636 q 753 610 753 614 l 753 468 q 726 475 742 468 q 694 492 711 482 q 663 513 678 503 q 636 529 647 522 l 632 533 q 627 536 631 535 q 624 538 624 538 q 594 527 611 538 q 558 503 576 517 q 522 480 539 490 q 492 469 504 469 l 492 606 q 472 628 492 615 q 428 653 453 640 q 385 678 404 667 q 365 696 365 689 m 839 554 q 842 550 842 554 q 839 546 842 546 q 836 550 836 546 q 839 554 836 554 m 781 767 q 783 763 783 767 q 781 758 783 758 q 778 763 778 758 q 781 767 778 767 z "},"D":{"ha":1249,"x_min":14,"x_max":1233,"o":"m 619 -21 l 624 -25 l 665 56 q 671 60 667 56 q 715 128 690 94 q 760 196 740 163 l 760 200 l 760 204 q 740 210 754 206 q 721 217 725 214 q 706 221 715 218 q 685 227 696 224 q 666 235 675 231 q 653 246 657 240 q 665 253 657 247 q 683 265 674 258 q 701 276 693 271 q 713 285 710 282 q 728 293 721 289 q 742 306 735 297 q 694 438 713 368 q 675 576 675 507 l 679 576 q 691 569 679 576 q 718 550 703 561 q 749 528 733 539 q 776 508 765 517 q 838 456 808 485 q 894 399 868 426 l 899 399 q 909 401 906 399 q 919 407 913 403 q 932 414 924 408 q 950 424 940 419 q 968 434 960 429 q 979 440 976 439 l 983 440 q 976 382 983 411 q 969 322 969 353 q 1038 324 1004 322 q 1107 326 1071 326 l 1196 326 q 1215 325 1200 326 q 1233 322 1229 324 l 1233 324 q 1229 335 1233 331 q 1221 343 1225 340 q 1157 445 1185 397 q 1101 551 1129 493 l 1097 551 l 1017 483 l 1008 483 l 1008 492 q 1008 511 1008 497 q 1006 540 1007 525 q 1005 569 1006 556 q 1004 589 1004 583 q 910 597 960 590 q 818 618 861 603 q 798 626 810 621 q 774 635 786 631 q 754 644 763 640 q 746 649 746 649 l 746 653 q 763 663 746 654 q 789 678 779 672 q 888 719 838 701 q 992 750 939 736 q 999 752 994 750 q 1003 754 1003 754 l 1003 842 q 1022 834 1010 842 q 1046 817 1033 826 q 1069 796 1058 807 q 1085 779 1081 785 l 1089 783 q 1138 881 1107 832 q 1196 969 1169 929 q 1208 987 1199 974 q 1221 1004 1218 1000 l 1221 1008 q 1166 1006 1193 1008 q 1111 1004 1139 1004 q 1034 1006 1072 1004 q 958 1008 996 1008 l 958 1004 q 961 985 958 1000 q 967 953 964 971 q 972 922 969 936 q 975 903 975 907 l 975 899 l 975 894 q 953 905 969 897 q 933 915 938 913 q 922 922 931 917 q 911 928 914 926 q 904 931 908 929 q 899 932 900 932 q 895 929 899 932 q 890 924 892 926 q 795 824 846 869 q 683 742 744 778 q 683 754 683 744 q 682 767 682 764 q 696 897 682 833 q 729 1025 710 961 l 729 1028 q 718 1041 729 1035 q 693 1053 707 1047 q 668 1066 679 1060 q 657 1078 657 1072 q 669 1085 657 1079 q 698 1098 682 1092 q 729 1110 714 1104 q 750 1118 744 1115 q 751 1119 750 1118 q 751 1121 751 1119 l 750 1122 q 746 1126 750 1126 q 736 1141 742 1132 q 724 1158 731 1150 q 713 1174 718 1167 q 708 1182 708 1181 q 663 1269 683 1226 q 619 1356 643 1313 q 558 1242 588 1297 q 492 1131 528 1186 q 488 1122 492 1126 l 488 1121 l 488 1118 q 508 1112 493 1117 q 526 1106 522 1107 q 541 1101 529 1104 q 565 1092 553 1097 q 588 1083 578 1088 q 599 1074 599 1078 l 599 1072 q 586 1065 594 1069 q 568 1055 578 1060 q 550 1044 558 1050 q 539 1038 542 1039 q 522 1030 532 1035 q 513 1017 513 1025 q 513 1014 513 1015 q 514 1013 514 1013 q 551 898 538 958 q 565 778 565 838 q 565 766 565 775 q 564 754 564 757 q 446 833 501 790 q 340 928 390 875 l 336 928 l 281 899 l 272 899 q 277 947 272 922 q 282 996 282 971 q 222 993 251 996 q 163 990 193 990 q 90 995 126 990 q 18 1000 54 1000 l 14 1000 q 38 962 19 983 q 65 928 57 940 q 73 913 67 924 q 86 890 79 901 q 99 867 93 878 q 107 851 104 856 l 111 847 l 150 771 l 158 771 q 170 782 161 774 q 189 799 179 790 q 208 815 199 807 q 221 826 217 824 q 230 833 224 829 q 239 839 236 838 q 241 838 239 839 q 244 838 243 838 l 244 742 q 251 739 244 740 q 260 738 257 738 q 385 711 322 725 q 506 665 447 697 q 507 663 506 665 q 510 661 508 661 q 383 608 450 628 q 249 576 315 588 l 249 472 q 246 471 249 472 q 243 471 243 469 q 237 474 242 471 q 229 479 232 476 q 217 489 226 482 q 199 504 208 496 q 180 519 189 513 q 167 529 171 526 l 163 525 q 106 415 138 467 q 39 310 75 363 q 35 301 39 306 l 35 299 l 35 297 q 99 305 74 304 q 163 306 125 306 q 231 303 197 306 q 299 300 264 300 q 290 356 299 328 q 282 411 282 383 l 285 411 q 322 391 301 401 q 361 374 342 381 q 362 373 361 374 q 364 372 363 372 l 365 374 l 369 378 q 382 394 372 381 q 394 411 392 408 l 467 483 q 490 502 475 490 q 519 525 504 514 q 544 544 533 536 q 556 551 554 551 l 558 551 q 554 438 558 493 q 535 326 550 383 q 529 310 532 318 q 526 292 526 301 q 535 279 526 286 q 555 266 543 272 q 578 255 567 260 q 594 246 589 250 l 590 242 q 573 236 585 240 q 547 227 561 232 q 522 218 533 222 q 506 213 510 214 q 501 210 504 211 q 497 208 497 208 q 565 98 533 156 q 619 -21 596 40 z "},"E":{"ha":1383,"x_min":14,"x_max":1368,"o":"m 640 93 q 646 89 646 93 l 646 -25 q 657 -26 647 -25 q 681 -28 667 -26 q 704 -29 696 -29 l 713 -29 q 721 -29 715 -29 q 726 -25 726 -29 l 726 93 l 733 97 q 740 95 733 99 q 750 89 747 92 q 766 80 753 88 q 794 64 779 72 q 823 48 810 56 q 839 39 836 40 q 867 20 851 32 q 899 8 883 8 l 899 89 q 872 114 899 97 q 814 149 846 131 q 756 181 782 167 q 729 200 729 196 l 729 267 q 739 267 739 267 q 750 263 739 268 q 767 253 754 260 q 792 238 779 246 q 818 222 806 229 q 835 213 831 215 q 863 194 846 206 q 892 182 881 182 l 894 182 q 899 186 894 186 l 899 201 q 898 234 899 221 q 894 271 897 247 q 861 295 888 279 q 806 327 835 311 q 753 356 776 343 q 729 372 729 368 l 729 513 q 739 523 729 517 q 760 535 749 529 q 783 547 772 542 q 797 551 794 551 q 828 542 814 551 q 856 525 843 533 q 883 509 865 519 q 913 492 901 499 q 926 483 925 485 l 926 279 q 961 258 943 272 q 999 244 979 244 q 999 335 999 286 q 1004 428 1000 385 q 1008 432 1004 432 l 1010 432 l 1013 432 l 1029 424 q 1054 408 1039 418 q 1069 399 1069 399 l 1069 204 q 1076 200 1069 200 q 1110 178 1092 192 q 1146 164 1129 164 l 1146 343 q 1150 345 1146 343 q 1157 347 1154 347 l 1158 347 l 1161 347 q 1214 319 1188 333 q 1267 289 1240 304 q 1276 299 1269 290 q 1290 317 1283 307 q 1301 338 1297 328 q 1304 351 1306 347 q 1285 368 1301 360 q 1250 385 1268 376 q 1217 402 1232 393 q 1203 419 1203 411 q 1206 427 1203 426 q 1215 432 1208 428 q 1233 443 1219 435 q 1264 460 1247 451 q 1295 478 1281 469 q 1317 492 1310 488 q 1340 504 1328 499 q 1360 521 1351 510 q 1349 531 1358 524 q 1326 545 1339 538 q 1301 558 1314 553 q 1282 564 1289 564 q 1274 563 1275 564 q 1267 558 1272 563 q 1259 554 1265 558 q 1245 546 1253 550 q 1231 538 1238 542 q 1224 533 1225 535 q 1200 519 1215 529 q 1167 499 1185 508 q 1134 481 1150 489 q 1108 474 1118 474 q 1093 477 1103 474 q 1074 485 1083 481 q 1057 496 1064 490 q 1050 507 1050 501 l 1050 508 l 1203 601 q 1207 606 1207 601 l 1207 608 l 1207 610 q 1201 614 1206 611 q 1194 618 1197 617 q 1164 634 1183 625 q 1143 643 1144 643 l 1131 643 q 1110 634 1129 643 q 1081 618 1092 625 q 1073 613 1079 617 q 1059 606 1067 610 q 1045 598 1051 601 q 1038 593 1039 594 q 1024 585 1033 590 q 1002 573 1014 579 q 981 561 990 567 q 967 554 971 556 l 964 554 q 938 564 958 554 q 894 587 917 574 q 853 615 871 600 q 835 639 835 629 l 835 703 q 854 723 835 710 q 898 750 874 736 q 943 774 922 764 q 967 783 964 783 l 971 783 q 982 778 972 782 q 996 771 992 774 q 1005 765 997 769 q 1021 756 1013 761 q 1037 747 1029 751 q 1046 742 1044 743 q 1095 710 1068 729 q 1147 690 1122 690 q 1156 690 1154 690 q 1165 694 1158 690 q 1176 701 1168 696 q 1192 712 1183 707 q 1209 722 1201 717 q 1219 728 1217 726 q 1188 756 1208 747 q 1149 775 1167 764 q 1131 785 1143 778 q 1106 800 1119 792 q 1080 815 1092 808 q 1064 825 1068 822 q 1058 835 1058 828 q 1067 845 1058 839 q 1085 856 1075 851 q 1103 865 1094 861 q 1113 868 1113 868 l 1114 868 l 1292 771 l 1294 771 q 1307 776 1296 771 q 1331 789 1318 782 q 1354 803 1343 796 q 1368 813 1365 810 q 1294 859 1333 838 q 1219 901 1256 881 q 1210 908 1218 903 q 1203 917 1203 913 q 1215 932 1203 926 q 1232 940 1228 938 q 1259 956 1242 946 q 1288 974 1276 967 q 1300 982 1299 981 l 1300 986 q 1297 992 1300 986 q 1288 1007 1293 999 q 1278 1024 1283 1015 q 1271 1038 1274 1032 q 1266 1043 1269 1040 q 1263 1046 1263 1046 l 1165 990 l 1157 990 q 1154 1016 1156 997 q 1153 1042 1153 1035 q 1152 1069 1153 1050 q 1151 1111 1151 1089 q 1152 1153 1151 1133 q 1153 1181 1153 1172 l 1149 1185 q 1138 1180 1149 1185 q 1113 1167 1126 1175 q 1087 1151 1099 1160 q 1072 1139 1075 1143 q 1068 940 1065 1039 q 1042 918 1061 931 q 1013 906 1024 906 q 1001 914 1001 906 l 1001 1096 q 988 1090 999 1094 q 975 1083 978 1086 q 945 1066 964 1076 q 926 1054 926 1056 l 926 856 q 906 840 926 851 q 863 815 886 828 q 818 793 839 803 q 797 783 797 783 l 793 783 q 776 790 786 785 q 755 802 765 796 q 737 814 744 808 q 729 821 729 819 l 729 965 l 733 969 q 806 1012 768 993 q 878 1054 843 1031 q 890 1064 882 1057 q 899 1071 899 1071 l 899 1156 q 890 1151 894 1156 q 869 1140 886 1149 q 834 1120 853 1131 q 799 1100 815 1110 q 779 1088 783 1090 q 759 1075 772 1083 q 738 1067 746 1067 q 732 1067 735 1067 q 729 1071 729 1068 l 729 1139 q 756 1158 729 1143 q 814 1191 782 1174 q 872 1224 846 1208 q 899 1244 899 1239 l 899 1329 l 886 1325 q 860 1310 879 1321 q 820 1287 842 1299 q 780 1264 799 1275 q 754 1249 761 1253 l 738 1240 l 735 1240 l 733 1240 q 729 1243 732 1242 q 726 1244 726 1244 l 726 1350 l 646 1350 q 646 1335 646 1346 q 645 1314 646 1325 q 644 1292 644 1303 q 644 1278 644 1282 q 643 1255 644 1269 q 640 1240 642 1240 l 636 1240 q 619 1249 635 1240 q 593 1261 603 1257 q 577 1270 590 1263 q 549 1287 564 1278 q 522 1303 535 1296 q 504 1313 508 1310 q 492 1319 501 1315 q 479 1325 482 1324 q 478 1326 479 1325 q 475 1326 476 1326 l 475 1244 q 483 1235 475 1240 q 500 1224 490 1229 q 520 1215 510 1219 q 535 1207 531 1210 q 563 1190 546 1200 q 596 1169 579 1179 q 624 1151 613 1158 q 636 1143 636 1143 l 640 1139 q 643 1125 642 1138 q 644 1106 644 1113 q 643 1087 644 1099 q 640 1075 642 1075 l 632 1075 q 557 1121 596 1099 q 483 1164 518 1143 l 482 1164 l 479 1164 q 475 1160 475 1164 l 475 1075 l 483 1067 q 500 1057 483 1067 q 540 1033 517 1047 q 587 1006 563 1019 q 628 982 611 992 q 640 976 635 978 q 644 961 644 974 l 644 817 q 635 808 644 814 q 615 795 626 801 q 593 784 604 789 q 576 779 582 779 l 572 779 l 450 847 q 446 860 446 850 q 446 872 446 869 q 445 908 446 882 q 444 961 444 933 q 442 1015 443 989 q 442 1050 442 1040 q 410 1074 431 1065 q 371 1088 389 1083 l 371 910 q 361 901 371 901 q 349 906 358 901 q 328 917 339 911 q 308 930 317 924 q 300 940 300 936 l 300 1131 q 297 1132 300 1131 q 293 1135 294 1133 q 258 1157 278 1143 q 219 1171 238 1171 l 219 988 q 192 995 204 988 q 167 1013 179 1003 q 141 1030 154 1022 q 114 1038 128 1038 l 107 1038 q 94 1014 104 1032 q 82 990 85 996 q 77 986 78 983 q 76 979 76 989 q 80 972 76 971 q 94 965 83 972 q 110 956 99 963 q 133 942 121 950 q 156 928 144 935 q 171 918 167 921 q 174 915 172 918 q 175 910 175 913 q 160 897 174 906 q 130 878 147 888 q 96 860 113 868 q 74 847 79 851 q 46 830 67 843 q 18 813 25 817 q 14 808 14 813 l 22 800 q 33 794 25 799 q 50 785 42 790 q 67 776 58 781 q 78 771 75 772 l 83 771 q 91 772 90 771 q 99 775 92 772 q 169 817 135 797 q 243 860 204 838 q 250 863 249 863 q 257 864 251 864 q 272 859 261 864 q 294 848 283 854 q 315 835 306 842 q 324 824 324 828 q 323 823 324 824 q 322 821 322 822 q 312 815 319 819 q 296 805 304 810 q 279 794 288 800 q 268 788 271 789 q 260 783 267 786 q 251 779 253 781 q 231 767 243 775 q 206 751 218 758 q 184 738 193 744 q 175 732 175 732 l 167 724 q 178 715 168 722 q 200 701 188 708 q 224 688 213 694 q 240 682 236 682 l 243 682 q 278 703 254 688 q 329 734 303 718 q 378 763 356 750 q 410 775 401 775 q 425 772 421 775 q 442 763 429 769 q 466 749 451 757 q 495 732 481 740 q 520 717 510 724 q 531 711 531 711 l 535 707 l 535 626 l 531 622 q 526 620 529 622 q 522 618 522 618 q 503 608 517 615 q 476 591 490 600 q 448 574 461 582 q 429 564 435 567 q 410 558 418 558 q 399 560 401 558 q 386 568 396 561 q 360 583 379 572 q 321 606 342 593 q 281 628 300 618 q 256 643 263 639 q 249 646 253 644 q 243 647 244 647 q 240 649 242 649 q 240 649 240 649 q 225 643 236 649 q 201 630 214 638 q 178 615 189 622 q 167 606 168 608 l 171 601 q 185 592 172 600 q 217 573 199 585 q 247 554 236 561 q 251 553 247 554 q 256 550 254 551 q 282 534 265 544 q 310 517 299 524 q 322 508 321 510 l 322 504 q 313 497 322 504 q 297 488 304 490 q 281 478 292 485 q 268 471 269 471 q 264 469 268 469 q 246 475 257 469 q 222 488 235 481 q 198 501 210 494 q 179 513 186 508 q 167 519 176 514 q 147 531 158 525 q 127 543 136 538 q 115 550 118 549 q 101 558 111 553 q 90 564 92 563 q 75 558 86 564 q 51 545 64 553 q 28 529 39 538 q 14 517 18 521 l 18 513 l 167 424 q 168 422 167 424 q 171 419 169 419 l 171 417 q 156 403 171 413 q 122 385 140 394 q 88 367 103 376 q 72 353 72 358 q 76 341 72 346 q 82 331 79 336 q 92 312 85 326 q 103 293 100 297 l 115 293 q 163 322 138 307 q 213 347 189 336 l 215 347 l 217 347 q 222 345 219 347 q 224 343 224 343 l 224 157 q 289 190 260 172 q 296 196 292 193 q 300 200 300 199 l 300 399 q 307 403 300 399 q 318 411 314 408 q 340 422 324 414 q 361 432 356 429 q 367 426 364 431 q 369 419 369 422 l 369 240 q 388 244 378 240 q 410 253 399 247 q 431 266 421 260 q 446 279 440 272 q 445 381 444 326 q 450 483 446 435 l 458 492 q 509 522 481 508 q 560 550 538 536 l 585 550 l 636 525 l 644 513 l 644 372 q 621 351 644 365 q 567 322 597 338 q 510 292 538 307 q 475 267 482 276 l 475 233 q 474 208 475 222 q 479 182 474 193 q 510 199 488 186 q 558 228 532 213 q 606 255 583 243 q 636 267 628 267 q 642 267 639 267 q 644 263 644 267 l 644 208 q 619 183 644 200 q 562 149 593 167 q 505 118 531 132 q 479 101 479 104 l 479 8 l 483 8 q 524 28 504 14 q 560 51 544 42 q 599 76 575 60 q 640 93 622 93 m 668 -4 l 668 89 q 658 106 668 97 q 640 115 649 115 q 608 105 626 114 q 570 84 589 96 q 533 61 551 72 q 504 43 515 50 l 500 43 l 500 89 q 522 104 500 92 q 571 131 543 117 q 624 161 599 146 q 657 186 650 176 q 665 210 665 197 q 665 235 665 224 q 662 271 665 253 q 636 289 658 289 q 605 280 624 289 q 567 258 586 271 q 528 234 547 246 q 496 217 510 222 l 496 254 q 522 274 496 261 q 581 304 549 288 q 639 339 613 321 q 665 372 665 357 l 665 513 q 655 538 665 526 q 630 556 644 549 q 599 568 615 564 q 572 572 583 572 q 544 563 567 572 q 496 540 521 553 q 450 511 471 526 q 429 483 429 496 q 424 388 425 438 q 425 293 424 338 q 408 279 419 285 q 390 271 397 274 l 390 419 q 381 442 390 431 q 361 453 372 453 q 343 447 357 453 q 315 434 329 442 q 289 417 300 426 q 278 399 278 407 l 278 208 l 244 190 l 244 343 q 234 361 244 354 q 215 368 224 368 l 213 368 q 162 346 188 361 q 115 318 136 331 q 106 328 108 321 q 103 343 103 336 l 103 347 q 131 365 110 351 q 158 382 151 378 q 181 395 169 389 q 192 417 192 401 q 179 440 192 433 l 51 517 l 51 521 q 65 528 51 522 q 86 538 78 535 l 90 538 q 96 537 94 538 q 103 533 97 536 q 115 526 106 532 q 135 515 124 521 q 155 503 146 508 q 167 496 164 497 q 213 467 186 485 q 264 449 240 449 q 285 454 271 449 q 312 468 299 460 q 335 486 325 476 q 344 506 344 496 q 334 528 344 518 q 310 546 324 538 q 282 560 296 554 q 260 572 268 567 q 249 578 257 574 q 232 588 240 583 q 215 598 224 593 q 204 606 207 603 q 222 615 215 613 q 240 618 228 618 q 285 606 264 618 q 326 578 306 593 q 366 550 346 563 q 410 538 386 538 q 425 540 419 538 q 442 546 431 542 q 460 557 447 549 q 488 574 474 565 q 516 590 503 582 q 535 601 529 599 q 549 610 542 606 q 556 626 556 615 l 556 707 q 543 728 556 721 q 525 738 538 731 q 499 754 513 746 q 472 769 485 763 q 454 779 460 776 q 433 790 444 785 q 410 796 421 796 q 373 785 394 796 q 327 758 351 774 q 281 728 303 743 q 243 707 258 714 l 240 707 q 221 714 232 707 q 204 724 210 721 q 206 726 204 725 q 208 728 208 728 q 236 745 215 732 q 264 763 257 758 q 286 774 272 768 q 313 786 300 779 q 335 802 326 793 q 344 824 344 811 q 335 846 344 835 q 311 865 325 857 q 282 879 297 874 q 257 885 267 885 q 229 876 242 885 q 207 863 225 874 q 168 840 189 853 q 129 817 147 828 q 107 804 111 807 q 99 800 103 804 q 92 797 97 800 q 86 792 88 793 l 83 792 l 82 792 q 67 800 78 794 q 51 808 56 806 q 85 827 61 815 q 133 853 108 839 q 177 883 158 868 q 196 910 196 897 q 182 937 196 925 q 151 958 168 949 q 121 974 135 967 q 107 989 107 981 l 107 990 q 112 1001 108 993 q 119 1011 115 1008 q 166 983 140 1001 q 215 965 192 965 q 231 971 222 965 q 240 986 240 976 l 240 1139 q 246 1137 242 1139 q 251 1135 250 1135 q 268 1125 258 1132 q 278 1118 278 1118 l 278 940 q 288 919 278 929 q 311 900 297 908 q 339 886 325 892 q 361 881 353 881 q 383 889 372 881 q 393 910 393 897 l 393 1054 l 419 1042 q 420 1022 419 1042 q 422 976 421 1003 q 424 919 424 949 q 425 872 425 890 q 426 849 425 861 q 438 829 426 836 l 560 763 q 565 760 561 761 q 572 758 569 758 l 576 758 q 600 764 585 758 q 630 778 615 769 q 655 797 644 786 q 665 817 665 807 l 665 961 q 658 983 665 974 q 640 999 650 993 q 599 1022 624 1008 q 552 1050 575 1036 q 513 1074 529 1064 q 496 1083 496 1083 l 496 1131 q 525 1114 506 1126 q 566 1088 544 1101 q 607 1065 588 1075 q 636 1054 626 1054 q 660 1072 656 1054 q 665 1106 665 1089 q 663 1134 665 1115 q 649 1160 660 1153 q 628 1173 643 1164 q 598 1192 614 1182 q 567 1210 582 1201 q 547 1224 553 1219 q 539 1228 546 1225 q 531 1232 532 1231 q 509 1244 522 1236 q 496 1253 496 1253 l 496 1292 q 528 1274 508 1286 q 568 1250 547 1263 q 608 1228 589 1238 q 638 1219 626 1219 q 655 1226 649 1219 q 663 1242 661 1232 q 665 1261 665 1251 q 665 1278 665 1271 q 666 1304 665 1285 q 667 1329 667 1324 l 706 1329 l 706 1244 q 716 1226 706 1233 q 735 1219 726 1219 q 751 1224 742 1219 q 767 1232 761 1229 q 788 1245 772 1236 q 822 1264 804 1254 q 856 1283 840 1274 q 878 1296 871 1292 l 878 1253 q 851 1235 878 1249 q 793 1204 825 1221 q 735 1170 761 1188 q 708 1139 708 1153 l 708 1071 q 717 1053 708 1060 q 738 1046 726 1046 q 772 1057 753 1046 q 812 1082 792 1068 q 849 1107 832 1096 q 878 1118 867 1118 l 878 1083 q 865 1072 878 1079 q 837 1055 853 1064 q 806 1038 821 1046 q 789 1029 792 1031 q 773 1020 783 1026 q 752 1007 763 1014 q 733 994 742 1000 q 721 986 724 988 q 708 965 708 979 l 708 821 q 719 799 708 810 q 744 781 729 789 q 773 767 758 772 q 797 763 788 763 q 826 772 801 763 q 877 797 850 782 q 926 827 904 811 q 947 856 947 843 l 947 1042 q 954 1047 947 1042 q 967 1054 961 1051 q 981 1060 975 1060 l 981 914 q 991 893 981 901 q 1013 885 1001 885 q 1034 890 1021 885 q 1059 903 1047 894 q 1080 921 1071 911 q 1089 940 1089 931 q 1093 1131 1086 1035 q 1112 1142 1103 1136 q 1131 1151 1121 1147 l 1131 1042 q 1131 1021 1131 1033 q 1133 997 1131 1008 q 1141 978 1135 986 q 1161 969 1147 969 l 1165 969 q 1172 971 1167 969 q 1178 974 1176 972 q 1193 981 1182 975 q 1216 994 1204 988 q 1239 1008 1228 1001 q 1254 1017 1250 1014 l 1258 1017 l 1271 990 q 1260 982 1271 989 q 1234 966 1249 975 q 1205 947 1219 957 q 1186 932 1190 938 q 1184 926 1186 931 q 1182 918 1182 921 l 1182 917 q 1201 885 1182 899 q 1244 860 1219 871 q 1293 838 1269 849 q 1325 813 1317 826 q 1311 801 1321 806 q 1294 796 1301 796 l 1292 796 l 1126 885 q 1121 888 1125 886 q 1114 889 1117 889 l 1113 889 q 1092 884 1104 889 q 1067 872 1079 879 q 1046 854 1054 864 q 1038 835 1038 844 q 1050 808 1038 817 q 1067 799 1056 806 q 1093 783 1079 792 q 1119 768 1107 775 q 1135 758 1131 761 q 1140 756 1136 757 q 1143 754 1143 754 q 1165 741 1151 749 q 1178 732 1178 733 l 1178 728 q 1168 720 1178 726 q 1153 711 1158 714 l 1149 711 q 1138 714 1142 711 q 1126 719 1133 717 q 1117 725 1125 721 q 1101 735 1110 729 q 1085 744 1093 740 q 1076 750 1078 749 q 1051 765 1065 756 q 1023 783 1038 774 q 994 798 1008 792 q 967 804 979 804 q 932 794 956 804 q 883 768 908 783 q 838 735 858 753 q 814 703 818 717 q 813 688 814 700 q 813 671 813 675 q 817 628 813 647 q 843 597 821 610 q 860 588 849 594 q 885 573 872 581 q 909 558 899 565 q 924 550 919 551 q 942 540 928 547 q 964 533 956 533 l 967 533 q 973 536 968 535 q 979 538 978 538 q 1038 567 1008 553 q 1097 597 1068 582 q 1116 613 1108 603 q 1138 622 1124 622 q 1154 616 1144 622 q 1169 606 1164 610 q 1134 585 1157 597 q 1088 560 1111 574 q 1047 533 1064 547 q 1029 506 1029 519 q 1038 485 1029 494 q 1058 468 1046 475 q 1085 457 1071 461 q 1108 453 1099 453 q 1146 464 1122 453 q 1195 490 1169 475 q 1244 519 1221 504 q 1279 542 1267 533 l 1281 542 l 1283 542 q 1287 540 1283 542 q 1292 538 1290 539 q 1306 529 1294 535 q 1321 521 1318 524 q 1288 497 1311 508 q 1242 474 1265 486 q 1200 449 1218 463 q 1182 419 1182 436 q 1197 392 1182 404 q 1228 372 1211 381 q 1260 355 1246 363 q 1275 342 1275 347 l 1275 339 q 1269 328 1274 336 q 1263 318 1264 321 l 1260 318 q 1238 325 1251 318 q 1211 341 1225 332 q 1184 358 1197 350 q 1161 368 1171 365 l 1158 368 q 1138 361 1150 368 q 1125 343 1125 354 l 1125 197 q 1118 200 1121 197 q 1101 209 1111 203 q 1090 217 1090 215 l 1090 399 q 1081 415 1090 406 q 1058 433 1071 425 q 1031 447 1044 442 q 1011 453 1018 453 q 992 446 1000 453 q 983 428 985 439 q 979 353 981 394 q 978 279 978 311 l 975 279 q 958 287 968 282 q 947 293 947 292 l 947 483 q 928 505 947 490 q 885 535 910 519 q 836 561 861 550 q 799 572 811 572 q 775 567 790 572 q 745 553 760 561 q 719 533 731 544 q 708 513 708 522 l 708 372 q 715 356 708 363 q 729 344 721 349 q 747 335 738 339 q 763 326 756 331 q 781 316 767 324 q 810 299 794 308 q 839 281 825 289 q 856 271 853 272 q 865 267 858 269 q 872 258 872 264 l 878 217 l 875 217 l 872 217 q 860 222 869 218 q 847 229 850 226 q 831 239 843 232 q 805 254 818 246 q 779 269 792 263 q 763 279 767 276 q 750 285 760 282 q 738 289 740 288 l 733 289 q 716 283 724 289 q 708 267 708 278 l 708 200 q 724 177 708 189 q 760 153 739 165 q 801 131 781 142 q 831 115 821 121 q 844 108 836 113 q 859 98 851 103 q 872 89 867 93 q 878 85 878 85 l 878 42 q 848 53 867 42 q 808 80 829 65 q 767 107 788 94 q 733 119 746 119 q 715 111 725 119 q 706 93 706 103 l 706 -8 l 668 -4 m 689 767 q 665 761 681 767 q 635 747 650 756 q 608 727 619 738 q 597 707 597 717 l 597 631 q 608 611 597 622 q 635 590 619 600 q 665 574 650 581 q 689 567 681 567 q 713 572 697 567 q 742 587 728 578 q 768 608 757 596 q 779 631 779 619 l 779 703 q 769 727 779 715 q 744 748 758 739 q 715 762 731 757 q 689 767 699 767 m 689 746 l 700 746 q 725 731 706 742 q 750 715 744 719 q 756 710 753 714 q 758 703 758 706 l 758 631 l 754 622 q 741 614 754 622 q 721 601 728 606 q 706 594 715 599 q 689 589 696 589 q 674 594 685 589 q 651 608 663 600 q 629 622 639 615 q 619 631 619 628 l 619 707 q 629 717 619 711 q 651 730 639 724 q 675 741 664 736 q 689 746 686 746 m 1085 614 q 1082 611 1083 611 q 1081 614 1081 611 q 1082 617 1079 617 q 1085 614 1085 617 m 233 643 q 236 639 236 643 q 233 635 236 635 q 231 639 231 635 q 233 643 231 643 m 797 1096 q 800 1092 800 1096 q 797 1088 800 1088 q 794 1092 794 1088 q 797 1096 794 1096 z "},"F":{"ha":1226,"x_min":13,"x_max":1211,"o":"m 581 56 l 585 51 q 597 26 588 44 q 610 0 607 7 l 613 0 l 615 0 l 619 4 q 682 106 653 54 q 742 211 711 158 q 745 219 744 218 q 746 226 746 221 q 729 258 746 246 l 647 413 l 699 513 q 712 522 703 519 q 731 526 721 525 q 749 526 740 526 q 764 525 758 525 q 792 526 781 525 q 815 526 804 528 q 834 517 825 524 q 851 494 843 510 q 866 468 854 489 q 892 423 878 447 q 917 378 906 399 q 932 351 929 357 q 940 339 935 347 q 953 331 946 331 l 1207 331 l 1211 335 l 1168 414 l 1164 419 l 1085 565 l 881 565 l 868 571 q 861 582 867 572 q 847 607 856 592 q 835 631 839 622 l 818 664 l 814 668 q 808 678 811 671 q 806 685 806 685 q 809 699 804 690 q 818 711 814 708 q 824 724 819 715 q 834 743 829 733 q 844 762 839 753 q 851 774 849 771 q 857 782 854 776 q 860 788 860 788 l 1067 796 l 1081 808 q 1090 826 1082 811 q 1111 863 1099 840 q 1131 897 1124 885 q 1147 931 1140 913 q 1168 960 1153 950 l 1204 1028 l 944 1028 q 933 1022 936 1028 q 928 1011 931 1017 q 881 931 904 971 q 835 850 858 890 l 831 846 l 713 846 q 708 849 711 846 q 703 854 706 851 q 697 865 701 856 q 686 884 692 874 q 676 903 681 894 q 669 914 671 911 q 656 934 664 924 q 649 956 649 944 l 649 960 l 729 1108 q 744 1126 739 1114 q 750 1150 750 1139 q 744 1174 750 1161 q 729 1193 739 1188 q 674 1287 703 1239 q 619 1383 644 1335 q 609 1374 613 1379 q 601 1363 606 1369 q 592 1346 599 1358 q 578 1320 586 1333 q 565 1294 571 1307 q 556 1278 558 1282 l 551 1274 l 488 1160 l 488 1151 q 490 1138 488 1140 q 500 1121 493 1136 q 510 1102 503 1115 q 526 1073 518 1089 q 541 1043 533 1057 q 551 1024 549 1029 q 553 1022 551 1024 q 556 1019 556 1021 q 563 1005 558 1014 q 573 987 568 996 q 581 971 578 978 q 585 964 585 964 l 585 951 q 578 941 583 950 q 567 918 574 932 q 556 897 560 904 q 550 886 554 894 q 540 869 546 878 q 528 853 535 860 q 517 846 522 846 l 403 846 q 392 863 400 850 q 382 881 385 876 q 380 882 382 881 q 378 885 378 883 l 297 1028 l 47 1028 q 39 1019 39 1028 q 44 1007 39 1013 q 51 994 49 1001 q 65 971 56 988 q 83 935 74 954 q 102 899 93 915 q 115 875 111 882 q 123 867 119 872 q 128 858 126 861 q 135 844 129 854 q 147 824 140 835 q 158 803 153 813 q 167 789 164 793 l 374 789 q 382 775 374 789 q 401 744 390 761 q 420 710 411 726 q 429 689 429 693 q 429 688 429 689 q 428 685 429 686 l 382 606 q 369 588 374 599 q 357 571 365 578 q 252 566 308 567 q 149 567 196 565 l 144 563 l 31 364 q 17 348 22 358 q 13 328 13 338 q 56 328 25 328 q 122 328 88 328 q 186 330 156 329 q 229 331 217 331 q 255 332 236 331 q 281 335 274 333 q 301 360 293 344 q 318 389 306 368 q 344 433 331 410 q 369 478 357 457 q 386 507 382 499 q 388 510 386 508 q 390 513 390 511 q 398 517 393 514 q 403 521 403 521 l 526 521 q 531 514 526 521 q 539 503 536 507 q 551 485 543 497 q 566 460 558 474 q 579 435 574 447 q 585 418 585 424 l 585 414 l 488 238 l 488 229 q 488 220 488 222 q 492 211 489 218 q 510 181 497 203 q 536 133 522 158 q 563 86 550 108 q 581 56 575 64 m 1050 503 q 1053 499 1053 503 q 1050 494 1053 494 q 1047 499 1047 494 q 1050 503 1047 503 z "},"G":{"ha":1235,"x_min":13,"x_max":1221,"o":"m 581 47 q 601 10 588 35 q 628 -25 614 -15 q 640 -10 632 -21 q 656 15 649 1 q 668 40 663 28 q 674 56 674 51 l 674 60 q 665 67 672 61 q 657 76 657 74 q 659 93 656 81 q 663 108 663 106 q 678 101 668 108 q 694 97 689 94 q 712 117 706 101 q 721 140 718 133 q 698 153 710 147 q 676 165 686 158 q 660 180 667 171 q 653 204 653 189 q 653 213 653 210 q 661 217 654 217 l 665 217 q 687 206 671 214 q 707 194 703 197 q 722 186 710 193 q 738 178 735 179 l 739 178 l 742 178 q 757 194 751 183 q 763 217 763 206 q 754 229 763 224 q 738 238 750 232 q 714 252 726 244 q 690 266 701 260 q 674 275 678 272 q 662 281 668 278 q 653 292 656 285 q 654 307 651 296 q 657 321 657 318 q 659 322 658 321 q 661 322 660 322 q 668 319 664 321 q 674 318 672 318 l 779 258 l 788 258 q 797 273 790 261 q 804 288 803 285 q 810 292 808 292 l 810 294 l 810 296 q 744 337 778 321 q 678 376 710 353 l 678 379 q 700 399 678 383 q 749 431 722 414 q 801 461 776 447 q 828 475 825 475 q 839 467 836 475 q 843 449 842 460 q 844 429 844 439 q 843 415 843 419 q 844 396 843 410 q 845 366 844 382 q 847 337 846 350 q 847 318 847 324 l 881 318 q 885 322 885 318 q 888 329 886 325 q 889 335 889 333 l 889 469 q 891 472 889 471 q 893 474 893 474 q 895 474 894 474 q 896 475 896 475 q 919 462 911 475 q 928 436 926 449 q 928 413 928 429 q 930 379 929 397 q 931 344 931 361 q 932 322 932 328 l 981 322 l 981 417 q 1003 415 993 417 q 1021 403 1013 414 q 1024 364 1022 388 q 1025 322 1025 340 l 1071 322 l 1075 326 l 1075 360 q 1078 367 1076 367 q 1083 368 1079 368 q 1105 362 1099 368 q 1113 347 1111 356 q 1116 331 1115 339 q 1122 322 1117 324 l 1150 322 q 1183 323 1169 322 q 1219 326 1197 324 q 1197 371 1211 346 q 1172 411 1182 396 q 1141 410 1156 408 q 1114 424 1126 411 l 1114 425 l 1114 428 q 1122 436 1115 431 q 1131 444 1128 442 q 1138 449 1133 447 q 1143 456 1143 450 l 1143 457 l 1117 497 l 1058 461 l 1051 461 q 1032 465 1043 461 q 1021 478 1021 468 q 1031 495 1021 489 q 1055 506 1042 501 q 1078 517 1068 511 q 1089 535 1089 524 q 1084 558 1089 544 q 1069 572 1079 572 l 1067 571 q 1059 567 1065 571 q 1050 563 1053 564 q 1035 553 1046 560 q 1012 540 1024 547 q 989 526 1000 532 q 974 517 978 519 q 965 513 968 514 q 954 513 961 513 q 935 518 947 513 q 924 532 924 524 q 941 549 924 538 q 981 572 958 560 q 1022 596 1003 585 q 1046 614 1042 607 q 1038 633 1044 619 q 1022 647 1032 647 q 993 637 1008 647 q 962 613 978 626 q 930 590 946 600 q 897 579 914 579 q 886 591 888 579 q 885 610 885 603 l 885 757 q 922 749 903 757 q 959 731 940 742 q 995 709 978 721 q 1029 690 1013 697 q 1042 710 1035 697 q 1050 731 1050 722 l 1050 732 q 1046 736 1050 736 l 928 804 q 924 808 924 804 l 924 811 l 924 813 q 937 826 928 819 q 956 833 946 833 l 957 833 q 971 828 960 833 q 986 821 982 824 q 1000 813 993 819 l 1071 775 l 1074 774 l 1075 775 q 1079 779 1079 775 q 1088 795 1082 782 q 1097 813 1094 808 l 1097 815 q 1088 826 1097 819 q 1065 839 1078 832 q 1039 853 1051 846 q 1021 864 1026 860 q 1020 865 1021 864 q 1019 868 1019 867 q 1030 881 1019 878 q 1049 885 1040 885 q 1084 873 1068 885 q 1118 854 1100 861 q 1134 872 1125 861 q 1143 893 1143 883 q 1138 902 1143 899 q 1126 908 1132 906 q 1115 915 1119 911 q 1110 925 1110 918 q 1120 938 1110 932 q 1136 944 1131 944 q 1150 940 1144 944 q 1163 935 1156 935 q 1174 947 1165 935 q 1194 976 1183 960 q 1213 1007 1204 992 q 1221 1028 1221 1022 l 1114 1028 q 1104 993 1113 1013 q 1074 974 1096 974 l 1071 974 q 1065 978 1065 974 l 1065 1024 q 1058 1027 1065 1026 q 1049 1028 1051 1028 q 1028 1027 1042 1028 q 1014 1015 1014 1026 l 1014 935 q 1012 933 1014 935 q 1008 931 1010 932 q 995 923 1001 928 q 982 918 989 918 l 978 918 q 973 972 974 942 q 972 1024 972 1001 l 919 1024 l 919 881 q 906 868 919 874 q 889 863 893 863 q 879 872 879 863 l 879 1019 l 832 1019 l 832 868 q 828 864 832 865 q 822 863 824 863 q 812 865 815 863 q 800 872 808 868 q 784 881 797 874 q 756 897 771 889 q 728 913 742 906 q 711 922 715 921 q 699 927 707 924 q 684 935 692 931 q 671 943 676 939 q 665 951 665 947 q 669 961 665 958 l 783 1032 l 788 1036 l 788 1039 q 779 1058 788 1044 q 763 1071 771 1071 q 735 1062 750 1071 q 706 1041 721 1053 q 675 1020 690 1029 q 646 1011 660 1011 l 644 1011 q 639 1038 639 1024 q 653 1060 639 1051 q 678 1075 667 1068 q 691 1082 682 1076 q 710 1094 700 1088 q 728 1105 719 1100 q 742 1113 738 1110 l 742 1115 l 742 1117 q 733 1133 739 1121 q 725 1147 726 1144 l 717 1156 q 702 1151 710 1157 q 690 1143 694 1144 q 667 1129 682 1138 q 653 1121 653 1121 l 646 1121 q 642 1134 646 1124 q 640 1147 638 1144 q 651 1158 642 1150 q 669 1173 660 1165 q 687 1187 679 1181 q 694 1193 694 1193 l 674 1236 l 672 1236 l 669 1236 q 661 1231 668 1235 q 653 1226 654 1228 l 649 1226 q 640 1231 642 1226 q 640 1239 640 1233 q 639 1246 639 1244 q 640 1254 639 1249 q 640 1261 640 1260 q 644 1267 640 1263 q 649 1274 649 1272 q 646 1281 649 1275 q 640 1290 643 1288 q 638 1293 640 1292 q 636 1294 636 1294 q 622 1326 626 1308 q 601 1350 617 1343 l 600 1350 q 589 1339 596 1350 q 574 1313 582 1328 q 561 1286 567 1299 q 556 1269 556 1274 l 556 1265 q 566 1255 558 1263 q 576 1244 574 1247 l 576 1236 q 575 1224 576 1229 q 567 1218 574 1218 q 551 1223 558 1218 q 536 1228 544 1228 q 515 1212 526 1228 q 504 1188 504 1196 l 504 1185 q 525 1174 513 1179 q 549 1162 538 1168 q 569 1147 561 1156 q 576 1126 576 1139 q 577 1116 576 1124 q 571 1108 578 1108 q 549 1115 558 1108 q 529 1128 539 1121 q 509 1141 519 1135 q 488 1147 499 1147 l 483 1147 q 477 1136 482 1144 q 471 1125 472 1128 q 465 1116 468 1122 q 463 1108 463 1110 q 481 1094 463 1103 q 519 1074 499 1085 q 558 1053 540 1064 q 576 1036 576 1043 l 576 1006 q 543 1013 560 1006 q 510 1029 526 1019 q 477 1049 493 1039 q 446 1067 461 1060 l 442 1067 l 438 1067 q 428 1049 435 1063 q 419 1032 422 1036 l 419 1031 l 419 1028 l 428 1019 q 438 1014 429 1018 q 456 1005 446 1010 q 473 996 465 1000 q 483 990 481 992 q 501 980 490 986 q 520 967 511 974 q 536 956 529 961 q 543 951 543 951 l 543 943 q 533 936 543 943 q 517 926 524 929 q 493 913 510 922 q 458 893 476 904 q 422 872 439 882 q 399 858 406 863 l 393 858 q 385 859 390 858 q 379 864 379 860 l 379 1011 l 333 1011 l 333 861 q 297 874 303 861 q 289 914 290 888 q 288 933 289 919 q 287 963 288 947 q 285 992 286 979 q 285 1011 285 1006 l 238 1011 l 233 1007 q 229 914 236 960 l 228 914 q 206 926 213 914 q 195 953 199 938 q 192 983 192 968 q 192 1007 192 1000 q 183 1011 188 1011 l 181 1011 l 179 1011 q 160 1010 175 1011 q 140 1007 144 1008 q 142 989 142 1003 q 140 974 142 976 q 139 969 140 972 q 136 965 138 965 q 110 980 121 972 q 99 1007 99 988 l 13 1007 q 18 984 13 996 q 31 961 24 972 q 47 940 39 950 q 60 922 56 929 l 63 922 q 73 924 68 922 q 85 926 78 926 q 99 924 94 926 q 115 914 104 921 l 115 910 q 103 894 115 901 q 86 881 92 888 q 94 863 88 878 q 107 842 101 847 l 108 842 q 126 847 118 842 q 143 859 135 853 q 160 871 151 865 q 179 876 168 876 q 194 871 189 876 q 208 858 200 865 l 208 854 l 132 804 l 132 803 q 135 795 132 801 q 141 783 138 789 q 149 771 144 776 q 156 765 153 765 l 158 765 q 211 796 188 776 q 264 825 235 815 l 265 825 q 285 819 274 825 q 297 804 297 813 q 279 784 297 796 q 240 760 261 772 q 201 738 219 749 q 183 719 183 726 q 189 702 183 715 q 200 686 194 689 q 205 688 200 686 q 213 690 210 689 q 240 706 225 696 q 270 727 256 717 q 299 746 285 738 q 325 754 314 754 q 333 747 332 754 q 333 736 333 740 l 335 736 l 335 574 q 304 581 321 574 q 269 598 288 588 q 235 618 251 608 q 208 635 219 628 l 204 635 q 196 631 199 635 q 187 613 193 626 q 179 597 181 600 q 209 573 188 586 q 253 549 231 560 q 292 528 275 538 q 310 514 310 518 q 299 502 310 506 q 282 499 289 499 q 275 499 279 499 q 272 500 272 499 l 171 554 q 164 557 168 556 q 158 558 160 558 q 153 552 158 558 q 144 538 149 546 q 135 522 139 529 q 132 513 132 514 q 137 509 132 513 q 144 504 142 506 q 160 496 149 501 q 185 483 172 490 q 207 470 197 476 q 217 460 217 464 l 217 457 q 204 446 213 451 q 189 440 196 440 l 188 440 l 119 474 q 117 475 119 475 q 113 475 114 475 q 104 469 108 475 q 97 457 100 464 q 92 443 94 450 q 90 433 90 436 l 90 432 q 110 419 96 424 q 124 404 124 414 q 113 391 124 399 q 99 385 101 383 l 69 399 q 60 386 67 399 q 45 358 53 374 q 31 327 38 342 q 25 310 25 313 l 99 310 q 110 315 107 310 q 117 326 114 319 q 128 337 121 332 q 154 342 136 342 q 153 340 154 340 q 153 339 153 339 q 156 323 154 332 q 158 314 157 314 l 203 314 l 203 376 q 217 391 203 383 q 236 399 231 399 q 246 385 244 399 q 247 356 247 372 q 246 326 246 340 q 251 314 246 314 l 297 314 l 297 424 q 306 446 297 438 q 329 454 315 454 q 333 453 331 454 q 335 453 335 453 q 339 422 338 444 q 342 376 340 400 q 344 333 343 351 q 349 314 346 314 l 389 314 l 389 465 l 403 465 l 551 385 q 553 383 551 385 q 556 381 556 382 l 556 379 l 556 376 l 543 364 l 446 306 q 438 299 443 303 q 432 292 433 294 q 435 285 432 290 q 444 274 439 279 q 453 263 449 268 q 458 258 457 258 q 469 261 465 258 q 479 267 472 264 q 498 278 485 269 q 526 294 511 286 q 553 311 540 303 q 572 322 567 319 q 578 325 574 324 q 585 326 583 326 q 589 322 589 326 l 589 288 l 585 283 q 536 251 565 264 q 483 221 507 239 l 479 217 q 481 213 479 215 q 483 207 482 210 q 487 199 483 206 q 497 185 490 193 q 507 178 503 178 l 508 178 q 546 197 526 185 q 581 217 565 210 l 585 217 q 592 210 592 217 q 593 199 593 204 q 583 177 593 185 q 561 164 574 169 q 539 153 549 158 q 529 138 529 147 q 532 128 529 135 q 538 115 535 122 q 546 103 542 108 q 553 97 550 97 q 570 104 563 97 q 589 111 578 111 q 592 110 590 111 q 593 110 593 110 q 596 95 594 107 q 597 81 597 83 q 594 71 597 74 q 588 66 592 68 q 582 61 585 64 q 579 53 579 58 l 581 47 m 513 472 l 513 474 q 522 481 515 476 q 531 486 528 485 q 551 499 539 492 q 576 513 564 506 q 597 524 588 519 q 606 529 606 529 l 614 529 l 711 474 q 713 472 713 474 q 713 471 713 471 q 699 457 713 467 q 667 437 685 447 q 635 419 650 426 q 618 411 619 411 q 610 413 615 411 q 601 415 604 414 l 521 461 l 513 469 l 513 472 m 386 603 l 386 647 q 390 651 386 651 l 393 651 l 394 651 l 492 597 q 494 585 493 596 q 496 567 496 574 q 497 550 496 563 q 497 524 497 538 q 497 497 497 510 q 497 481 497 485 q 475 488 492 481 q 440 505 458 496 q 407 524 422 514 q 390 538 392 533 q 385 570 385 553 q 386 603 386 588 m 831 660 q 837 651 835 657 q 839 643 839 646 l 839 543 l 742 482 l 736 482 q 729 483 733 482 q 725 486 725 483 l 725 601 q 730 605 725 601 q 741 612 735 608 q 753 619 747 615 q 758 622 758 622 q 773 629 763 624 q 794 641 783 635 q 816 652 806 647 q 831 660 826 657 m 496 663 l 496 664 l 549 699 l 549 764 q 581 752 568 764 q 613 740 594 740 q 635 749 625 740 q 657 758 646 758 q 664 757 660 758 q 668 753 668 756 l 668 707 q 675 702 668 707 q 686 694 682 697 q 696 689 689 692 q 710 682 703 686 q 722 674 717 678 q 725 664 726 669 q 721 661 724 664 q 717 656 718 658 q 697 643 714 653 q 678 631 681 633 q 672 625 675 628 q 668 622 668 622 l 668 567 l 657 567 l 614 589 l 608 589 q 585 578 594 589 q 560 567 575 567 q 553 567 557 567 q 549 571 549 568 l 549 622 q 545 625 549 622 q 539 631 542 628 q 519 643 536 633 q 500 656 503 653 q 498 658 500 657 q 496 660 496 660 l 496 663 m 386 668 q 385 688 386 674 q 384 717 385 701 q 383 747 383 733 q 382 765 382 760 l 382 771 l 382 775 q 384 784 382 778 q 386 792 386 790 q 402 803 388 794 q 433 822 417 813 q 465 840 450 832 q 485 847 481 847 q 486 847 485 847 q 488 846 488 847 l 492 829 l 492 724 q 485 719 492 724 q 475 711 479 714 q 459 701 472 708 q 442 690 446 693 q 418 674 432 683 q 393 664 404 664 l 390 664 l 386 668 m 733 847 q 753 842 744 847 q 771 829 761 836 q 805 811 792 818 q 825 796 818 804 q 834 774 832 788 q 835 736 836 761 l 839 732 q 838 718 838 728 q 837 700 838 710 q 834 683 836 690 q 826 676 832 676 q 822 678 822 676 q 808 685 818 679 q 786 697 797 690 q 765 708 775 703 q 750 715 754 713 q 739 722 747 718 q 729 728 731 726 q 724 733 726 729 q 721 736 721 736 l 721 842 q 725 847 721 847 q 733 847 731 847 m 601 918 l 606 918 q 631 906 613 915 q 657 893 650 896 q 669 887 661 890 q 686 878 678 883 q 701 868 694 874 q 708 857 708 863 q 708 856 708 857 q 707 854 708 856 l 703 850 q 687 840 699 847 q 661 825 675 833 q 635 810 647 817 q 618 800 624 803 q 606 796 613 796 l 601 796 q 586 803 597 797 q 562 817 575 810 q 537 829 549 824 q 521 838 525 835 q 508 845 517 840 q 500 850 500 850 l 500 858 q 508 864 500 858 q 526 876 515 869 q 549 890 538 882 q 568 901 560 897 q 584 912 575 906 q 601 918 593 918 m 564 1088 q 567 1083 567 1088 q 564 1079 567 1079 q 561 1083 561 1079 q 564 1088 561 1088 z "},"H":{"ha":1244,"x_min":14,"x_max":1229,"o":"m 596 56 l 599 56 q 602 53 600 54 q 604 51 604 51 l 604 4 l 657 4 q 662 13 661 4 q 662 31 663 21 q 662 51 661 42 q 669 60 663 60 q 686 55 679 60 q 701 50 693 50 q 724 58 713 50 q 742 72 735 65 l 743 74 q 731 88 743 82 q 702 101 718 94 q 674 119 686 108 q 661 146 661 129 q 663 159 661 153 q 672 165 664 165 l 679 165 q 689 160 682 164 q 704 153 696 157 q 719 145 713 149 q 729 140 726 142 q 737 135 731 139 q 751 127 743 132 q 765 119 758 122 q 772 114 771 115 q 784 108 781 110 q 796 106 788 106 l 801 106 l 835 126 q 836 128 836 126 q 836 129 836 129 q 836 129 836 129 q 835 131 836 131 q 830 135 835 132 q 822 140 825 138 q 808 148 819 142 q 785 162 797 154 q 760 176 772 169 q 742 186 747 183 q 698 208 722 197 q 661 238 674 219 q 660 283 661 250 q 659 351 660 315 q 658 420 658 388 q 657 465 657 453 l 657 503 q 658 533 657 521 q 661 563 658 546 q 676 547 668 558 q 691 524 683 536 q 704 499 699 511 q 713 478 710 486 q 708 462 711 472 q 700 440 704 451 q 693 419 696 428 q 692 407 690 410 l 717 360 q 720 358 717 360 q 725 356 724 357 l 728 356 q 735 364 732 356 q 740 381 738 372 q 744 399 742 390 q 753 407 747 407 q 770 391 764 407 q 776 368 776 375 q 767 335 776 351 q 758 303 758 319 q 768 272 758 288 q 789 246 778 257 q 803 271 801 251 q 818 300 806 290 q 833 284 825 294 q 844 267 840 274 l 857 267 l 890 288 l 890 290 l 890 292 q 882 309 889 294 q 874 326 875 324 l 874 331 q 879 339 874 339 q 899 337 890 339 q 919 335 908 335 l 933 335 q 920 363 929 350 q 903 389 911 375 q 872 393 888 392 q 844 399 857 394 q 824 412 832 403 q 817 440 817 421 l 869 440 l 869 444 q 861 463 869 447 q 849 488 853 479 q 842 494 847 489 q 835 500 838 499 q 788 507 811 504 q 750 533 764 510 q 740 550 746 540 q 730 569 735 560 q 721 586 725 579 q 717 593 717 593 l 717 608 l 983 461 q 1004 435 1004 450 q 1004 399 1004 419 q 1005 365 1004 389 q 1006 313 1006 340 q 1008 263 1007 286 q 1008 229 1008 239 q 1010 228 1010 229 q 1011 228 1011 228 q 1034 235 1019 228 q 1056 254 1049 243 l 1056 376 q 1057 392 1056 381 q 1060 407 1058 403 l 1068 407 q 1090 401 1075 407 q 1104 385 1104 396 l 1104 283 q 1116 287 1107 283 q 1135 294 1125 290 q 1152 303 1144 299 q 1160 310 1160 307 l 1160 347 q 1165 351 1160 350 q 1172 351 1169 351 q 1191 343 1183 351 q 1210 335 1199 335 l 1213 335 q 1223 351 1217 342 q 1229 371 1229 361 q 1224 383 1229 379 q 1212 389 1218 386 q 1199 395 1206 392 q 1192 407 1193 399 q 1196 416 1190 413 q 1209 423 1201 419 q 1223 430 1217 426 q 1229 440 1229 433 l 1229 492 q 1203 483 1215 492 q 1179 466 1192 475 q 1155 449 1167 457 q 1129 440 1143 440 q 1110 446 1122 440 q 1097 463 1097 451 l 1097 465 l 1225 542 l 1225 597 l 1221 597 q 1205 588 1217 594 q 1181 574 1193 581 q 1156 560 1168 567 q 1140 550 1144 553 q 1119 537 1133 546 q 1089 519 1106 528 q 1058 502 1072 510 q 1035 494 1043 494 q 1022 496 1025 494 q 1008 504 1019 497 q 979 521 1003 507 q 928 550 956 535 q 878 579 901 565 q 849 597 854 593 q 831 606 846 599 q 814 614 817 613 q 792 626 806 618 q 767 642 779 635 q 747 655 756 649 q 738 661 738 661 l 738 665 l 849 665 l 894 618 l 960 618 q 946 640 960 632 q 932 661 932 647 q 932 663 932 661 q 933 665 932 664 q 953 667 938 665 q 975 669 969 669 q 984 667 978 669 q 992 665 990 665 l 1039 618 q 1053 615 1042 615 q 1071 614 1064 614 q 1083 615 1078 614 q 1097 618 1089 615 q 1090 631 1096 621 q 1081 643 1083 640 q 1074 652 1079 646 q 1068 661 1069 658 l 1068 663 l 1068 665 q 1081 667 1071 665 q 1093 669 1090 668 q 1099 671 1096 669 q 1101 674 1101 672 l 1101 719 q 1087 721 1099 719 q 1072 724 1075 722 q 1069 726 1071 724 q 1068 728 1068 728 q 1089 752 1079 738 q 1107 779 1099 767 l 1035 779 q 1031 776 1035 779 q 1026 771 1028 774 q 1020 764 1025 769 q 1009 751 1015 758 q 998 739 1003 744 q 992 732 993 733 l 983 724 l 942 724 q 938 728 938 724 q 939 734 938 729 q 942 740 940 739 q 946 746 942 742 q 958 764 950 753 q 967 775 967 775 l 967 779 l 903 779 q 888 770 896 779 q 873 751 881 761 q 859 732 865 740 q 849 724 853 724 l 750 724 l 750 728 q 757 733 750 728 q 768 740 764 738 q 889 817 822 781 q 1008 885 956 853 q 1022 893 1019 892 q 1035 894 1025 894 q 1063 885 1043 894 q 1106 862 1083 875 q 1147 837 1128 849 q 1174 821 1167 825 q 1194 808 1185 815 q 1217 800 1204 800 l 1217 851 q 1207 858 1217 851 q 1192 868 1197 865 q 1179 875 1189 869 q 1158 887 1169 881 q 1136 899 1146 893 q 1124 906 1126 904 q 1108 915 1118 908 q 1097 928 1097 921 q 1107 941 1097 938 q 1124 944 1117 944 q 1149 938 1138 944 q 1171 923 1160 931 q 1193 908 1182 915 q 1217 901 1204 901 l 1217 957 q 1211 963 1217 961 q 1199 968 1206 965 q 1189 974 1193 971 q 1186 982 1185 978 q 1206 1001 1190 992 q 1229 1017 1222 1010 l 1229 1018 l 1229 1021 q 1221 1037 1226 1024 q 1213 1054 1215 1050 q 1204 1058 1210 1058 q 1182 1050 1192 1058 q 1160 1042 1172 1042 q 1153 1051 1157 1042 q 1142 1072 1149 1060 q 1126 1092 1136 1083 q 1100 1101 1115 1101 l 1097 1101 q 1096 1090 1097 1099 q 1093 1079 1094 1082 l 1093 1008 q 1079 990 1090 997 q 1057 982 1068 982 l 1056 982 q 1051 985 1054 983 q 1049 986 1049 986 l 1049 1131 q 1042 1139 1049 1135 q 1026 1147 1035 1143 q 1008 1154 1017 1151 q 994 1157 999 1157 l 994 944 q 990 940 994 943 q 983 936 986 938 q 883 875 933 904 q 781 817 832 846 q 748 796 763 807 q 714 785 733 785 q 716 793 714 790 q 721 800 718 796 q 732 824 726 811 q 744 849 738 838 q 761 869 751 861 q 785 881 771 878 q 810 885 790 882 q 835 889 829 888 q 857 916 850 899 q 869 949 864 933 l 811 949 q 817 972 811 963 q 835 990 824 982 q 861 994 842 992 q 886 999 881 997 q 917 1021 908 1003 q 933 1058 926 1039 l 869 1058 l 869 1063 q 877 1080 871 1067 q 886 1097 883 1093 q 866 1114 879 1106 q 840 1122 853 1122 l 835 1122 l 810 1083 l 808 1083 l 806 1083 q 803 1086 806 1085 q 801 1088 801 1088 q 797 1097 800 1089 q 789 1113 793 1104 q 781 1129 785 1122 q 776 1139 778 1136 l 772 1143 q 768 1139 768 1143 q 755 1118 765 1135 q 742 1097 744 1101 l 742 1088 q 755 1052 742 1068 q 768 1017 768 1036 q 761 995 768 1006 q 746 978 754 985 q 735 990 739 982 q 728 1006 731 997 q 722 1022 725 1014 q 713 1038 718 1031 q 695 1015 704 1031 q 683 994 686 999 l 682 989 q 695 953 682 971 q 708 915 708 935 l 708 910 q 706 903 708 908 q 704 897 704 899 q 696 883 701 893 q 683 861 690 872 q 670 840 676 850 q 661 825 664 829 l 660 825 l 657 825 q 653 829 657 829 q 652 878 653 843 q 651 951 651 913 q 649 1023 650 989 q 649 1071 649 1057 l 649 1113 l 649 1139 l 653 1147 q 665 1155 653 1147 q 692 1172 676 1163 q 723 1190 707 1181 q 750 1207 739 1200 q 757 1210 751 1207 q 768 1215 763 1213 q 778 1221 774 1218 q 785 1224 783 1224 q 808 1238 790 1226 q 831 1253 825 1250 q 831 1255 831 1254 q 832 1256 832 1256 q 813 1275 832 1267 q 786 1283 794 1283 l 781 1283 q 767 1276 776 1281 q 749 1266 758 1271 q 730 1256 739 1261 q 717 1249 721 1250 q 689 1231 703 1242 q 660 1219 675 1219 q 653 1220 657 1219 q 649 1225 649 1221 l 649 1228 q 651 1240 650 1232 q 653 1249 653 1249 q 669 1263 657 1254 q 697 1282 682 1272 q 725 1299 711 1292 q 746 1308 739 1306 q 725 1325 739 1317 q 700 1333 711 1333 l 696 1333 q 675 1324 685 1331 q 656 1317 665 1317 l 653 1317 q 649 1328 650 1325 q 649 1332 649 1331 q 649 1336 649 1335 q 649 1346 649 1339 q 647 1367 649 1354 q 644 1381 644 1381 l 594 1381 q 590 1371 590 1381 q 590 1350 590 1363 q 588 1330 590 1339 q 578 1321 586 1321 q 565 1325 571 1321 q 551 1329 558 1329 q 524 1319 539 1329 q 501 1300 508 1310 q 522 1284 507 1292 q 552 1269 538 1276 q 578 1253 567 1261 q 590 1236 590 1246 q 588 1224 590 1229 q 578 1218 586 1218 q 572 1219 575 1218 q 568 1219 569 1219 l 456 1278 l 404 1247 l 590 1144 l 590 822 q 569 838 578 822 q 556 864 561 853 l 535 906 q 547 938 540 919 q 553 974 553 957 q 550 986 553 978 q 543 1003 547 994 q 534 1018 539 1011 q 524 1025 529 1025 q 515 1017 517 1025 q 510 1001 513 1010 q 506 985 508 993 q 497 978 503 978 q 486 984 492 978 q 476 998 481 990 q 469 1013 472 1006 q 467 1025 467 1021 q 476 1056 467 1042 q 485 1089 485 1071 q 475 1119 485 1103 q 454 1143 465 1135 q 446 1132 450 1140 q 439 1115 442 1124 q 433 1099 436 1106 q 426 1092 429 1092 l 425 1092 q 414 1106 419 1094 q 403 1118 408 1118 q 398 1117 403 1118 q 390 1114 393 1115 q 374 1106 388 1111 q 357 1097 361 1100 l 357 1090 q 363 1072 357 1079 q 369 1054 369 1065 q 365 1050 369 1050 l 353 1050 q 330 1053 342 1050 q 306 1056 318 1056 l 306 1050 l 329 1008 l 403 994 q 424 976 417 992 q 432 949 432 960 l 368 949 q 381 913 368 929 q 413 893 393 897 q 442 888 425 890 q 475 881 460 885 q 492 853 479 874 q 510 825 506 832 q 523 803 517 814 q 529 779 529 792 l 522 779 l 239 940 q 238 957 239 940 q 237 997 238 974 q 235 1046 236 1021 q 235 1088 235 1071 l 235 1092 q 232 1118 233 1099 q 229 1143 231 1138 q 225 1147 229 1147 l 224 1147 l 221 1147 q 206 1139 218 1144 q 192 1131 194 1133 q 186 1126 189 1129 q 183 1122 183 1122 l 183 986 q 181 982 183 985 q 175 978 178 979 q 162 981 171 976 q 150 990 153 986 q 147 1016 149 997 q 146 1042 146 1035 q 145 1052 144 1043 q 146 1063 146 1061 q 143 1083 144 1069 q 140 1097 142 1097 l 132 1097 l 94 1075 q 93 1062 94 1075 q 90 1042 92 1049 q 88 1033 89 1038 q 82 1028 88 1028 q 79 1028 81 1028 q 78 1029 78 1029 l 35 1050 q 28 1046 32 1051 q 22 1033 25 1040 q 16 1020 18 1026 q 14 1013 14 1014 l 14 1008 q 31 997 18 1006 q 47 986 44 989 q 57 974 57 981 q 52 965 57 969 q 41 956 47 960 q 29 949 35 951 q 22 944 24 946 l 18 940 l 18 893 l 22 889 l 25 889 q 51 897 39 889 q 75 915 63 906 q 100 932 88 924 q 126 940 113 940 q 141 935 132 940 q 150 924 150 929 q 129 901 150 913 q 84 878 108 890 q 39 852 60 865 q 18 826 18 839 q 19 807 18 815 q 22 788 19 799 l 25 788 l 26 788 q 60 805 46 796 q 94 825 75 814 q 117 840 101 829 q 149 862 132 851 q 183 881 167 872 q 211 889 200 889 q 222 888 219 889 q 235 881 224 886 q 298 844 267 863 q 361 808 329 826 q 369 804 365 808 q 392 792 374 801 q 429 770 410 782 q 466 749 449 758 q 488 736 483 739 q 497 732 493 736 q 501 728 503 729 q 500 724 500 728 l 390 724 q 382 728 386 724 q 374 739 381 731 q 365 750 367 747 l 340 775 l 293 775 q 285 771 289 775 l 285 768 q 290 756 285 761 q 299 747 294 751 q 309 736 304 742 q 314 724 314 731 q 310 719 314 719 l 260 719 q 251 724 256 719 q 245 731 250 725 q 234 743 240 736 q 223 756 228 750 q 217 763 218 761 q 212 768 215 765 q 208 771 208 771 l 150 771 l 150 767 q 163 749 153 763 q 175 732 172 736 q 179 724 179 728 q 178 722 179 724 q 175 719 176 719 q 160 717 172 718 q 146 715 149 715 q 142 703 144 713 q 140 690 140 693 q 142 678 140 688 q 146 665 144 668 q 166 663 153 664 q 179 651 179 663 l 179 647 l 154 618 l 217 618 q 224 623 218 618 q 235 631 231 628 q 246 648 239 635 q 260 661 253 661 l 310 661 q 310 656 310 656 q 296 638 307 646 q 285 621 285 631 l 285 618 q 306 614 296 614 q 328 614 317 614 q 357 622 346 614 q 376 640 368 631 q 389 657 383 649 q 403 665 394 665 l 507 665 q 503 652 507 654 q 488 643 499 650 q 355 565 421 603 q 221 488 289 526 l 208 488 q 192 495 208 488 q 167 508 175 503 q 136 525 157 513 q 93 551 115 538 q 52 574 71 564 q 29 585 33 585 q 22 576 22 585 q 22 565 22 568 q 23 546 22 560 q 26 529 24 532 l 119 478 q 138 467 125 469 q 150 453 150 465 q 140 439 150 446 q 124 432 131 432 l 119 432 q 109 436 117 433 q 99 440 101 439 q 85 447 94 442 q 65 459 75 453 q 44 470 54 465 q 31 478 35 475 l 29 479 q 22 474 22 479 q 22 467 22 469 q 28 432 22 443 q 42 416 35 421 q 55 409 49 411 q 61 399 61 407 l 61 393 q 41 381 56 390 q 22 368 26 371 q 19 366 21 368 q 18 364 18 364 l 22 356 q 25 349 22 354 q 31 337 28 343 q 39 326 35 331 q 49 321 43 321 l 51 322 l 94 343 q 99 335 99 339 q 101 313 100 329 q 103 292 103 297 q 151 267 125 278 l 151 376 q 165 388 151 382 q 185 394 179 394 q 187 394 186 394 q 188 393 188 393 q 192 375 192 378 q 192 360 192 374 q 192 336 192 353 q 194 301 193 319 q 195 265 194 282 q 196 242 196 249 q 216 224 203 231 q 240 218 229 218 l 240 428 q 244 431 240 428 q 251 436 249 435 q 369 508 310 472 q 488 576 428 544 q 506 585 493 579 q 522 593 519 590 q 523 592 522 593 q 525 592 524 592 q 521 572 525 583 q 510 549 517 561 q 495 528 503 538 q 479 513 488 518 q 460 508 475 511 q 442 504 446 506 q 437 502 440 504 q 433 500 433 500 q 406 493 417 497 q 388 483 394 489 q 376 465 381 476 q 365 436 371 454 l 369 436 q 398 438 385 436 q 426 440 411 440 l 442 440 q 432 419 439 433 q 417 399 425 404 q 392 389 406 392 q 364 384 378 386 q 338 377 350 382 q 319 360 325 372 q 310 341 317 356 q 301 322 304 326 l 304 322 q 338 324 321 322 q 374 325 356 325 l 374 322 q 367 309 372 319 q 361 296 363 299 l 361 294 l 361 292 q 386 276 371 286 q 413 267 401 267 l 417 267 q 428 282 421 274 q 442 296 435 290 q 456 272 454 289 q 471 246 458 256 q 490 266 482 253 q 497 293 497 279 q 488 327 497 311 q 479 363 479 343 q 485 389 479 375 q 506 403 490 403 l 510 403 q 531 347 518 375 q 533 349 531 347 q 535 351 535 350 q 553 380 542 363 q 564 399 564 397 l 564 403 l 543 465 l 543 474 q 548 496 543 483 q 560 521 553 508 q 575 544 568 533 q 586 563 582 556 l 588 564 l 590 563 l 594 558 q 599 458 599 510 q 599 358 599 407 l 599 238 q 560 208 583 218 q 518 186 538 197 q 490 169 507 179 q 458 151 474 160 q 432 134 443 142 q 421 126 421 126 l 417 122 q 438 105 422 113 q 461 97 453 97 l 463 97 q 498 115 482 104 q 531 136 514 125 q 540 142 533 138 q 556 151 547 146 q 572 160 564 156 q 582 165 579 164 l 599 165 l 599 131 q 591 123 599 128 q 573 113 583 118 q 553 103 563 107 q 543 97 544 99 q 526 87 539 94 q 510 76 513 79 l 510 74 q 516 65 510 69 q 531 55 522 60 q 549 47 540 50 q 564 42 558 43 q 578 49 567 44 q 594 56 590 53 l 596 56 m 328 699 q 331 694 331 699 q 328 690 331 690 q 325 694 325 690 q 328 699 325 699 m 946 779 q 949 775 949 779 q 946 771 949 771 q 943 775 943 771 q 946 779 943 779 m 806 788 q 808 783 808 788 q 806 779 808 779 q 803 783 803 779 q 806 788 803 788 m 413 1013 q 415 1007 415 1013 q 413 1003 415 1003 q 410 1007 410 1003 q 413 1013 410 1013 z "},"I":{"ha":1282,"x_min":14,"x_max":1267,"o":"m 628 -25 q 646 -28 639 -28 q 664 -29 653 -29 q 672 -30 665 -29 q 678 -25 678 -31 l 678 101 l 683 132 l 806 68 l 806 135 l 692 200 q 677 215 681 206 q 674 236 674 225 q 676 249 674 240 q 685 258 678 258 l 686 258 q 744 228 715 244 q 801 200 772 213 l 801 258 q 797 262 801 258 q 789 267 792 265 q 771 276 785 268 q 742 292 757 283 q 713 308 726 301 q 696 318 699 315 q 684 325 694 318 q 674 335 674 332 l 674 444 l 686 444 l 793 390 q 799 388 794 389 q 806 386 804 386 q 810 390 810 386 l 810 525 q 814 529 810 529 l 815 529 l 818 529 l 911 479 l 919 471 q 922 455 921 469 q 924 432 924 440 l 924 394 q 926 381 924 392 q 928 368 928 371 q 931 335 929 347 q 937 315 932 324 q 952 301 942 307 q 983 289 963 296 q 986 288 983 288 q 989 288 989 288 l 989 431 q 1033 407 1017 431 q 1038 333 1040 371 q 1042 258 1036 296 q 1042 254 1046 258 q 1069 238 1050 250 q 1097 225 1089 225 l 1101 225 q 1104 242 1103 228 q 1106 258 1106 256 q 1106 279 1106 264 q 1106 314 1106 296 q 1105 347 1106 332 q 1104 368 1104 363 l 1114 368 l 1233 306 l 1235 306 l 1238 306 l 1242 310 q 1254 335 1244 315 q 1267 360 1264 354 q 1253 367 1260 363 q 1242 378 1246 371 q 1191 401 1210 392 q 1149 428 1172 410 l 1144 432 q 1144 433 1144 432 q 1143 435 1143 433 q 1158 447 1143 439 q 1192 466 1174 456 q 1228 487 1211 476 q 1250 504 1246 497 q 1225 522 1244 511 q 1194 533 1206 533 q 1184 531 1188 533 q 1174 525 1181 529 q 1155 515 1168 522 q 1127 498 1142 507 q 1099 481 1113 489 q 1081 471 1086 474 q 1078 470 1079 471 q 1076 469 1076 469 q 1063 472 1071 469 q 1046 479 1054 475 q 1031 488 1038 483 q 1025 497 1025 493 l 1025 500 q 1028 502 1026 500 q 1029 504 1029 504 l 1131 568 l 1131 572 q 1117 581 1131 572 q 1097 593 1104 589 q 1092 596 1096 594 q 1085 597 1088 597 l 1081 597 q 1051 588 1067 597 q 1019 565 1035 578 q 988 543 1003 553 q 958 533 972 533 l 953 533 q 942 539 950 535 q 924 548 933 543 q 906 557 914 553 q 894 564 897 561 q 885 567 892 564 q 871 575 878 571 q 858 583 864 579 q 851 590 851 588 q 867 608 851 597 q 904 630 883 618 q 944 652 925 642 q 967 669 963 663 q 944 686 961 678 q 909 704 928 694 q 872 724 890 714 q 847 746 854 735 q 883 774 860 763 q 924 796 906 786 q 939 803 929 799 q 949 808 949 808 q 960 803 950 808 q 975 796 969 799 q 1004 778 990 788 q 1033 763 1018 769 q 1055 752 1039 760 q 1076 742 1071 744 q 1078 741 1076 742 q 1081 740 1079 740 q 1094 744 1085 740 q 1111 752 1103 747 q 1126 763 1119 757 q 1132 772 1132 768 q 1131 774 1132 774 q 1131 775 1131 775 q 1108 788 1125 778 q 1085 800 1090 797 q 1072 808 1082 801 q 1049 821 1061 814 q 1026 835 1036 828 q 1017 844 1017 842 q 1022 855 1017 850 q 1036 864 1028 860 q 1052 870 1044 868 q 1064 872 1060 872 q 1107 856 1085 872 q 1149 831 1129 840 q 1169 819 1153 828 q 1190 808 1185 811 l 1197 808 q 1225 818 1208 808 q 1250 839 1242 828 q 1243 843 1247 840 q 1238 847 1239 846 q 1218 858 1232 850 q 1188 875 1204 867 q 1159 891 1172 883 q 1140 901 1146 899 q 1135 906 1138 903 q 1131 910 1132 908 l 1131 913 q 1149 929 1131 918 q 1190 951 1168 940 q 1231 973 1213 963 q 1250 989 1250 983 q 1247 997 1250 989 q 1240 1013 1244 1004 q 1230 1030 1235 1022 q 1221 1038 1225 1038 q 1194 1030 1210 1038 q 1163 1012 1179 1022 q 1131 990 1147 1001 q 1101 974 1114 979 q 1092 984 1092 976 q 1093 999 1093 992 q 1092 1020 1093 1004 q 1091 1054 1092 1036 q 1090 1088 1090 1072 q 1089 1110 1089 1103 q 1058 1096 1074 1103 q 1033 1075 1042 1089 q 1033 1051 1033 1068 q 1031 1014 1032 1033 q 1030 977 1031 994 q 1029 953 1029 960 q 1018 923 1029 936 q 988 910 1007 910 q 980 916 981 910 q 979 928 979 922 q 978 950 979 933 q 977 985 978 967 q 976 1019 976 1003 q 975 1042 975 1035 q 961 1036 971 1040 q 942 1027 951 1032 q 926 1017 933 1022 q 918 1008 918 1011 l 918 868 q 914 865 918 868 q 907 860 910 863 q 887 845 900 854 q 859 827 874 836 q 831 811 844 818 q 807 804 817 804 l 806 804 q 805 817 806 808 q 803 835 804 825 q 802 853 803 844 q 801 864 801 861 l 801 919 q 799 935 800 925 q 797 944 797 944 l 793 944 q 738 913 765 928 q 682 881 710 897 q 680 880 682 881 q 676 879 678 879 q 665 893 665 879 l 665 999 q 685 1016 665 1004 q 729 1041 706 1028 q 773 1065 753 1054 q 793 1079 793 1075 l 793 1142 l 682 1079 q 676 1076 681 1078 q 669 1075 671 1075 q 665 1079 665 1075 l 665 1131 q 685 1147 665 1135 q 729 1171 706 1158 q 773 1195 753 1183 q 793 1211 793 1207 l 793 1268 q 774 1262 785 1268 q 758 1253 764 1256 q 743 1244 754 1250 q 719 1230 732 1238 q 694 1216 706 1222 q 678 1207 682 1210 q 676 1206 678 1207 q 672 1206 674 1206 q 661 1213 661 1206 q 661 1228 661 1221 q 660 1262 661 1242 q 659 1301 660 1282 q 658 1333 658 1319 q 657 1346 657 1346 l 653 1350 l 604 1350 l 604 1194 l 488 1257 l 475 1257 l 475 1199 q 492 1186 475 1196 q 532 1165 510 1176 q 575 1143 554 1154 q 603 1126 596 1132 q 607 1113 607 1122 q 607 1099 607 1103 q 607 1081 607 1092 q 596 1071 607 1071 l 589 1071 l 475 1133 l 475 1069 l 607 997 l 607 876 l 599 876 l 469 943 l 469 808 q 467 807 469 808 q 463 804 464 806 l 460 804 l 458 804 q 407 831 431 818 q 357 860 383 843 q 353 864 353 860 q 352 880 353 868 q 351 904 351 892 q 349 928 350 917 q 349 944 349 940 l 349 978 q 346 996 347 985 q 344 1008 344 1007 l 293 1033 l 285 1033 q 288 980 288 1004 q 289 928 289 956 q 290 913 289 924 q 281 901 290 901 l 276 901 q 251 914 267 906 q 236 924 236 922 l 236 1063 q 234 1065 236 1063 q 229 1067 232 1067 q 219 1072 226 1068 q 203 1079 211 1075 q 187 1087 194 1083 q 176 1092 179 1090 l 176 963 l 171 961 q 151 969 165 964 q 132 978 136 975 q 113 988 126 981 q 85 1003 100 994 q 58 1019 71 1011 q 39 1029 44 1026 q 23 1008 28 1022 q 14 982 18 993 q 40 963 19 974 q 83 940 60 951 q 124 919 106 929 q 142 904 142 910 q 126 883 142 893 q 89 862 110 872 q 49 841 68 851 q 22 821 29 831 l 31 813 q 52 802 36 810 q 74 792 68 794 l 75 792 q 107 803 89 792 q 144 828 125 814 q 179 853 163 842 q 208 864 196 864 q 235 856 222 864 q 260 839 249 847 q 231 822 251 833 q 190 797 211 810 q 152 774 168 785 q 136 760 136 764 q 142 751 136 756 q 157 742 149 746 q 173 735 165 738 q 185 732 181 732 l 188 732 q 209 743 193 735 q 229 754 225 751 q 251 767 238 758 q 277 785 264 776 q 302 799 290 793 q 322 806 314 806 q 347 796 329 806 q 385 774 365 786 q 419 751 404 761 q 433 739 433 740 l 433 738 l 326 674 q 317 667 324 668 q 310 658 310 665 l 310 657 l 314 653 q 335 640 319 649 q 367 622 350 632 q 399 604 385 613 q 421 593 414 596 q 428 588 424 592 q 433 585 432 585 l 433 582 q 418 568 433 578 q 385 548 403 558 q 350 529 367 538 q 332 521 333 521 l 326 521 q 306 531 322 524 q 285 542 290 539 q 244 568 267 551 q 203 585 222 585 q 175 575 189 585 q 154 556 161 565 q 158 550 154 554 q 211 521 185 535 q 264 492 238 507 q 266 489 264 490 q 268 488 268 488 l 268 485 l 268 483 q 266 481 268 482 q 264 479 264 479 q 244 465 257 474 q 229 457 231 457 l 217 457 q 203 465 215 458 q 173 481 190 471 q 144 496 156 490 q 122 510 138 500 q 97 521 106 521 q 66 512 82 521 q 43 492 50 503 q 50 488 46 490 q 56 483 54 485 q 76 471 61 479 q 107 453 90 463 q 138 435 124 443 q 158 424 153 426 l 158 422 q 138 403 158 415 q 92 376 117 390 q 47 350 68 363 q 26 331 26 338 q 35 303 26 319 q 56 288 44 288 q 61 289 60 288 q 88 306 72 294 q 119 327 103 317 q 150 345 135 338 q 176 353 165 353 q 180 352 178 353 q 183 351 182 351 q 184 329 183 344 q 185 297 185 314 q 187 263 186 279 q 188 242 188 247 q 187 228 188 240 q 193 217 186 217 q 206 221 197 217 q 224 231 215 225 q 240 242 233 236 q 247 250 247 247 l 247 394 q 265 410 247 400 q 292 419 282 419 l 297 419 q 301 351 301 385 q 306 283 301 318 q 319 288 311 285 q 336 297 328 292 q 351 306 344 301 q 357 314 357 311 l 357 453 q 360 460 357 456 q 365 467 363 464 l 450 517 q 461 521 458 522 q 474 519 464 519 l 474 382 q 505 399 486 388 q 543 421 524 410 q 580 440 563 432 q 608 449 597 449 l 611 449 l 615 432 l 615 331 l 488 254 l 488 193 l 603 254 l 615 254 l 615 200 q 602 189 615 193 q 585 178 589 185 q 570 169 581 175 q 547 158 560 164 q 524 145 535 151 q 510 136 514 139 q 498 129 508 136 q 488 119 488 122 l 488 60 l 611 128 l 613 128 q 622 113 619 128 q 624 93 624 99 q 624 69 624 86 q 626 34 625 53 q 627 -1 626 15 q 628 -25 628 -18 m 531 488 q 527 512 528 501 q 526 535 526 522 q 527 547 526 542 q 531 560 528 551 q 545 574 533 567 q 564 585 557 581 q 590 598 574 590 q 607 606 606 606 l 611 601 l 611 525 l 607 521 q 588 510 601 518 q 572 500 575 503 q 556 491 569 497 q 539 483 543 485 l 536 483 l 535 483 q 531 488 531 483 m 669 608 q 690 603 681 608 q 708 593 699 599 q 747 565 738 578 q 756 519 756 553 q 755 506 756 517 q 754 492 754 494 q 746 482 756 482 q 744 483 746 482 q 742 483 743 483 q 720 494 736 486 q 700 504 704 501 q 680 515 690 510 q 669 533 669 521 l 669 608 m 424 661 q 433 672 424 665 q 456 686 443 679 q 481 698 468 693 q 500 703 493 703 q 519 698 507 703 q 542 686 531 693 q 563 673 554 679 q 572 663 572 667 l 572 661 q 560 653 569 658 q 542 641 551 647 q 523 629 532 635 q 510 622 514 624 q 502 619 507 621 q 496 618 497 618 q 480 623 492 618 q 456 634 468 628 q 433 648 443 640 q 424 661 424 656 m 717 667 q 724 676 717 669 q 742 688 732 682 q 761 699 751 694 q 775 703 771 703 q 793 698 782 703 q 815 687 804 693 q 834 674 825 681 q 847 665 843 668 l 849 663 q 840 655 849 661 q 821 642 832 649 q 799 631 810 636 q 786 626 789 626 q 770 631 782 626 q 747 643 758 636 q 726 656 735 650 q 717 667 717 663 m 665 776 q 668 798 665 790 q 677 810 671 806 q 692 819 683 815 q 713 831 701 824 q 727 840 724 836 q 740 843 731 843 q 751 826 751 843 q 750 804 750 810 q 749 775 750 788 q 733 754 749 763 q 719 745 728 750 q 701 735 710 740 q 685 727 692 731 q 678 724 678 724 l 669 724 q 668 735 669 724 q 665 754 667 747 l 665 776 m 532 839 l 535 839 q 572 823 551 835 q 603 804 592 811 l 607 800 q 608 784 607 797 q 611 767 610 771 l 611 763 l 611 758 q 608 744 610 756 q 607 728 607 732 l 604 728 q 587 733 600 728 q 560 746 574 739 q 537 760 547 753 q 526 771 526 768 l 526 835 l 531 839 l 532 839 z "},"J":{"ha":1392,"x_min":14,"x_max":1376,"o":"m 657 60 q 664 59 660 60 q 668 56 668 58 l 668 4 q 672 1 668 3 q 678 0 675 0 l 699 0 l 713 0 l 722 8 l 722 56 q 729 60 722 60 q 760 47 742 60 q 788 29 779 35 q 804 22 794 26 q 814 17 814 17 l 818 21 l 818 64 q 803 78 818 69 q 772 97 789 88 q 740 115 754 107 q 725 126 725 122 l 725 168 q 731 169 726 168 q 738 169 736 169 q 745 166 739 169 q 754 161 751 163 q 783 144 760 157 q 833 116 806 131 q 883 88 860 101 q 911 72 906 75 q 919 67 913 71 q 928 64 926 64 q 940 54 935 60 q 953 49 944 49 l 953 101 q 951 103 953 101 q 949 106 950 106 q 945 108 949 107 q 940 110 942 110 q 915 124 935 113 q 873 150 896 136 q 830 176 850 164 q 806 190 810 188 q 791 197 800 193 q 774 205 782 200 q 760 215 765 210 q 754 228 754 221 q 765 242 754 236 q 787 254 775 249 q 809 266 799 260 q 819 279 819 272 l 819 457 q 824 460 819 460 q 831 461 828 461 q 867 448 844 461 q 913 419 889 435 q 958 390 936 403 q 992 376 979 376 q 1009 381 1001 376 q 1025 392 1017 386 q 1041 402 1033 397 q 1058 407 1049 407 q 1063 407 1060 407 q 1068 406 1067 407 q 1069 376 1068 399 q 1072 347 1071 354 l 1072 194 q 1086 160 1075 175 q 1121 146 1097 146 l 1121 401 l 1126 406 q 1135 403 1128 407 q 1147 397 1143 400 q 1169 375 1165 389 q 1174 343 1172 361 q 1174 328 1174 339 q 1176 307 1175 318 q 1177 285 1176 296 q 1178 271 1178 275 q 1197 253 1185 261 q 1222 244 1210 244 l 1222 335 q 1232 343 1222 343 q 1255 334 1244 343 q 1276 325 1265 325 q 1292 339 1285 325 q 1300 360 1300 353 q 1293 372 1300 368 q 1278 380 1286 376 q 1264 388 1271 383 q 1257 399 1257 392 q 1269 416 1257 408 q 1298 431 1282 424 q 1326 444 1314 438 q 1339 458 1339 450 q 1325 476 1339 469 q 1301 483 1311 483 q 1276 474 1292 483 q 1243 455 1260 465 q 1213 437 1226 444 q 1194 432 1199 429 l 1161 449 q 1158 451 1160 449 q 1157 457 1157 454 q 1156 460 1156 457 q 1178 478 1156 464 q 1228 507 1200 492 q 1282 536 1257 522 q 1313 554 1307 550 q 1325 562 1317 557 q 1342 572 1333 567 q 1358 582 1351 578 q 1368 588 1365 586 q 1370 590 1368 589 q 1372 593 1372 592 q 1353 609 1365 600 q 1331 618 1342 618 q 1310 612 1319 618 q 1292 601 1300 606 q 1217 555 1256 581 q 1139 517 1179 529 q 1130 517 1136 515 q 1121 519 1124 519 l 1121 588 q 1111 594 1121 588 q 1088 610 1101 601 q 1058 627 1074 618 q 1033 643 1043 636 q 1016 653 1029 646 q 989 667 1003 660 q 964 683 975 675 q 953 696 953 690 q 965 710 953 707 q 983 719 978 713 q 1045 753 1013 735 q 1106 792 1078 772 q 1115 799 1108 794 q 1121 804 1121 803 l 1121 865 q 1128 867 1122 865 q 1135 868 1133 868 q 1146 864 1138 867 q 1157 858 1154 861 q 1222 821 1190 840 q 1288 783 1254 801 q 1310 769 1299 776 q 1335 761 1322 761 q 1358 767 1346 761 q 1376 783 1371 772 q 1331 817 1367 796 q 1256 859 1294 838 q 1186 899 1217 881 q 1156 925 1156 917 q 1168 942 1156 936 q 1190 949 1181 949 q 1210 942 1201 949 q 1228 931 1218 936 q 1239 925 1231 929 q 1256 916 1247 921 q 1272 907 1264 911 q 1283 901 1281 903 q 1288 901 1285 901 q 1292 900 1290 900 q 1317 906 1303 900 q 1331 922 1331 911 q 1325 931 1331 926 q 1312 939 1319 935 q 1297 947 1304 943 q 1288 951 1290 950 q 1267 965 1281 957 q 1254 974 1254 972 l 1254 986 q 1278 1000 1265 992 q 1300 1019 1292 1008 l 1300 1022 q 1293 1042 1300 1031 q 1279 1058 1286 1053 l 1276 1058 l 1275 1058 q 1258 1049 1272 1057 q 1240 1040 1243 1042 l 1235 1040 q 1225 1047 1228 1040 q 1222 1063 1222 1054 q 1223 1078 1222 1071 q 1224 1088 1224 1086 q 1222 1115 1224 1094 q 1219 1143 1221 1136 q 1207 1136 1217 1140 q 1194 1129 1197 1132 q 1183 1122 1190 1126 q 1175 1117 1175 1118 l 1175 1011 q 1157 991 1175 1000 q 1131 982 1139 982 q 1125 982 1128 982 q 1122 986 1122 982 l 1122 1218 q 1121 1223 1122 1219 q 1118 1226 1119 1226 q 1117 1228 1118 1228 q 1117 1228 1117 1228 q 1114 1226 1114 1228 q 1094 1217 1107 1224 q 1081 1210 1081 1211 l 1074 1201 l 1074 986 q 1069 978 1074 979 q 1060 976 1064 976 q 1026 990 1040 976 q 993 1004 1011 1004 q 967 998 981 1004 q 941 983 954 992 q 916 966 928 975 q 894 951 904 957 q 880 944 889 949 q 862 934 871 939 q 846 926 853 929 q 839 922 839 922 l 824 922 l 824 1104 q 812 1111 821 1106 q 793 1123 803 1117 q 775 1135 783 1129 q 763 1143 767 1140 q 760 1144 763 1143 q 758 1147 758 1146 l 758 1149 l 758 1151 q 794 1180 774 1169 q 835 1201 815 1190 q 844 1207 836 1203 q 860 1216 851 1211 q 876 1226 869 1221 q 886 1232 883 1231 q 922 1249 900 1239 q 953 1274 944 1260 q 959 1288 960 1282 q 958 1304 958 1293 q 958 1313 958 1307 q 957 1319 958 1319 l 953 1325 q 868 1274 913 1299 q 783 1226 824 1250 q 763 1214 775 1222 q 740 1206 750 1206 q 733 1206 738 1206 q 729 1210 729 1206 l 729 1257 q 743 1270 729 1263 q 774 1286 757 1278 q 805 1302 790 1294 q 822 1315 819 1310 q 826 1331 825 1325 q 826 1346 826 1338 q 826 1357 826 1351 q 822 1367 826 1363 q 780 1341 803 1358 q 735 1324 757 1324 l 733 1325 q 729 1326 732 1325 q 726 1329 726 1328 l 726 1379 l 678 1379 q 676 1371 678 1379 q 674 1358 675 1363 q 672 1340 674 1354 q 669 1319 671 1325 q 668 1317 669 1319 q 665 1315 667 1315 q 660 1317 664 1315 q 653 1319 656 1319 q 638 1328 649 1322 q 615 1341 626 1335 q 592 1353 603 1347 q 576 1363 581 1360 l 572 1363 l 572 1311 q 585 1303 572 1311 q 607 1290 599 1296 q 623 1282 613 1288 q 644 1270 633 1276 q 662 1258 654 1264 q 669 1249 669 1253 l 669 1210 q 667 1206 669 1207 q 661 1206 664 1206 l 657 1206 q 595 1238 625 1219 q 535 1274 565 1256 q 522 1281 532 1275 q 499 1295 511 1288 q 476 1308 486 1303 q 463 1315 465 1314 q 447 1324 457 1318 q 438 1329 438 1329 l 433 1325 l 433 1279 l 636 1160 l 636 1147 q 626 1140 636 1146 q 611 1129 617 1133 q 590 1118 601 1124 q 572 1104 579 1113 q 567 1081 567 1097 q 568 1063 568 1065 q 567 1035 568 1054 q 566 992 567 1015 q 565 950 565 969 q 564 922 564 931 q 563 920 564 922 q 560 918 561 918 l 557 918 l 556 918 q 543 924 553 919 q 531 931 533 929 q 513 940 526 932 q 485 956 500 947 q 458 972 471 965 q 442 982 444 979 q 416 994 432 986 q 399 1003 400 1003 l 390 1003 q 363 988 381 997 q 329 978 344 978 q 321 978 326 978 q 317 982 317 978 l 317 1210 q 310 1215 317 1211 q 294 1224 303 1219 q 276 1231 285 1228 q 265 1233 268 1233 l 265 982 l 256 978 q 244 982 254 976 q 229 990 235 988 q 221 997 226 993 q 215 1003 215 1001 l 215 1113 q 209 1122 215 1117 q 194 1130 203 1126 q 179 1136 186 1133 q 171 1139 172 1139 q 167 1138 167 1139 q 166 1122 167 1133 q 165 1098 165 1111 q 163 1074 164 1085 q 163 1058 163 1063 q 160 1044 161 1047 q 151 1040 160 1040 l 144 1040 q 138 1043 143 1040 q 128 1049 133 1046 q 117 1056 122 1053 q 111 1058 113 1058 l 110 1058 l 107 1058 q 95 1042 104 1054 q 86 1019 86 1029 q 90 1011 86 1014 q 109 999 94 1008 q 128 986 124 989 l 128 982 q 128 978 128 979 q 124 974 128 976 l 47 926 l 47 925 q 63 908 47 914 q 86 901 78 901 l 94 901 q 109 910 99 904 q 132 923 119 917 q 156 935 144 929 q 171 943 167 940 q 190 949 181 949 q 215 940 200 949 q 231 921 231 932 q 230 917 231 919 q 229 914 229 915 q 201 898 221 910 q 158 874 181 886 q 115 849 135 861 q 86 833 94 838 q 47 813 68 824 q 14 788 25 803 q 33 769 21 776 q 56 761 44 761 q 89 774 65 761 q 140 803 113 786 q 194 835 168 819 q 233 858 219 851 q 247 865 239 861 q 256 868 254 868 l 265 858 l 265 796 q 290 776 265 790 q 345 744 315 761 q 400 712 375 728 q 425 689 425 696 q 401 668 425 681 q 349 641 378 656 q 294 614 319 626 q 268 593 269 601 q 265 572 265 586 q 264 547 265 560 q 260 525 263 535 q 249 515 257 515 q 245 516 247 515 q 243 517 243 517 q 192 546 218 532 q 140 575 167 560 q 117 588 132 581 q 90 603 103 596 q 66 617 76 611 q 56 622 56 622 l 51 622 q 38 614 51 622 q 18 601 25 606 l 14 597 l 14 594 l 14 593 q 61 563 26 582 q 133 522 96 543 q 198 483 169 501 q 226 458 226 465 q 221 451 226 454 q 208 444 215 447 q 194 440 201 442 q 185 439 188 439 q 159 447 171 439 q 135 463 147 454 q 111 480 124 472 q 85 488 99 488 q 62 482 74 488 q 43 465 50 476 q 63 449 49 457 q 92 434 78 442 q 117 419 106 426 q 128 404 128 413 q 122 393 128 397 q 109 385 117 389 q 94 378 101 382 q 82 368 86 374 l 82 367 q 89 344 82 356 q 107 333 96 333 q 127 340 118 333 q 147 347 136 347 l 149 347 q 151 345 150 347 q 154 343 153 343 q 156 299 157 324 q 163 254 156 274 l 164 254 q 193 265 175 254 q 211 288 211 275 l 211 381 q 228 399 211 390 q 251 407 244 407 q 256 406 256 407 l 260 381 l 260 174 q 263 161 260 169 q 268 149 265 153 q 278 154 271 150 q 289 161 286 158 q 294 163 290 161 q 297 165 297 164 q 306 173 300 168 q 313 178 313 178 l 313 401 q 317 406 313 404 q 324 407 321 407 q 325 407 324 407 q 326 406 326 407 l 374 381 l 390 381 q 402 387 390 381 q 431 402 414 393 q 464 420 447 411 q 492 436 481 429 q 522 454 506 443 q 554 465 538 465 l 556 465 q 560 463 557 465 q 563 461 563 461 l 563 283 q 573 267 563 274 q 595 253 583 260 q 617 241 607 247 q 628 226 628 235 q 603 207 628 222 q 549 174 579 192 q 490 142 518 157 q 454 122 461 126 q 438 113 447 119 q 429 106 429 106 l 429 53 q 457 62 439 53 q 495 83 475 71 q 534 107 515 94 q 564 126 553 119 q 577 134 568 129 q 595 144 586 139 q 613 155 604 150 q 624 161 621 160 q 644 172 631 165 q 657 178 657 178 l 665 169 q 666 163 665 168 q 667 156 667 158 q 667 142 667 154 q 661 126 667 129 l 564 67 l 564 17 l 568 17 q 575 19 571 18 q 581 21 579 21 q 595 28 585 22 q 617 40 606 33 q 638 51 628 46 q 653 60 649 57 l 657 60 m 1110 178 q 1113 174 1113 178 q 1110 169 1113 169 q 1107 174 1107 169 q 1110 178 1107 178 m 615 308 q 615 324 615 313 q 615 347 615 335 q 614 371 614 360 q 614 388 614 383 q 615 460 614 426 q 619 533 615 494 q 633 547 624 539 q 654 560 643 554 q 676 572 665 567 q 694 576 688 576 q 709 572 697 576 q 733 560 721 567 q 756 547 746 554 q 767 538 767 540 l 767 308 q 756 296 767 304 q 731 281 744 288 q 704 268 717 274 q 689 263 692 263 q 669 267 681 263 q 646 277 657 271 q 626 292 635 283 q 615 308 618 300 m 858 678 q 873 674 868 678 q 890 664 878 671 q 916 649 896 661 q 960 623 936 638 q 1008 595 985 608 q 1042 575 1031 582 q 1058 565 1047 572 q 1068 550 1068 558 l 1068 478 q 1057 468 1068 475 q 1033 454 1046 461 q 1007 442 1019 447 q 992 436 994 436 l 988 436 q 955 453 978 440 q 906 480 932 465 q 858 507 881 494 q 826 525 835 519 q 814 533 824 526 q 801 542 804 539 q 796 547 799 543 q 793 550 793 550 l 793 635 q 801 646 793 639 q 821 660 810 653 q 842 672 832 667 q 858 678 853 678 m 517 674 q 535 669 524 674 q 557 659 546 665 q 576 644 568 653 q 585 626 585 635 l 585 550 q 570 540 585 550 q 547 525 556 531 q 513 504 536 518 q 465 476 490 490 q 417 450 440 461 q 383 439 393 439 q 365 444 376 439 q 342 456 354 449 q 322 471 331 463 q 314 486 314 479 l 314 554 q 318 563 314 558 q 331 571 321 565 q 344 579 340 576 q 367 592 349 582 q 406 613 385 601 q 444 635 426 625 q 467 647 463 644 q 490 664 479 654 q 517 674 501 674 m 572 703 l 572 704 q 578 711 572 706 q 593 722 585 717 q 609 733 601 728 q 619 740 617 738 q 618 765 618 747 q 619 792 618 785 q 620 801 619 799 q 628 804 621 804 l 632 804 l 689 775 l 738 800 l 753 800 l 753 740 q 763 733 753 740 q 779 724 772 726 q 784 722 781 724 q 788 719 788 719 q 797 714 790 718 q 806 707 803 710 l 810 703 q 801 690 810 694 q 781 681 792 685 q 763 672 771 676 q 754 660 754 668 l 754 610 q 751 605 754 606 q 746 604 749 604 q 743 605 744 604 q 742 606 742 606 l 700 626 l 693 626 q 663 613 676 626 q 633 600 649 600 l 632 601 q 625 610 625 604 l 625 668 q 618 674 625 669 q 607 681 611 678 q 602 683 606 682 q 597 686 599 685 q 585 694 594 688 q 572 703 575 700 m 393 944 q 426 928 397 944 q 489 893 456 913 q 549 857 522 874 q 576 838 576 840 l 576 761 q 566 753 576 760 q 542 738 556 746 q 516 722 528 729 q 500 715 504 715 q 476 725 490 715 q 454 740 463 735 q 431 754 447 744 q 396 775 414 764 q 362 795 378 786 q 340 808 346 804 q 328 815 339 808 q 318 825 318 822 l 318 901 q 328 913 318 906 q 353 926 339 919 q 378 939 367 933 q 393 944 390 944 m 793 769 l 793 833 q 822 853 793 835 q 888 892 851 871 q 956 931 925 914 q 992 949 988 949 q 1008 943 996 949 q 1034 930 1021 938 q 1058 915 1047 922 q 1068 906 1068 908 l 1068 829 l 1058 821 q 1039 810 1058 821 q 993 783 1019 799 q 938 751 967 768 q 890 724 908 735 q 883 720 883 721 q 875 719 882 719 q 852 726 864 719 q 831 740 840 733 q 810 753 824 744 q 797 761 797 761 l 793 769 m 697 1118 q 717 1113 704 1118 q 742 1101 729 1108 q 763 1084 754 1093 q 775 1067 772 1075 q 776 1046 775 1061 q 776 1026 776 1031 q 776 946 776 986 q 767 868 776 906 q 763 863 767 867 q 729 840 750 856 q 689 825 708 825 q 672 830 683 825 q 649 841 661 835 q 628 853 638 847 q 619 863 619 860 l 619 1058 q 628 1078 619 1068 q 650 1098 638 1089 q 676 1113 663 1107 q 697 1118 689 1118 z "},"K":{"ha":1388,"x_min":14,"x_max":1372,"o":"m 656 143 l 656 38 q 665 30 656 31 q 678 29 674 29 q 690 29 685 29 q 704 33 697 29 q 705 52 704 39 q 706 80 706 65 q 708 108 707 94 q 708 126 708 121 q 709 138 708 132 q 717 144 710 144 q 718 144 717 144 q 721 143 719 143 q 732 138 724 142 q 749 128 740 133 q 765 119 757 124 q 775 114 772 115 q 799 99 783 110 q 831 78 814 89 q 863 60 847 68 q 886 53 878 53 l 886 97 q 863 117 886 104 q 813 145 840 131 q 764 174 786 160 q 742 196 742 188 l 742 199 l 750 207 l 826 249 l 831 258 q 831 275 831 261 q 833 309 832 289 q 835 342 835 329 l 835 346 q 835 365 835 351 q 837 395 836 379 q 838 425 838 411 q 839 444 839 439 l 847 444 q 856 444 854 444 q 864 440 857 443 q 883 428 868 438 q 915 410 899 419 q 947 391 932 400 q 965 381 961 382 q 989 366 976 374 q 1015 358 1001 358 q 1019 358 1017 358 q 1025 360 1024 358 q 1038 366 1029 361 q 1055 376 1046 371 q 1072 385 1064 381 q 1085 393 1081 390 q 1097 399 1090 396 q 1110 401 1103 401 q 1117 401 1113 401 q 1121 397 1121 400 l 1121 240 q 1133 232 1121 240 q 1153 219 1146 224 q 1158 217 1154 218 q 1165 215 1163 215 q 1166 240 1165 222 q 1167 278 1167 258 q 1169 317 1168 299 q 1169 342 1169 335 q 1169 368 1169 357 q 1174 393 1168 379 q 1178 397 1174 397 q 1203 391 1190 397 q 1230 376 1217 385 q 1256 360 1243 368 q 1279 346 1268 351 q 1292 360 1286 351 q 1297 378 1297 369 q 1296 387 1297 385 q 1288 393 1294 389 l 1211 440 q 1207 443 1210 440 q 1203 449 1204 446 l 1203 450 l 1203 453 l 1211 461 l 1368 550 l 1372 554 q 1352 570 1368 561 q 1328 579 1336 579 l 1325 579 l 1199 511 q 1182 507 1190 507 q 1174 511 1175 507 q 1173 524 1174 515 q 1172 543 1172 533 q 1170 562 1171 553 q 1169 575 1169 571 q 1168 597 1168 586 q 1161 617 1168 608 q 1090 660 1126 639 q 1021 701 1054 682 q 1013 708 1018 703 q 1008 715 1008 713 q 1025 731 1008 719 q 1064 754 1042 742 q 1106 777 1086 767 q 1131 790 1125 788 q 1156 806 1140 797 q 1171 817 1171 815 l 1171 910 q 1183 913 1174 910 q 1194 914 1192 915 q 1226 898 1208 910 q 1260 874 1243 886 q 1294 851 1278 861 q 1325 842 1311 842 q 1348 849 1336 842 q 1368 863 1360 856 q 1290 912 1329 889 q 1211 960 1251 935 q 1207 968 1207 961 q 1223 985 1207 975 q 1258 1003 1239 994 q 1292 1022 1276 1013 q 1308 1039 1308 1032 l 1308 1040 q 1306 1043 1308 1042 q 1304 1044 1304 1044 q 1296 1057 1301 1047 q 1288 1069 1290 1067 q 1285 1071 1288 1071 q 1283 1071 1283 1071 q 1258 1064 1269 1071 q 1234 1049 1246 1057 q 1210 1035 1222 1042 q 1186 1028 1199 1028 q 1177 1028 1183 1028 q 1174 1036 1171 1029 l 1174 1096 q 1176 1153 1174 1125 q 1178 1211 1178 1182 q 1152 1203 1167 1211 q 1131 1185 1138 1196 q 1130 1165 1131 1179 q 1128 1134 1129 1150 q 1127 1103 1128 1118 q 1126 1083 1126 1089 q 1125 1062 1126 1078 q 1122 1040 1124 1046 q 1121 1030 1122 1038 q 1114 1019 1119 1022 q 1090 1030 1101 1022 q 1067 1046 1079 1038 q 1044 1060 1056 1054 q 1019 1067 1032 1067 q 965 1047 992 1067 q 915 1015 939 1028 q 904 1008 913 1013 q 886 999 896 1004 q 868 991 876 994 q 856 986 860 988 q 851 985 856 985 q 840 997 842 985 q 838 1015 838 1008 l 838 1172 l 831 1181 q 819 1188 829 1182 q 792 1203 808 1194 q 767 1218 776 1213 q 753 1225 761 1221 q 746 1238 746 1229 q 757 1250 746 1242 q 782 1266 768 1258 q 809 1281 796 1274 q 826 1290 822 1288 q 841 1298 832 1293 q 860 1308 850 1303 q 877 1318 869 1314 q 886 1324 885 1322 l 890 1328 l 890 1367 q 886 1371 890 1371 q 880 1369 885 1371 q 872 1367 875 1368 l 733 1290 l 728 1290 q 719 1290 725 1290 q 714 1294 714 1290 l 714 1408 l 664 1408 l 664 1299 q 653 1289 664 1289 l 649 1290 q 627 1301 643 1293 q 607 1311 611 1308 q 580 1328 596 1317 q 546 1349 564 1339 q 512 1368 528 1360 q 488 1376 496 1376 l 488 1328 q 510 1312 488 1324 q 558 1286 532 1300 q 606 1258 583 1272 q 628 1238 628 1244 q 615 1222 628 1229 q 585 1208 601 1215 q 554 1192 568 1200 q 539 1176 540 1185 l 539 1142 q 538 1113 539 1133 q 537 1068 538 1092 q 535 1024 536 1044 q 535 994 535 1003 l 531 990 q 530 990 531 990 q 528 989 529 989 l 526 990 q 517 993 524 990 q 508 999 511 996 q 487 1010 504 1000 q 450 1032 469 1021 q 413 1053 431 1043 q 390 1065 394 1063 q 375 1074 385 1068 q 358 1079 365 1079 l 357 1079 l 281 1040 l 264 1040 q 261 1064 263 1046 q 260 1088 260 1082 q 259 1108 260 1093 q 258 1140 258 1124 q 259 1172 258 1157 q 260 1193 260 1186 l 256 1210 l 221 1231 l 211 1231 l 211 1036 q 208 1035 211 1036 q 204 1032 206 1033 l 203 1032 q 174 1040 188 1032 q 148 1059 161 1049 q 122 1078 135 1069 q 94 1088 108 1088 q 78 1074 83 1088 q 72 1053 72 1061 q 87 1036 72 1044 q 119 1019 101 1028 q 152 1003 138 1011 q 167 986 167 994 q 143 964 167 978 q 90 935 119 950 q 38 908 61 921 q 14 886 14 894 q 28 869 14 876 q 51 863 43 863 q 88 874 69 863 q 124 899 106 885 q 161 924 143 913 q 196 935 179 935 q 204 935 197 935 q 211 931 211 935 l 211 825 q 218 820 211 825 q 235 809 225 815 q 255 797 244 803 q 272 786 265 790 q 291 776 275 785 q 324 758 307 768 q 356 737 342 747 q 371 721 371 726 q 370 717 371 719 q 369 715 369 715 q 344 699 363 711 q 318 685 325 688 q 297 674 314 682 q 262 656 281 665 q 228 638 243 647 q 213 626 214 629 q 206 568 206 599 q 204 511 207 538 l 196 511 q 178 519 194 511 q 154 533 163 528 q 106 567 131 546 q 54 588 81 588 q 31 581 47 588 q 14 564 14 574 l 14 563 q 37 548 19 560 q 61 533 54 536 q 82 522 65 531 q 117 502 99 513 q 149 481 135 492 q 163 463 163 471 l 163 457 q 147 448 158 454 q 124 435 136 442 q 101 423 111 429 q 86 414 90 417 q 75 408 78 410 q 72 400 72 407 q 78 376 72 390 q 94 363 83 363 q 122 371 108 363 q 147 388 135 379 q 172 406 160 397 q 200 414 185 414 q 204 413 201 414 q 207 410 207 411 l 207 226 q 221 228 213 226 q 238 235 229 231 q 251 244 246 239 q 257 258 257 250 l 257 406 l 264 410 q 272 407 264 410 q 285 401 281 404 q 321 380 303 393 q 358 367 339 367 q 365 367 361 367 q 369 368 369 368 l 513 449 l 532 449 l 532 263 q 544 249 532 258 q 571 231 556 240 q 601 214 586 222 q 619 203 615 206 l 619 199 q 615 190 619 193 q 550 152 585 169 q 483 118 515 135 q 478 105 478 114 q 479 90 479 96 q 478 77 479 86 q 483 63 478 68 l 636 143 l 656 143 m 583 288 l 583 540 l 374 426 q 365 423 368 424 q 354 422 361 422 q 333 429 349 422 q 301 446 318 436 q 272 465 285 456 q 260 482 260 475 l 260 588 q 265 597 260 592 q 272 604 269 603 q 376 658 324 631 q 475 719 428 686 q 476 721 475 719 q 476 724 476 722 q 453 740 476 725 q 403 770 431 754 q 353 799 376 786 q 331 813 331 813 q 306 827 322 818 q 280 842 290 836 q 268 850 269 849 l 264 858 l 264 972 q 277 983 264 975 q 306 1001 290 992 q 338 1017 322 1010 q 357 1024 353 1024 q 390 1010 364 1024 q 448 977 417 996 q 508 941 479 958 q 547 918 536 924 q 567 907 554 914 q 581 901 581 900 l 588 906 l 588 1154 q 591 1158 588 1156 q 597 1163 594 1161 q 638 1185 617 1175 q 678 1206 658 1196 l 685 1206 q 709 1199 693 1206 q 742 1182 725 1192 q 772 1161 758 1172 q 789 1142 786 1150 q 792 1094 792 1111 q 793 1049 793 1076 l 793 1011 q 792 990 793 1004 q 791 958 792 975 q 790 926 790 942 q 789 906 789 911 q 783 901 785 901 q 771 897 781 899 q 758 894 761 894 l 589 894 q 538 810 564 853 q 483 728 513 768 l 483 724 q 492 706 483 711 q 535 634 511 674 q 576 558 558 594 l 589 550 q 603 549 589 550 q 638 548 618 549 q 678 547 657 547 q 713 546 699 546 l 749 546 l 783 546 q 801 573 785 546 q 838 633 818 600 q 874 694 858 667 q 890 724 890 722 q 883 741 890 729 q 872 757 875 753 q 863 775 869 763 q 847 801 856 788 q 832 828 839 815 q 822 846 825 840 q 806 865 811 853 q 800 890 800 878 q 806 901 800 897 q 814 905 807 901 q 822 910 821 908 q 833 916 824 911 q 851 926 842 921 q 870 937 861 932 q 882 943 879 942 q 908 959 888 947 q 951 983 928 971 q 992 1006 974 996 q 1014 1015 1011 1015 q 1033 1008 1017 1015 q 1069 991 1050 1001 q 1103 969 1088 981 q 1118 951 1118 958 l 1118 846 l 1114 838 q 1092 825 1114 838 q 1042 796 1071 813 q 981 761 1013 779 q 928 732 949 743 q 917 727 926 731 q 907 717 907 724 q 923 702 907 713 q 962 678 939 692 q 1013 649 985 664 q 1063 620 1040 633 q 1102 596 1086 607 q 1118 579 1118 585 l 1118 474 q 1106 460 1118 469 q 1076 442 1093 451 q 1043 426 1060 433 q 1018 418 1026 418 q 976 432 997 418 q 936 457 956 446 q 909 472 928 461 q 869 497 890 483 q 828 522 847 510 q 801 538 808 533 l 786 538 l 786 292 q 784 288 786 292 q 779 283 782 285 q 775 278 778 281 q 771 275 772 275 l 686 228 l 681 228 q 658 235 669 228 q 636 249 646 243 q 608 267 625 256 q 589 279 590 278 l 583 288 m 822 372 q 825 368 825 372 q 822 364 825 364 q 819 368 819 364 q 822 372 819 372 m 576 490 q 579 486 579 490 q 576 482 579 482 q 574 486 574 482 q 576 490 574 490 m 615 596 q 605 606 608 601 q 597 617 601 611 q 589 633 596 621 q 574 658 582 644 q 559 685 567 672 q 547 706 551 699 q 541 717 544 708 q 539 728 538 725 q 550 752 539 733 q 575 792 561 771 q 600 829 589 813 q 611 846 611 846 l 763 846 q 770 838 764 846 q 779 825 776 829 q 782 820 781 824 q 783 817 783 817 q 799 794 789 808 q 817 766 808 781 q 831 738 825 751 q 835 719 836 725 q 830 708 835 718 q 822 693 825 699 q 817 683 821 690 q 808 667 813 675 q 799 653 803 660 q 793 643 794 646 q 772 608 781 624 q 739 592 764 592 l 725 592 q 703 592 718 592 q 669 594 688 593 q 636 595 651 594 q 615 596 621 596 z "},"L":{"ha":1363,"x_min":14,"x_max":1347,"o":"m 661 4 q 676 1 669 1 q 690 0 682 0 q 699 1 693 0 q 706 8 706 1 l 706 64 q 710 72 706 71 q 718 72 714 72 q 730 71 726 72 q 742 64 733 69 q 757 54 746 61 q 780 40 768 47 q 803 26 792 33 q 818 17 814 19 l 833 17 q 857 18 847 17 q 882 25 867 19 l 882 29 q 877 37 882 36 q 869 42 872 38 q 840 60 861 47 q 797 87 819 72 q 753 114 774 101 q 725 131 733 126 q 713 138 718 136 q 708 153 708 140 l 708 207 q 717 217 708 217 q 727 214 724 217 q 738 207 731 211 q 760 194 742 204 q 797 172 778 183 q 834 149 817 160 q 856 136 851 139 q 869 129 858 133 q 882 122 879 125 l 882 178 l 878 182 q 799 235 839 211 q 717 283 758 258 l 708 292 l 708 364 l 725 364 q 738 356 726 363 q 767 341 750 350 q 793 326 783 332 q 808 317 801 321 q 825 313 814 313 q 873 327 849 313 q 915 356 897 342 q 927 365 919 358 q 935 372 935 372 l 935 494 q 957 490 943 494 q 984 479 971 486 q 1007 463 997 472 q 1017 444 1017 454 l 1017 250 q 1020 246 1017 249 q 1025 242 1024 243 q 1031 238 1026 240 q 1040 231 1035 235 q 1050 226 1046 228 q 1056 225 1054 224 l 1060 229 q 1060 253 1060 232 q 1063 306 1061 275 q 1064 356 1064 338 l 1064 360 q 1067 394 1065 372 q 1068 415 1068 415 l 1076 419 q 1088 413 1076 419 q 1106 403 1099 406 q 1120 393 1111 400 q 1132 385 1129 386 q 1134 381 1132 385 q 1136 376 1136 378 l 1136 186 l 1144 178 q 1169 199 1156 186 q 1186 229 1183 213 q 1185 283 1185 253 q 1190 339 1186 314 q 1193 341 1192 339 q 1194 343 1194 343 l 1197 343 l 1199 343 l 1246 318 q 1251 317 1246 317 q 1269 327 1263 317 q 1276 347 1276 338 q 1267 364 1276 358 q 1248 374 1258 369 q 1228 383 1238 378 q 1219 399 1219 388 q 1235 415 1219 406 q 1269 433 1250 424 q 1306 451 1288 442 q 1331 469 1324 461 q 1342 498 1339 482 q 1344 529 1344 514 l 1339 529 q 1322 521 1338 529 q 1296 508 1306 513 q 1234 473 1264 490 q 1174 436 1204 456 l 1149 436 q 1130 447 1147 436 q 1101 465 1113 458 q 1099 468 1101 467 q 1097 469 1097 469 l 1097 472 q 1110 485 1097 476 q 1138 503 1122 493 q 1168 519 1154 513 q 1186 529 1182 526 q 1197 535 1188 531 q 1216 546 1206 540 q 1235 556 1226 551 q 1246 563 1243 561 q 1256 568 1253 567 q 1258 575 1258 569 l 1258 581 q 1241 591 1254 583 q 1225 601 1228 599 q 1219 603 1222 601 q 1215 606 1217 606 l 1214 606 l 1211 606 q 1206 603 1210 604 q 1199 601 1201 601 q 1171 585 1190 597 q 1129 560 1151 574 q 1088 536 1107 547 q 1060 521 1068 525 q 1046 513 1049 514 q 1033 511 1043 511 q 1018 515 1022 511 q 1000 525 1014 518 q 985 535 994 528 q 975 542 975 542 l 975 550 q 985 557 975 550 q 1000 567 994 564 q 1016 576 1004 569 q 1040 590 1028 582 q 1063 603 1053 597 q 1076 614 1074 610 q 1081 647 1081 633 q 1081 682 1081 663 q 1081 696 1081 686 q 1082 717 1082 706 q 1080 737 1082 728 q 1072 749 1078 746 l 975 808 q 971 817 971 813 q 972 819 971 817 q 975 821 974 821 q 1003 842 986 829 q 1036 856 1021 856 l 1038 856 q 1044 853 1040 854 q 1051 851 1049 851 q 1119 807 1085 828 q 1190 767 1154 786 q 1206 758 1196 764 q 1215 753 1215 753 q 1238 763 1222 753 q 1258 779 1253 772 q 1225 804 1251 789 q 1170 835 1199 819 q 1119 865 1142 851 q 1097 886 1097 879 l 1097 889 q 1099 891 1097 889 q 1101 893 1100 893 q 1131 914 1111 900 q 1163 928 1151 928 q 1185 921 1171 928 q 1213 905 1199 914 q 1240 887 1226 896 q 1263 872 1254 878 q 1276 864 1267 869 q 1297 851 1286 858 q 1319 838 1308 844 q 1335 829 1331 832 q 1339 827 1336 829 q 1343 825 1342 825 l 1344 825 l 1347 825 l 1335 881 q 1315 899 1332 890 q 1277 917 1297 908 q 1240 936 1257 926 q 1224 957 1224 946 q 1232 972 1224 967 q 1251 980 1240 976 q 1270 988 1261 983 q 1279 1003 1279 993 q 1274 1027 1279 1013 q 1256 1042 1268 1042 q 1240 1037 1247 1042 q 1224 1026 1232 1032 q 1209 1016 1217 1021 q 1193 1011 1201 1011 l 1186 1011 q 1181 1077 1182 1043 q 1182 1143 1181 1111 q 1179 1153 1182 1144 q 1174 1164 1176 1161 q 1159 1177 1168 1169 q 1149 1185 1150 1185 l 1144 1185 q 1144 1149 1144 1175 q 1142 1094 1143 1124 q 1141 1039 1142 1065 q 1140 1003 1140 1013 q 1131 975 1139 983 q 1106 957 1124 967 q 1089 947 1094 950 q 1074 943 1083 943 q 1065 944 1069 943 q 1061 953 1061 946 l 1061 1136 q 1037 1126 1047 1136 q 1015 1108 1026 1115 l 1015 918 q 1005 903 1015 911 q 982 887 994 894 q 958 874 969 879 q 943 868 946 868 l 940 868 q 935 872 935 868 l 935 999 q 927 1006 935 1000 q 915 1015 919 1013 q 877 1044 900 1028 q 835 1060 854 1060 q 803 1051 818 1060 q 775 1031 789 1042 q 747 1013 761 1021 q 717 1004 732 1004 l 717 1083 q 723 1088 717 1083 q 733 1096 729 1093 q 741 1101 736 1099 q 746 1104 746 1104 q 808 1138 779 1121 q 874 1176 838 1156 q 883 1182 876 1179 q 890 1189 890 1185 l 890 1244 q 846 1225 867 1239 q 804 1197 825 1211 q 762 1173 783 1183 q 717 1163 740 1163 l 717 1236 q 722 1241 717 1238 q 733 1248 726 1244 q 744 1254 739 1251 q 750 1257 749 1257 q 765 1266 753 1258 q 792 1283 778 1274 q 819 1299 807 1292 q 835 1308 832 1306 q 849 1315 839 1311 q 867 1323 858 1318 q 883 1333 876 1328 q 890 1346 890 1339 l 890 1350 q 861 1358 875 1353 q 831 1363 847 1363 q 804 1356 817 1363 q 781 1340 792 1349 q 758 1324 769 1332 q 733 1313 746 1315 q 724 1313 731 1311 q 714 1315 717 1315 l 714 1379 l 665 1379 q 664 1353 665 1374 q 661 1325 663 1332 q 661 1311 661 1319 q 653 1303 661 1303 l 649 1304 l 543 1358 q 536 1360 542 1360 q 528 1360 531 1360 q 517 1360 525 1360 q 510 1358 510 1360 q 496 1353 504 1357 q 488 1346 488 1349 l 488 1342 q 505 1331 490 1340 q 542 1308 519 1322 q 576 1286 564 1294 q 617 1264 596 1275 q 657 1240 638 1253 q 661 1224 661 1231 q 661 1208 661 1218 q 660 1185 661 1194 q 657 1160 660 1175 q 653 1156 657 1156 q 647 1157 651 1156 q 640 1160 643 1158 l 496 1240 l 488 1240 l 488 1189 q 501 1181 488 1189 q 522 1168 514 1172 q 587 1130 554 1149 q 653 1092 619 1111 q 660 1083 658 1089 q 661 1071 661 1076 l 661 1067 q 660 1039 661 1060 q 657 1011 658 1018 l 651 1011 q 623 1019 636 1011 q 596 1038 610 1028 q 569 1058 582 1049 q 540 1067 556 1067 q 528 1065 532 1067 q 514 1058 525 1063 q 462 1030 485 1044 q 438 982 439 1015 q 437 963 438 976 q 436 935 436 950 q 437 908 436 921 q 438 889 438 894 q 437 878 439 881 q 429 876 435 876 q 413 882 425 876 q 387 894 400 888 q 364 910 374 901 q 354 922 354 918 l 354 1122 q 347 1127 354 1122 q 336 1135 340 1132 q 324 1142 331 1138 q 310 1147 317 1147 q 304 1143 304 1147 l 304 957 q 300 954 304 956 q 293 953 296 953 l 285 957 q 268 966 279 960 q 256 974 257 972 q 236 986 249 978 q 224 994 224 994 l 224 1193 l 217 1197 q 210 1193 217 1199 q 200 1185 204 1188 q 198 1183 200 1185 q 196 1181 196 1182 q 188 1170 193 1178 q 179 1160 182 1163 q 175 1097 176 1128 q 171 1033 174 1065 l 154 1033 l 111 1058 l 107 1058 q 90 1045 97 1058 q 82 1025 82 1032 q 90 1010 82 1015 q 108 1000 99 1004 q 125 991 117 996 q 133 978 133 986 q 128 969 133 972 q 90 948 110 957 q 55 928 71 939 q 28 901 39 917 q 18 860 18 885 l 18 846 q 107 893 64 868 q 196 940 150 918 l 203 940 q 236 926 218 940 q 268 901 254 911 l 268 897 q 253 885 268 894 q 217 866 238 876 q 180 846 197 856 q 158 833 163 836 q 136 821 150 829 q 113 807 122 813 q 103 800 104 801 l 103 796 q 116 788 103 796 q 136 775 129 779 l 144 771 l 147 771 l 150 771 q 156 772 151 771 q 163 775 161 774 q 201 797 176 782 q 250 826 225 811 q 298 853 275 842 q 332 864 321 864 q 342 862 339 864 q 353 856 346 860 q 374 842 357 853 q 394 829 390 832 q 395 828 394 829 q 396 825 396 826 q 385 813 396 818 q 369 804 375 807 q 347 791 361 799 q 320 776 333 783 q 298 763 307 768 q 289 757 289 757 l 285 744 l 285 639 l 289 631 q 342 601 317 615 q 390 567 367 586 q 394 563 394 567 l 394 561 l 394 558 q 362 534 383 547 q 325 521 340 521 q 290 534 313 521 q 240 564 267 547 q 189 597 214 581 q 150 618 164 613 l 147 618 q 137 615 144 618 q 122 608 129 613 q 108 599 114 604 q 103 590 103 594 l 103 589 q 175 543 138 565 q 247 500 213 521 q 253 493 249 497 q 260 486 258 489 l 260 485 q 251 476 260 482 q 232 463 243 469 q 210 453 221 457 q 196 449 200 449 q 165 460 181 449 q 136 478 150 471 q 113 492 129 482 q 79 513 97 501 q 44 533 61 524 q 22 546 28 542 l 14 546 q 26 497 14 514 q 65 465 39 481 q 81 456 69 463 q 104 442 92 450 q 126 427 117 435 q 136 415 136 419 q 132 411 136 411 q 119 401 128 407 q 101 390 110 396 q 85 380 92 385 q 78 371 78 375 q 85 349 78 364 q 100 335 93 335 l 103 335 l 163 364 l 172 356 l 172 233 q 176 227 172 232 q 183 219 181 222 q 196 207 186 217 q 208 194 206 197 l 211 194 l 213 194 q 217 197 215 196 q 219 199 219 199 l 219 393 q 228 401 219 394 q 249 414 238 407 q 272 426 261 421 q 286 432 282 432 q 293 432 289 432 q 297 428 297 432 l 297 250 q 301 242 297 247 q 308 238 304 238 q 330 246 318 238 q 349 263 342 254 q 349 299 349 272 q 351 353 350 325 q 352 408 351 382 q 353 444 353 433 q 374 485 353 472 q 421 508 396 497 l 424 508 q 431 508 426 508 q 435 504 435 507 l 435 376 q 450 359 435 369 q 484 338 465 349 q 519 320 503 328 q 540 313 536 313 q 567 321 554 313 q 592 338 581 329 q 617 356 604 347 q 644 364 629 364 q 650 363 647 364 q 653 360 653 363 l 653 296 q 628 276 653 292 q 574 244 604 261 q 516 212 543 226 q 483 194 489 197 l 483 133 q 499 139 492 133 q 514 149 507 144 q 547 169 531 157 q 581 190 564 181 q 617 207 599 200 q 653 214 635 214 l 653 144 q 618 126 646 142 q 560 93 590 111 q 504 59 529 75 q 475 38 479 43 q 500 26 486 31 q 528 21 514 21 q 560 29 544 21 q 590 48 575 38 q 619 67 606 58 q 647 76 633 76 q 654 66 651 76 q 658 43 657 56 q 660 19 660 31 q 661 4 661 7 m 556 56 q 558 51 558 56 q 556 47 558 47 q 553 51 553 47 q 556 56 553 56 m 331 690 q 331 705 331 697 q 336 719 332 713 q 364 742 340 728 q 415 769 388 756 q 464 794 442 783 q 486 808 486 806 l 486 982 q 505 994 493 988 q 522 1007 517 1000 q 529 1008 524 1007 q 536 1008 535 1008 q 564 1001 551 1008 q 589 986 576 994 q 601 978 592 985 q 623 965 611 972 q 644 952 635 958 q 657 944 654 946 q 672 933 664 939 q 689 926 681 926 q 722 938 703 926 q 761 963 740 950 q 803 988 782 976 q 840 1000 824 1000 q 847 999 843 1000 q 851 999 851 999 q 871 988 858 996 q 883 978 883 981 l 883 808 q 892 799 883 807 q 907 788 901 790 q 920 781 910 786 q 932 775 931 776 q 970 751 946 767 q 1010 726 994 736 q 1029 715 1026 717 l 1029 651 q 1012 633 1029 644 q 972 610 994 622 q 929 586 950 597 q 903 571 908 575 q 891 562 899 568 q 883 554 883 556 l 883 397 q 875 390 883 394 q 857 380 867 385 q 838 372 847 375 q 826 368 828 368 q 794 380 814 368 q 754 406 775 392 q 714 433 733 421 q 685 444 694 444 l 683 444 q 611 407 646 428 q 539 368 576 386 l 535 368 q 522 372 531 368 q 503 383 513 376 q 486 397 493 389 q 479 411 479 404 l 479 550 q 456 590 479 575 q 405 617 433 604 q 353 645 376 629 q 331 690 331 661 m 510 583 l 669 486 l 679 486 q 706 492 692 486 q 737 508 721 499 q 767 526 753 517 q 793 542 782 535 q 803 549 796 543 q 820 559 811 554 q 837 569 829 564 q 847 575 844 574 q 851 581 851 579 q 856 595 856 590 q 857 610 857 600 q 856 619 857 613 q 856 626 856 625 q 855 657 856 635 q 853 704 854 679 q 852 752 853 729 q 851 783 851 775 q 845 794 851 789 q 831 803 839 799 q 814 810 822 807 q 801 817 806 814 q 744 853 772 835 q 688 889 715 871 l 678 889 q 663 879 674 886 q 638 865 651 872 q 614 851 625 858 q 599 842 603 844 q 577 832 592 839 q 548 817 563 825 q 522 799 533 808 q 510 783 510 790 l 510 583 m 632 567 l 556 614 l 556 749 q 574 769 556 756 q 615 797 592 783 q 658 820 638 810 q 685 831 679 831 q 692 829 690 831 q 700 825 693 828 q 726 810 710 819 q 756 792 742 801 q 782 777 771 783 q 793 771 793 771 l 801 763 q 802 752 801 763 q 803 728 803 742 q 805 701 804 715 q 806 678 806 686 q 805 665 806 674 q 803 646 804 656 q 802 627 803 636 q 801 614 801 618 q 747 572 782 589 q 683 542 711 554 l 678 542 q 654 550 671 542 q 632 567 638 558 z "},"M":{"ha":1235,"x_min":14,"x_max":1221,"o":"m 513 185 l 513 182 l 610 4 q 618 0 613 0 l 624 0 q 635 20 628 6 q 650 50 642 35 q 666 78 658 65 q 678 93 674 90 q 685 108 679 97 q 697 129 690 118 q 708 151 703 140 q 717 165 714 161 q 720 172 717 167 q 725 178 724 176 l 725 182 q 713 192 725 188 q 685 201 700 197 q 657 209 669 206 q 644 215 644 213 l 644 250 q 651 256 644 253 q 657 258 657 258 l 789 300 l 757 444 l 763 444 q 772 436 763 444 q 788 424 782 428 q 803 408 792 419 q 826 385 814 397 q 851 363 839 372 q 869 354 863 354 l 872 356 l 974 449 l 978 449 q 997 443 985 449 q 1008 429 1008 438 q 999 388 1008 408 q 989 347 989 368 l 1221 347 q 1219 360 1221 358 q 1211 372 1217 363 q 1201 388 1208 376 q 1187 413 1194 400 q 1173 438 1179 426 q 1164 453 1167 449 q 1160 461 1164 454 q 1156 469 1157 468 q 1151 474 1156 474 l 1108 553 l 1042 486 l 1038 486 q 1019 492 1031 486 q 1007 507 1007 499 q 1008 510 1007 508 q 1008 511 1008 511 l 1033 614 q 1040 629 1039 621 q 1042 644 1042 638 l 1042 647 q 975 669 1010 660 q 907 685 940 678 q 906 686 906 686 q 906 688 906 688 q 927 699 906 693 q 974 711 949 704 q 1020 726 999 718 q 1042 743 1042 735 q 1040 762 1042 753 q 1033 778 1039 771 l 1008 875 l 1008 878 q 1017 893 1008 889 q 1035 897 1026 897 l 1042 897 q 1051 887 1044 894 q 1067 871 1058 879 q 1083 856 1075 863 q 1093 846 1090 849 q 1099 842 1094 844 q 1106 838 1103 839 l 1211 1024 q 1213 1025 1211 1024 q 1215 1028 1215 1026 l 1215 1031 l 1215 1032 l 1194 1036 l 990 1036 l 990 1032 q 994 1019 992 1029 q 1000 996 997 1008 q 1006 973 1003 983 q 1008 960 1008 963 l 1008 956 q 997 941 1008 947 q 978 935 985 935 q 958 944 971 935 q 933 965 946 953 q 907 990 919 978 q 889 1007 894 1001 q 874 1020 883 1013 q 864 1028 864 1028 l 758 931 l 754 931 l 785 1072 l 644 1118 l 644 1154 q 654 1158 644 1156 q 669 1163 664 1161 q 694 1169 675 1165 q 721 1176 714 1174 l 721 1178 l 721 1181 q 716 1191 719 1183 q 711 1201 713 1199 l 618 1383 l 614 1383 q 572 1317 594 1349 q 531 1251 550 1286 q 510 1224 524 1240 q 492 1193 497 1207 q 576 1163 531 1175 l 585 1154 l 585 1115 l 454 1075 q 449 1072 451 1074 q 446 1069 446 1071 l 446 1068 l 446 1065 l 476 926 l 471 926 q 457 938 469 926 q 438 956 444 949 l 403 990 q 384 1006 399 993 q 365 1024 369 1019 l 363 1024 l 361 1024 q 350 1016 358 1022 q 339 1007 342 1010 q 323 991 335 1003 q 297 967 311 979 q 272 942 283 954 q 256 926 260 931 q 244 933 253 928 q 233 939 236 938 l 225 947 q 226 957 225 949 q 229 968 228 965 q 232 978 229 969 q 238 996 235 986 q 243 1013 240 1006 q 246 1024 246 1021 q 247 1026 247 1024 q 247 1026 247 1026 q 246 1028 247 1028 q 210 1031 236 1029 q 156 1034 185 1032 q 101 1038 126 1036 q 65 1040 75 1040 q 42 1041 60 1040 q 18 1042 24 1042 l 18 1032 l 115 838 q 124 842 119 838 q 156 868 140 854 q 188 897 172 882 l 189 897 q 214 889 197 897 q 231 869 231 881 q 230 866 231 868 q 229 863 229 864 l 200 740 q 196 732 196 736 l 196 729 q 203 723 196 726 q 218 717 210 719 q 235 713 226 715 q 246 711 243 711 q 255 709 247 711 q 270 705 263 707 q 285 701 278 703 q 293 697 292 699 q 319 690 300 696 q 344 681 338 683 l 326 672 l 213 639 q 205 635 206 636 q 204 626 204 633 q 217 560 204 592 q 229 494 229 528 q 224 485 229 490 q 213 475 219 479 q 199 468 206 471 q 189 465 193 465 l 188 465 q 178 474 185 468 q 164 487 171 481 q 150 499 157 493 q 140 507 143 504 q 132 515 138 510 q 124 521 126 519 l 121 521 l 119 521 l 22 335 q 18 328 21 332 q 14 321 15 324 l 14 319 q 24 313 14 313 q 133 315 76 313 q 242 325 189 317 q 242 327 242 326 q 243 328 243 328 q 242 328 243 328 q 242 331 242 329 q 239 342 242 332 q 233 363 236 351 q 228 385 231 375 q 225 397 225 394 l 225 408 q 234 428 225 424 q 260 440 243 432 l 261 440 l 264 440 l 357 347 q 360 344 357 346 q 365 343 363 343 l 367 343 l 369 343 q 376 347 372 344 q 382 351 381 350 q 392 361 383 353 q 410 379 400 369 q 427 397 419 389 q 438 406 435 404 q 447 416 442 410 q 459 427 453 422 q 470 436 465 432 q 475 440 475 440 l 479 440 l 446 293 l 585 253 l 585 215 q 574 209 585 213 q 549 201 563 206 q 524 193 535 197 q 513 185 513 189 z "},"N":{"ha":1244,"x_min":14,"x_max":1229,"o":"m 454 296 q 459 287 454 294 q 470 268 464 279 q 479 250 476 257 q 551 125 515 188 q 628 4 586 63 l 636 -4 q 654 19 646 3 q 665 38 663 35 q 677 58 669 43 q 694 89 685 72 q 710 120 703 106 q 721 140 718 135 q 725 144 725 140 q 753 194 740 169 q 781 246 765 219 q 786 256 782 249 q 795 271 790 263 q 804 286 800 279 q 810 296 808 293 l 810 299 l 810 301 q 801 322 807 307 q 793 339 794 336 q 760 392 781 363 q 722 451 740 421 q 691 513 704 482 q 678 568 678 543 q 678 582 678 571 q 679 597 678 594 q 683 601 679 601 l 685 601 q 701 594 693 601 q 717 585 710 588 q 758 551 740 571 q 790 508 775 531 q 816 460 804 485 q 839 411 828 435 l 844 407 l 886 335 q 898 327 889 328 q 911 326 907 326 l 1229 326 q 1219 360 1226 342 q 1200 385 1211 378 q 1134 509 1168 447 q 1064 631 1100 571 q 1059 638 1063 633 q 1056 642 1056 642 l 797 642 q 788 647 796 643 q 769 658 781 651 q 750 669 757 665 q 744 674 749 671 q 738 678 739 676 l 733 682 q 738 690 733 686 l 772 711 l 1047 711 q 1056 724 1047 711 q 1068 746 1064 738 q 1111 815 1089 781 q 1153 885 1133 849 q 1163 901 1156 889 q 1176 925 1169 913 q 1190 949 1183 938 q 1200 965 1197 961 q 1215 984 1210 971 q 1221 1008 1221 997 l 1221 1013 q 1172 1013 1207 1013 q 1096 1015 1136 1014 q 1020 1016 1056 1015 q 971 1017 985 1017 l 922 1017 l 874 1017 q 856 992 861 1007 q 839 969 851 978 l 785 876 q 781 872 781 876 q 765 844 774 861 q 747 813 757 828 q 723 786 736 797 q 692 775 710 775 q 683 775 689 775 q 679 779 679 775 q 678 790 678 782 q 678 803 678 800 q 688 846 678 821 q 712 896 697 871 q 742 944 726 921 q 768 986 757 968 q 790 1022 775 1000 q 806 1061 806 1044 q 797 1090 806 1076 q 781 1118 788 1104 q 769 1137 778 1124 q 753 1166 761 1150 q 736 1196 744 1182 q 725 1215 728 1210 l 721 1219 q 677 1299 699 1261 q 632 1376 656 1336 l 631 1376 q 613 1353 626 1376 q 583 1303 599 1331 q 555 1253 568 1276 q 539 1228 542 1229 l 483 1131 l 479 1126 q 474 1115 478 1124 q 465 1099 469 1107 q 456 1082 460 1090 q 450 1071 451 1074 q 464 1040 456 1060 q 483 1013 472 1019 q 494 994 486 1007 q 509 966 501 981 q 524 938 517 951 q 535 919 532 925 q 568 865 550 892 q 586 807 586 839 l 586 783 q 572 779 581 779 q 563 783 569 779 q 547 791 556 786 q 531 801 539 796 q 522 808 524 806 l 483 876 l 479 881 q 435 960 457 922 q 390 1038 414 997 q 378 1041 382 1040 q 365 1042 374 1042 l 353 1042 q 290 1041 335 1042 q 196 1040 246 1040 q 101 1038 146 1039 q 39 1038 57 1038 l 39 1033 q 49 1006 39 1018 q 65 982 58 994 q 74 965 67 979 q 90 936 82 951 q 106 907 99 921 q 115 889 113 893 q 120 883 117 888 q 124 876 124 878 q 135 858 126 871 q 151 828 143 844 q 168 799 160 813 q 179 779 176 785 q 181 778 179 779 q 183 775 183 776 q 188 768 185 774 q 194 756 190 763 q 201 744 197 750 q 204 738 204 739 q 207 733 206 735 q 208 731 208 731 l 475 731 q 482 726 475 731 q 498 717 489 722 q 516 705 507 711 q 531 694 525 699 l 539 686 q 506 661 531 672 q 467 643 482 650 q 188 639 326 646 q 185 635 188 638 q 183 631 183 632 q 178 624 182 629 q 175 618 175 619 q 165 601 172 614 q 149 574 157 589 q 134 547 142 560 q 124 529 126 535 l 119 525 l 65 428 l 61 424 l 14 339 l 14 335 q 167 331 99 332 q 315 331 236 331 l 369 331 l 374 335 l 421 415 l 425 419 q 435 437 426 422 q 456 474 443 451 q 475 508 468 496 q 502 549 489 532 q 539 581 515 567 q 557 590 543 583 q 579 597 571 597 l 582 597 q 584 594 582 596 q 586 593 586 593 l 586 538 l 543 457 l 539 453 l 454 296 m 365 881 q 368 876 368 881 q 365 872 368 872 q 363 876 363 872 q 365 881 363 881 m 353 885 q 356 881 356 885 q 353 876 356 876 q 350 881 350 876 q 353 885 350 885 m 764 1054 q 767 1050 767 1054 q 764 1046 767 1046 q 761 1050 761 1046 q 764 1054 761 1054 z "},"O":{"ha":1253,"x_min":14,"x_max":1238,"o":"m 600 90 l 600 33 q 615 26 600 26 q 636 25 631 25 q 649 26 639 25 q 660 29 660 26 l 660 90 q 665 92 661 90 q 669 93 668 93 q 690 85 675 90 q 708 76 704 79 q 721 82 711 78 q 733 89 731 86 q 748 97 736 90 q 760 107 760 103 q 747 120 760 113 q 717 135 733 128 q 687 151 700 143 q 674 167 674 160 q 683 185 674 171 q 706 219 692 200 q 735 261 719 239 q 766 301 751 283 q 792 331 781 319 q 806 343 803 343 q 813 341 811 343 q 818 335 815 339 q 835 307 822 328 q 853 279 849 286 l 863 279 q 884 286 869 279 q 899 303 899 293 q 892 320 899 311 q 879 339 886 329 q 866 358 872 349 q 860 376 860 367 l 861 381 q 869 383 863 382 q 878 385 875 385 q 925 392 896 388 q 982 400 954 396 q 1030 407 1010 404 q 1051 410 1050 410 l 1085 410 q 1085 391 1085 404 q 1087 362 1086 378 q 1088 332 1088 346 q 1089 313 1089 318 l 1089 300 q 1110 310 1094 303 q 1132 321 1126 318 l 1140 329 l 1149 382 l 1204 356 q 1206 355 1204 356 q 1208 354 1207 354 q 1219 360 1214 354 q 1229 374 1225 367 q 1235 390 1233 382 q 1238 403 1238 399 l 1238 406 l 1186 440 q 1197 447 1189 442 q 1213 458 1204 453 q 1227 468 1221 464 q 1233 474 1233 472 l 1233 525 l 1229 533 q 1208 523 1224 531 q 1186 513 1192 515 q 1176 505 1183 510 q 1162 495 1169 500 q 1147 486 1154 490 q 1136 482 1140 482 q 1126 491 1132 482 q 1114 511 1119 500 q 1103 534 1108 522 q 1097 550 1099 546 q 1092 563 1096 554 q 1085 582 1089 572 q 1077 601 1081 592 q 1072 614 1074 610 l 1068 618 l 1047 672 q 1042 678 1043 674 q 1042 686 1042 683 q 1042 690 1042 686 q 1043 694 1043 693 q 1056 695 1047 694 q 1075 697 1065 696 q 1094 698 1085 697 q 1106 699 1103 699 q 1117 700 1110 699 q 1124 703 1124 701 l 1124 744 l 1115 751 l 1035 751 q 1030 757 1031 751 q 1029 764 1029 763 q 1035 792 1029 775 q 1049 826 1042 808 q 1065 859 1057 843 q 1076 885 1072 875 q 1081 894 1078 886 q 1087 913 1083 903 q 1094 930 1090 922 q 1097 939 1097 938 q 1105 953 1100 944 q 1111 961 1110 961 l 1115 961 l 1225 901 l 1229 910 l 1229 969 l 1178 999 l 1178 1000 q 1186 1013 1178 1008 q 1205 1022 1194 1018 q 1224 1031 1215 1026 q 1233 1046 1233 1036 q 1230 1056 1233 1049 q 1221 1072 1226 1064 q 1210 1085 1215 1079 q 1201 1092 1206 1092 q 1172 1079 1190 1092 q 1142 1063 1153 1067 l 1142 1108 q 1134 1117 1142 1111 q 1116 1127 1126 1122 q 1097 1136 1106 1132 q 1083 1140 1088 1140 l 1083 1038 q 1075 1032 1083 1032 q 1067 1032 1068 1032 q 1024 1035 1058 1032 q 953 1044 990 1039 q 885 1055 915 1049 q 856 1067 856 1061 q 856 1068 856 1067 q 857 1071 856 1069 q 869 1096 860 1076 q 882 1122 879 1115 q 884 1128 882 1124 q 886 1135 886 1132 l 886 1136 q 874 1153 886 1147 q 851 1160 863 1160 q 835 1150 840 1160 q 824 1128 829 1140 q 813 1106 819 1115 q 797 1096 807 1096 l 793 1096 l 675 1249 q 669 1261 669 1256 q 675 1269 669 1267 q 714 1297 693 1285 q 754 1321 735 1308 q 758 1325 758 1321 q 735 1343 751 1335 q 708 1351 718 1351 q 682 1344 692 1351 q 651 1336 672 1336 l 651 1397 l 644 1406 l 599 1406 q 596 1384 597 1400 q 594 1363 594 1368 l 594 1358 q 592 1343 593 1353 q 590 1333 590 1333 l 581 1333 l 539 1354 l 538 1354 l 535 1354 q 522 1349 531 1353 q 504 1342 513 1346 q 490 1333 496 1338 q 483 1322 483 1328 l 483 1321 l 488 1317 q 503 1307 492 1314 q 528 1293 515 1300 q 553 1279 542 1286 q 568 1269 564 1272 q 578 1265 575 1265 q 582 1257 582 1264 q 573 1240 582 1254 q 550 1208 564 1226 q 519 1168 536 1189 q 488 1129 503 1147 q 463 1099 474 1111 q 450 1088 451 1088 q 438 1097 444 1086 q 425 1120 432 1107 q 410 1144 418 1133 q 393 1156 403 1156 q 370 1149 385 1156 q 356 1132 356 1143 q 362 1115 356 1125 q 375 1094 368 1106 q 387 1074 382 1083 q 390 1058 392 1064 q 388 1056 390 1057 q 382 1054 385 1054 q 284 1036 333 1044 q 186 1028 235 1028 l 175 1028 l 171 1046 l 171 1131 q 167 1139 171 1135 l 164 1139 l 163 1139 q 149 1133 160 1138 q 136 1126 139 1128 q 119 1116 129 1122 q 110 1108 110 1110 l 110 1057 q 87 1060 96 1057 q 71 1068 78 1064 q 58 1076 64 1072 q 42 1079 51 1079 l 35 1079 q 22 1059 31 1072 q 14 1035 14 1046 l 14 1032 q 27 1021 18 1025 q 46 1013 36 1017 q 63 1003 56 1008 q 69 993 69 999 q 63 983 69 986 q 50 977 57 981 q 37 970 43 974 q 31 961 31 967 l 31 901 q 52 912 36 904 q 74 922 68 919 q 83 928 75 924 q 101 939 92 933 q 118 949 110 944 q 131 953 126 953 q 144 931 133 953 q 166 882 154 910 q 189 828 178 854 q 204 792 200 801 q 213 769 207 783 q 217 753 218 754 l 213 749 q 201 748 211 749 q 174 746 190 747 q 150 744 158 744 q 138 744 147 744 q 128 740 128 744 l 128 692 l 211 692 q 205 650 211 672 q 190 606 199 628 q 172 561 182 583 q 154 521 163 539 q 142 494 150 511 q 132 478 133 478 l 119 478 l 31 525 l 31 469 q 33 466 31 469 q 39 461 36 463 q 52 453 42 460 q 65 444 63 446 q 69 440 65 440 l 69 438 q 50 419 69 426 q 22 406 31 411 q 18 401 18 406 q 26 385 18 397 q 40 363 33 372 q 47 351 46 353 l 103 381 l 106 381 l 107 381 q 111 376 111 381 q 114 338 114 357 q 132 308 114 319 q 151 296 136 306 q 176 286 167 286 l 176 406 q 181 410 176 410 q 188 410 185 410 l 192 410 q 205 408 194 410 q 228 406 215 407 q 251 403 240 404 q 264 401 261 401 l 268 401 q 290 399 274 401 q 325 393 307 396 q 359 388 343 390 q 382 385 375 386 q 394 376 390 382 q 374 340 388 361 q 361 301 361 319 q 372 285 361 290 q 393 279 383 279 q 410 290 403 279 q 422 313 417 300 q 434 337 428 326 q 449 347 440 347 q 465 331 451 347 q 496 293 479 314 q 526 253 513 272 q 543 232 540 235 q 551 222 544 229 q 565 205 557 214 q 578 188 572 196 q 586 178 585 179 q 590 169 586 174 l 590 167 q 577 151 590 160 q 548 134 564 143 q 517 117 532 125 q 497 101 501 108 q 519 84 504 94 q 543 72 533 74 q 571 80 557 69 q 600 90 585 90 m 661 313 l 665 317 q 708 374 686 346 q 750 432 729 403 l 754 432 q 768 422 764 432 q 772 404 772 411 q 760 379 772 397 q 733 342 749 361 q 703 304 718 322 q 683 279 689 286 q 673 266 679 274 q 665 258 667 258 l 661 258 l 661 313 m 479 410 q 485 426 479 413 q 499 440 492 440 l 501 440 q 529 413 513 431 q 561 374 546 394 q 588 332 576 353 q 599 296 599 311 q 598 279 599 293 q 592 265 597 265 q 569 288 588 265 q 531 336 551 310 q 495 385 511 363 q 479 410 479 408 m 657 428 l 657 513 q 671 533 664 521 q 683 554 678 546 l 688 554 q 694 544 688 554 q 704 529 701 535 q 713 510 707 524 q 721 494 719 497 l 721 490 q 714 472 721 483 q 697 449 707 461 q 677 426 688 436 q 661 410 667 415 l 657 428 m 535 503 q 538 511 535 503 q 546 529 542 519 q 554 547 550 539 q 560 554 558 554 l 568 554 q 577 541 569 554 q 590 521 585 528 q 592 515 590 518 q 594 513 594 513 l 594 424 q 577 439 588 429 q 557 460 567 449 q 541 482 547 471 q 535 503 535 493 m 247 461 q 269 480 254 472 q 297 488 285 488 q 306 487 300 488 q 314 486 313 486 q 337 484 321 486 q 372 480 353 482 q 406 476 390 478 q 429 474 422 475 q 437 470 432 472 q 442 464 442 468 l 442 461 q 437 451 440 458 q 429 440 433 443 q 415 440 426 440 q 401 439 404 439 q 385 440 396 439 q 374 440 375 440 q 342 444 361 442 q 303 449 322 446 q 271 453 285 451 q 256 457 257 456 l 247 461 m 808 461 q 809 464 808 463 q 810 465 810 465 l 831 474 q 844 476 832 474 q 870 480 856 478 q 900 484 885 482 q 924 486 915 486 q 935 487 926 486 q 947 488 943 488 q 959 487 951 488 q 967 486 967 486 q 984 476 971 485 q 1000 465 997 468 l 996 461 l 857 440 q 849 440 856 440 q 840 439 843 439 q 819 444 829 439 q 808 461 808 449 m 936 694 l 975 694 q 983 678 975 694 q 996 651 992 661 q 1010 621 1001 639 q 1028 583 1019 603 q 1042 547 1036 564 q 1049 519 1049 529 q 1015 531 1029 519 q 992 558 1001 542 q 975 591 982 574 q 963 622 968 608 q 946 657 956 639 q 936 694 936 675 m 324 690 q 321 672 324 679 q 314 656 318 665 q 301 619 308 642 q 283 576 294 597 q 255 539 271 554 q 217 524 239 524 q 226 551 217 525 q 248 608 236 578 q 271 665 260 639 q 285 690 282 690 l 324 690 m 514 596 q 510 577 514 589 q 499 553 506 565 q 485 533 493 542 q 468 525 476 525 l 458 525 q 435 526 451 525 q 417 529 419 528 q 395 533 408 531 q 382 538 382 536 l 382 542 q 394 551 382 543 q 423 569 407 560 q 452 585 439 578 q 467 592 465 592 q 490 594 472 593 q 514 596 508 596 m 732 607 q 750 605 736 607 q 768 601 764 603 q 776 597 769 600 q 789 588 782 593 q 802 580 796 583 q 810 575 808 576 q 815 574 811 575 q 818 571 818 572 q 838 560 825 567 q 860 548 851 553 q 869 542 868 543 l 869 538 q 851 533 869 536 q 822 529 833 531 q 812 528 821 529 q 797 528 803 528 q 785 528 794 528 q 772 529 775 529 q 744 565 757 539 q 732 607 732 592 m 581 647 l 572 651 l 506 651 q 501 656 501 651 q 501 656 501 656 q 500 658 500 657 q 513 688 500 676 q 526 715 526 699 q 520 736 526 726 q 507 755 514 746 q 494 774 500 764 q 488 793 488 783 l 572 793 q 581 801 575 793 q 592 822 586 810 q 606 844 599 833 q 619 860 613 856 l 621 860 q 631 851 625 860 q 642 830 636 842 q 655 809 649 818 q 665 800 661 800 l 742 800 q 747 797 746 800 q 747 792 747 794 q 742 774 747 782 q 732 758 738 765 q 722 742 726 750 q 717 724 717 733 q 719 713 717 715 q 725 703 722 710 q 739 677 731 693 q 746 660 747 661 l 742 654 l 669 654 q 663 644 668 654 q 649 622 657 635 q 635 598 642 610 q 624 583 628 586 q 599 615 611 594 q 581 647 588 636 m 792 694 l 869 694 q 874 685 869 694 q 882 668 879 675 q 888 655 883 664 q 897 635 892 646 q 905 615 901 625 q 908 600 908 606 q 903 601 904 600 q 871 613 890 604 q 834 633 851 621 q 804 661 817 646 q 792 694 792 676 m 450 685 l 450 681 q 442 665 447 678 q 433 647 436 651 q 422 640 431 644 q 406 630 414 635 q 389 620 397 625 q 378 614 381 615 q 369 609 375 613 q 361 606 364 606 q 360 605 361 606 q 358 604 360 604 l 357 606 q 361 624 357 610 q 372 653 365 638 q 385 682 378 669 q 399 694 392 694 l 446 694 q 449 691 449 694 q 450 685 450 688 m 467 639 q 469 635 469 639 q 467 631 469 631 q 464 635 464 631 q 467 639 464 639 m 229 881 q 222 891 222 883 q 221 906 221 899 l 221 910 q 242 899 226 907 q 264 889 258 892 q 269 885 265 888 q 272 881 272 882 l 324 761 l 324 757 q 323 752 324 756 q 318 749 322 749 l 289 749 q 280 760 286 749 q 267 788 274 772 q 254 816 260 803 q 247 833 249 829 q 238 857 244 839 q 229 881 232 875 m 361 825 l 363 825 q 388 817 372 825 q 417 799 403 810 q 440 775 431 788 q 450 753 450 763 q 446 749 450 749 l 399 749 q 383 765 392 749 q 374 788 375 782 q 367 806 371 792 q 361 825 363 821 m 894 842 l 904 842 q 899 820 904 835 q 888 791 894 806 q 873 765 881 776 q 861 753 865 753 l 794 753 q 801 779 794 765 q 818 800 807 793 l 894 842 m 928 760 l 928 761 q 942 804 933 778 q 963 856 950 831 q 992 899 975 881 q 1031 918 1008 918 l 1035 918 q 1022 883 1032 910 q 999 826 1011 856 q 977 775 988 797 q 963 753 967 753 l 932 753 l 928 757 l 928 760 m 386 893 q 425 903 404 901 q 465 906 446 906 l 479 906 q 499 883 488 899 q 510 857 510 868 l 510 854 q 506 850 506 854 l 482 850 q 459 853 475 850 q 427 863 443 857 q 399 877 411 869 q 386 893 386 885 m 778 910 q 820 907 797 910 q 861 901 843 904 q 847 888 857 896 q 826 871 838 879 q 805 856 815 863 q 789 850 794 850 l 736 850 q 740 867 736 857 q 749 887 743 878 q 762 903 754 896 q 778 910 769 910 m 539 931 q 546 944 539 933 q 562 966 553 954 q 581 987 571 978 q 594 996 590 996 l 594 931 q 589 921 594 931 q 581 906 583 911 q 574 892 578 900 q 568 885 569 885 l 564 885 q 558 894 564 885 q 547 910 551 904 q 542 920 544 913 q 539 931 539 928 m 657 914 l 657 1011 l 665 1011 q 680 995 667 1011 q 700 969 693 979 q 709 956 706 963 q 713 939 713 949 q 709 927 713 936 q 700 909 706 918 q 690 892 694 900 q 681 885 685 885 l 679 885 l 657 914 m 644 918 q 647 914 647 918 q 644 910 647 910 q 642 914 642 910 q 644 918 642 918 m 247 949 q 250 943 250 949 q 247 939 250 939 q 244 943 244 939 q 247 949 244 949 m 413 999 q 433 992 424 999 q 442 971 442 985 q 423 961 442 965 q 381 953 404 957 q 334 949 357 950 q 301 947 311 947 q 284 948 286 947 q 268 957 282 949 q 255 965 263 960 q 247 969 247 969 l 247 974 q 262 977 247 974 q 285 982 276 981 q 310 985 293 983 q 344 990 326 988 q 378 996 363 993 q 399 999 393 999 l 413 999 m 806 979 q 810 992 806 985 q 818 1003 815 1000 l 833 1003 q 1000 982 918 1003 q 996 978 1000 978 q 980 967 993 975 q 963 957 967 960 l 954 953 l 822 969 q 813 972 819 969 q 806 979 806 974 m 483 1026 q 499 1053 483 1031 q 535 1101 515 1076 q 571 1146 554 1126 q 590 1164 588 1165 l 594 1160 q 595 1151 594 1158 q 596 1140 596 1143 q 595 1125 596 1135 q 594 1113 594 1115 q 590 1105 593 1111 q 586 1096 588 1099 q 574 1081 582 1092 q 558 1059 567 1071 q 541 1038 549 1047 q 531 1024 533 1028 q 516 1008 525 1018 q 506 999 507 999 l 501 999 q 495 1006 500 999 q 488 1015 490 1013 q 483 1024 488 1019 l 483 1026 m 657 1169 q 672 1158 661 1169 q 694 1132 682 1146 q 715 1106 706 1118 q 725 1092 724 1093 q 732 1082 726 1089 q 744 1067 738 1075 q 756 1051 750 1058 q 764 1042 761 1044 l 764 1031 q 762 1015 764 1024 q 751 1007 760 1007 q 732 1024 747 1007 q 700 1063 717 1042 q 670 1101 683 1083 q 657 1122 657 1119 l 657 1169 m 806 1088 q 808 1083 808 1088 q 806 1079 808 1079 q 803 1083 803 1079 q 806 1088 803 1088 z "},"P":{"ha":1231,"x_min":14,"x_max":1215,"o":"m 450 101 q 477 82 451 99 q 534 46 503 65 q 593 11 565 26 q 625 -4 621 -4 l 628 -4 q 717 44 672 15 q 800 97 761 74 q 801 100 801 99 q 801 101 801 101 q 796 115 801 110 q 788 126 790 121 q 777 151 785 133 q 767 174 769 168 q 763 185 765 176 q 756 203 760 193 q 750 221 753 213 q 746 233 747 229 l 742 238 q 740 244 742 238 q 735 259 738 250 q 729 277 732 268 q 725 292 726 286 q 701 399 710 343 q 692 507 692 454 q 726 492 701 507 q 776 458 750 478 q 826 420 803 439 q 860 393 850 401 q 876 380 865 389 q 897 361 886 371 q 917 344 908 351 q 928 335 925 336 l 992 271 q 1001 258 993 268 q 1013 246 1010 247 q 1021 235 1019 239 q 1029 232 1022 232 q 1035 233 1033 232 q 1042 238 1036 235 q 1052 244 1043 239 q 1071 254 1061 249 q 1090 265 1081 260 q 1101 271 1099 269 q 1124 281 1110 275 q 1152 295 1138 288 q 1178 313 1167 303 q 1194 335 1190 322 q 1195 360 1194 342 q 1197 400 1196 379 q 1198 440 1197 421 q 1199 465 1199 458 q 1200 484 1199 469 q 1203 503 1201 499 l 1199 513 q 992 563 1089 528 q 796 647 896 599 q 786 653 794 649 q 775 660 778 657 q 773 663 775 661 q 771 664 771 664 l 771 667 q 781 676 771 672 q 792 681 792 681 q 807 688 794 682 q 822 694 819 693 q 1010 768 914 735 q 1207 813 1107 801 l 1211 817 q 1212 835 1211 819 q 1214 876 1213 851 q 1215 914 1215 900 l 1215 956 l 1215 999 q 1185 1022 1204 1014 q 1151 1040 1167 1031 q 1092 1081 1122 1060 q 1029 1121 1061 1103 l 1026 1121 l 1025 1121 q 885 965 964 1033 q 717 838 806 896 q 707 833 713 833 q 706 834 707 833 q 704 835 706 835 q 718 1057 704 946 q 771 1274 732 1168 q 772 1275 771 1274 q 772 1278 772 1276 q 763 1290 772 1285 q 691 1334 728 1313 q 619 1379 654 1356 q 535 1328 578 1353 q 450 1278 492 1303 q 445 1274 449 1276 q 442 1269 442 1271 q 441 1269 442 1269 q 440 1267 440 1268 l 442 1265 q 447 1249 443 1261 q 456 1223 451 1236 q 465 1197 461 1210 q 471 1181 469 1185 q 473 1176 471 1179 q 475 1172 475 1172 q 479 1160 476 1168 q 485 1143 482 1151 q 490 1128 488 1135 q 492 1121 492 1122 q 496 1102 493 1117 q 502 1070 499 1088 q 509 1038 506 1053 q 513 1019 513 1024 q 515 1013 514 1018 q 517 1007 517 1008 q 521 983 518 1000 q 526 948 524 967 q 531 912 529 929 q 535 889 533 894 q 533 865 535 883 q 532 842 532 847 l 531 842 q 513 853 529 842 q 488 871 497 864 q 472 883 482 875 q 452 899 463 890 q 433 914 442 907 q 424 922 425 921 q 396 949 415 929 q 354 990 376 968 q 313 1030 332 1011 q 285 1057 293 1049 q 252 1097 268 1076 q 221 1138 236 1118 q 219 1138 221 1138 q 217 1139 218 1139 q 214 1138 215 1139 q 213 1138 213 1138 l 208 1133 q 113 1078 160 1106 q 18 1019 65 1050 q 14 1014 14 1018 q 14 1007 14 1010 q 15 914 14 963 q 22 821 15 865 q 31 818 25 819 q 39 817 36 817 q 54 815 42 817 q 81 810 67 813 q 108 806 96 808 q 124 804 121 804 q 276 758 200 790 q 419 689 353 725 l 421 688 q 406 673 421 682 q 372 656 390 664 q 334 640 353 647 q 310 631 315 633 q 235 600 278 618 q 154 571 192 582 q 140 567 150 569 q 119 563 131 565 q 99 558 108 560 q 86 554 90 556 q 76 553 83 554 q 60 550 69 551 q 44 547 51 549 q 35 546 36 546 q 22 538 26 543 l 22 499 l 22 461 q 23 440 22 456 q 24 408 24 425 q 26 376 25 392 q 26 356 26 361 q 54 333 38 340 q 86 317 71 326 q 104 306 90 314 q 135 288 118 297 q 165 269 151 278 q 183 258 179 260 q 196 251 186 256 q 208 246 206 247 l 211 246 l 213 246 q 227 263 219 250 q 238 279 235 275 q 247 291 240 283 q 260 308 253 299 q 272 324 267 317 q 281 335 278 332 q 366 424 319 382 q 463 503 413 467 q 481 517 469 508 q 503 532 493 525 q 522 544 514 539 q 531 550 531 550 l 542 550 l 517 347 l 513 339 q 486 219 503 276 q 450 101 469 161 m 614 397 q 618 393 618 397 q 614 389 618 389 q 611 393 611 389 q 614 397 611 397 z "},"Q":{"ha":1239,"x_min":13,"x_max":1224,"o":"m 572 93 q 576 89 576 93 q 605 40 590 67 q 640 -4 619 14 l 742 194 l 742 200 q 733 217 742 211 q 712 228 724 224 q 691 240 700 233 q 682 258 682 246 q 690 285 682 269 q 707 308 699 301 l 746 381 q 754 401 754 388 q 753 410 754 408 q 750 419 753 413 q 712 483 731 451 q 674 550 693 515 q 669 581 667 561 q 671 607 671 600 q 693 603 682 607 q 711 588 704 600 l 788 453 q 793 445 789 451 q 800 436 797 439 l 804 432 q 823 431 810 432 q 851 430 836 431 q 878 428 865 429 q 897 428 892 428 l 915 428 q 937 425 922 426 q 951 424 951 424 l 951 343 q 1085 338 1013 339 q 1215 338 1157 338 l 1215 343 l 1182 410 q 1167 426 1172 415 q 1158 449 1163 438 q 1149 470 1154 460 q 1135 486 1144 481 l 1097 554 l 1083 567 q 1069 558 1079 564 q 1049 545 1060 551 q 1027 533 1038 539 q 1013 528 1017 528 q 1004 533 1006 528 l 965 600 q 963 603 965 601 q 961 606 961 604 q 956 615 960 608 q 947 631 951 622 q 938 646 942 639 q 932 656 933 653 q 901 656 924 656 q 856 658 879 657 q 810 659 832 658 q 779 660 788 660 q 745 666 764 661 q 717 685 726 671 q 730 697 722 692 q 746 707 738 703 q 771 708 753 707 q 809 709 789 708 q 847 710 829 710 q 872 711 865 711 l 893 711 q 919 713 903 711 q 936 715 936 714 l 940 719 l 1025 858 l 1028 860 q 1047 853 1038 860 q 1064 840 1056 847 q 1081 827 1072 833 q 1099 821 1089 821 q 1110 830 1103 821 q 1126 851 1118 839 q 1142 876 1135 864 q 1151 893 1149 888 q 1166 915 1156 899 q 1188 948 1176 931 q 1209 981 1199 965 q 1224 1003 1219 996 l 1224 1011 q 1214 1013 1224 1011 q 1199 1015 1204 1014 q 1165 1018 1190 1015 q 1110 1024 1139 1021 q 1053 1028 1081 1026 q 1013 1032 1025 1031 l 1006 1032 q 999 1032 1003 1032 q 996 1028 996 1032 l 986 942 l 810 942 l 711 774 q 697 762 707 765 q 679 758 686 758 q 676 783 679 765 q 674 808 672 801 q 691 846 678 825 q 719 888 704 867 q 747 928 735 908 q 758 964 758 949 q 756 981 758 972 q 746 994 753 990 l 678 1121 l 682 1125 q 699 1136 685 1128 q 717 1146 714 1144 q 737 1161 724 1151 q 750 1172 750 1171 l 665 1324 q 655 1336 658 1328 q 648 1353 651 1344 q 640 1369 644 1363 q 626 1375 635 1375 q 614 1367 619 1375 l 535 1214 q 522 1197 528 1210 q 517 1175 517 1185 q 527 1158 517 1164 q 551 1148 538 1153 q 574 1138 564 1143 q 585 1121 585 1132 q 582 1106 585 1114 q 572 1096 579 1099 l 508 982 l 508 974 q 517 946 508 958 q 535 922 526 933 q 576 856 554 894 q 599 782 599 817 q 599 771 599 779 q 597 761 599 764 l 593 753 q 558 770 578 760 q 531 796 539 781 l 442 950 l 261 950 l 261 1040 q 251 1043 261 1042 q 233 1044 240 1044 q 123 1049 179 1049 q 13 1050 67 1050 q 18 1040 13 1044 q 74 940 46 990 q 132 842 103 890 l 136 838 q 150 844 140 839 q 171 855 160 850 q 191 865 182 860 q 204 871 200 869 q 211 874 207 872 q 217 875 215 875 q 219 874 217 875 q 221 871 221 872 q 226 865 222 871 q 229 858 229 860 q 233 854 233 858 l 306 728 l 310 724 q 329 723 313 724 q 371 721 346 722 q 411 719 396 719 l 424 719 q 453 718 435 719 q 485 716 472 717 q 500 715 499 715 l 550 683 l 504 658 l 321 658 l 242 521 q 238 517 242 517 l 236 515 l 233 517 q 201 538 218 522 q 168 554 183 554 q 153 540 164 554 q 130 506 143 526 q 103 461 117 486 q 76 413 89 436 q 55 374 64 390 q 43 351 46 357 l 43 349 l 43 347 q 115 342 76 342 q 185 342 154 342 q 203 342 190 342 q 230 342 215 342 q 257 343 244 343 q 276 343 271 343 q 278 368 276 349 q 281 393 281 388 q 281 400 281 394 q 281 411 281 406 q 281 424 281 418 q 285 429 282 429 l 454 429 q 457 435 454 429 q 463 444 460 442 q 465 448 463 444 q 467 453 467 451 q 480 474 471 458 q 499 508 489 490 q 517 540 508 525 q 531 563 526 556 q 542 576 538 567 q 552 593 547 585 q 565 608 557 601 q 585 614 572 614 q 590 613 588 614 q 593 610 593 613 l 593 554 q 555 489 575 522 q 517 424 535 456 q 507 403 514 417 q 500 389 500 389 l 531 331 l 535 326 l 576 250 l 576 242 q 560 231 576 240 q 535 215 544 222 q 521 209 528 213 q 508 199 514 206 l 517 182 q 528 164 519 176 q 544 138 536 151 q 561 111 553 124 q 572 93 569 99 m 163 901 q 160 899 161 899 q 158 901 158 899 q 160 904 157 904 q 163 901 163 904 z "},"R":{"ha":1278,"x_min":14,"x_max":1263,"o":"m 611 115 l 619 -29 q 634 -31 619 -29 q 657 -33 649 -32 l 663 -33 q 667 -33 664 -33 q 669 -29 669 -32 l 669 107 q 671 113 669 108 q 674 119 672 117 l 676 119 l 678 119 q 689 115 681 118 q 700 111 697 111 q 719 101 706 108 q 747 85 732 93 q 774 70 761 78 q 793 60 788 63 l 794 60 l 797 60 l 801 64 l 801 88 q 801 114 801 104 q 785 132 800 124 q 763 143 778 135 q 731 161 749 151 q 699 179 714 171 q 678 192 683 188 q 669 208 669 197 q 669 229 669 219 l 669 246 l 674 250 q 683 248 675 251 q 696 242 690 244 q 716 231 701 239 q 747 215 731 224 q 777 198 763 206 q 797 186 792 190 l 797 250 q 792 253 797 250 q 785 258 788 257 q 763 271 778 263 q 731 289 749 279 q 699 307 714 299 q 678 318 683 315 l 669 326 l 669 440 l 682 440 q 694 434 682 440 q 722 419 706 428 q 756 401 739 411 q 785 386 774 392 q 797 377 794 379 q 810 375 799 375 l 810 508 q 813 512 810 511 q 818 513 815 513 l 822 513 l 924 456 l 932 310 q 937 306 932 308 q 944 301 942 303 q 963 292 949 299 q 983 285 978 286 q 988 283 983 283 l 988 407 q 992 415 988 411 l 993 415 q 1018 407 1006 415 q 1038 390 1031 399 q 1038 367 1038 383 q 1040 333 1039 351 q 1041 298 1040 314 q 1042 275 1042 282 q 1060 240 1044 251 q 1100 225 1076 229 l 1100 356 q 1133 345 1114 356 q 1172 322 1153 335 q 1208 299 1190 310 q 1238 289 1225 289 q 1243 294 1239 289 q 1251 308 1247 300 q 1259 323 1256 315 q 1263 333 1263 331 q 1242 351 1263 339 q 1199 375 1222 363 q 1155 398 1175 388 q 1135 413 1135 408 q 1150 433 1135 421 q 1186 456 1165 444 q 1228 478 1207 467 q 1258 496 1249 489 q 1231 514 1250 503 q 1201 525 1213 525 l 1199 525 q 1135 490 1167 508 q 1072 453 1104 472 l 1065 453 q 1042 460 1054 453 q 1021 475 1029 468 l 1021 476 l 1021 479 l 1029 488 q 1087 519 1056 503 q 1144 556 1118 536 q 1120 575 1136 565 q 1092 585 1104 585 q 1083 584 1085 585 q 1076 581 1082 583 q 1063 573 1074 579 q 1040 559 1053 567 q 1017 545 1028 551 q 1004 538 1007 539 q 980 524 992 531 q 953 517 968 517 q 944 517 946 517 q 936 521 943 518 q 911 535 926 526 q 882 551 896 543 q 858 566 868 560 q 847 572 847 572 l 843 576 q 872 599 851 586 q 913 622 892 611 q 951 643 935 633 q 967 658 967 653 l 967 661 q 963 665 963 661 l 851 729 q 847 738 847 731 l 847 742 q 865 752 851 744 q 882 763 878 760 q 913 783 893 769 q 947 796 932 796 q 985 781 965 796 q 1021 758 1006 765 q 1047 746 1028 756 q 1072 733 1065 736 q 1074 733 1072 733 q 1076 732 1075 732 q 1079 733 1078 732 q 1081 733 1081 733 q 1088 735 1083 733 q 1093 738 1092 736 q 1113 749 1100 742 q 1126 758 1126 757 l 1126 763 l 1021 822 q 1017 825 1019 822 q 1013 831 1014 828 l 1013 832 q 1029 851 1013 842 q 1056 860 1046 860 l 1060 860 l 1178 796 l 1183 796 q 1213 806 1196 796 q 1238 826 1231 817 q 1217 840 1231 835 q 1194 851 1204 846 q 1167 867 1185 857 q 1136 885 1149 878 q 1122 893 1124 892 l 1122 901 q 1128 906 1122 901 q 1141 915 1133 910 q 1156 924 1149 919 q 1169 932 1164 929 q 1190 942 1176 936 q 1217 956 1204 949 q 1240 972 1231 964 q 1250 989 1250 981 q 1245 1013 1250 1000 q 1229 1033 1240 1026 q 1202 1018 1221 1029 q 1163 995 1183 1007 q 1125 974 1142 983 q 1104 965 1108 965 l 1101 965 q 1097 974 1097 969 q 1097 992 1097 979 q 1095 1020 1096 1006 q 1094 1048 1094 1035 q 1093 1067 1093 1061 l 1093 1106 q 1087 1103 1092 1106 q 1081 1101 1082 1101 q 1051 1083 1069 1094 q 1032 1071 1032 1072 l 1032 924 q 1028 919 1032 922 q 1021 915 1024 917 q 1005 906 1018 913 q 988 897 992 900 l 985 897 l 983 897 q 983 917 983 903 q 981 949 982 932 q 980 980 981 965 q 979 1000 979 994 l 979 1004 q 976 1020 978 1007 q 975 1038 975 1033 l 922 1008 l 922 860 q 907 846 922 856 q 872 826 892 836 q 833 807 851 815 q 807 799 814 799 l 807 936 l 801 940 q 788 933 800 939 q 760 917 776 926 q 733 901 743 907 q 703 883 718 893 q 669 868 688 874 l 665 876 l 665 986 q 682 1002 665 992 q 720 1024 699 1013 q 762 1047 742 1035 q 789 1067 782 1058 q 790 1086 789 1071 q 793 1106 792 1101 l 793 1110 q 792 1118 793 1114 q 785 1122 790 1122 l 781 1122 l 669 1063 l 665 1067 l 665 1122 q 685 1136 665 1125 q 729 1160 706 1147 q 773 1184 753 1172 q 793 1203 793 1196 l 793 1253 l 789 1257 q 778 1253 788 1258 q 763 1244 769 1247 q 716 1216 735 1229 q 669 1194 697 1203 l 668 1194 q 663 1201 665 1194 q 660 1215 661 1207 q 658 1229 658 1222 q 657 1236 657 1236 q 656 1258 657 1242 q 655 1292 656 1274 q 653 1325 654 1310 q 653 1346 653 1340 l 600 1346 l 600 1186 l 483 1249 l 475 1249 l 475 1186 l 479 1182 q 500 1169 485 1178 q 532 1151 515 1161 q 564 1133 549 1142 q 585 1122 579 1125 q 593 1117 588 1119 q 599 1114 599 1114 l 599 1063 l 589 1063 l 475 1122 l 475 1101 q 476 1074 475 1083 q 483 1060 478 1065 q 497 1050 488 1054 q 522 1038 507 1046 q 543 1024 533 1031 q 564 1013 553 1018 q 587 1001 575 1006 q 603 982 599 996 q 606 941 606 956 q 607 904 607 926 l 607 881 q 603 876 606 879 q 599 872 600 872 q 592 874 597 872 q 585 876 588 875 l 469 939 l 469 792 l 458 792 q 449 797 458 792 q 426 808 439 801 q 400 823 414 815 q 378 835 386 831 q 372 838 376 835 q 365 843 368 840 q 358 848 363 844 q 354 851 354 851 l 354 1000 q 342 1008 354 1000 q 322 1021 329 1017 q 306 1028 315 1024 q 289 1033 297 1033 l 289 911 l 285 889 l 283 889 l 281 889 q 266 897 278 892 q 251 906 254 903 q 244 911 249 908 q 240 915 240 914 l 240 1067 q 222 1075 236 1069 q 204 1083 208 1081 q 190 1095 197 1088 q 172 1103 183 1103 l 172 950 l 47 1017 l 46 1017 l 43 1017 q 26 990 32 1006 q 14 961 19 975 q 39 946 19 957 q 79 924 58 935 q 117 902 100 913 q 133 888 133 892 q 119 871 133 879 q 85 853 104 863 q 49 835 67 843 q 26 818 32 826 q 53 798 33 807 q 82 783 72 789 q 107 797 89 786 q 145 820 125 808 q 182 842 165 832 q 203 851 199 851 q 231 840 214 851 q 251 826 247 829 l 251 824 l 251 822 q 247 817 250 819 q 243 813 244 814 l 144 750 q 170 732 151 744 q 199 719 189 719 q 213 724 204 719 q 233 735 222 729 q 252 748 243 742 q 268 758 261 754 q 291 773 274 761 q 314 788 308 785 l 322 788 l 415 738 q 420 733 417 736 q 425 729 424 731 l 425 726 q 408 712 425 722 q 369 689 390 701 q 330 666 349 676 q 310 653 311 656 q 332 633 318 642 q 363 615 346 624 q 396 597 379 606 q 425 581 413 589 l 425 574 q 412 558 425 568 q 381 539 399 549 q 348 522 364 529 q 326 513 332 514 q 263 546 294 528 q 200 581 232 564 l 196 581 q 168 568 183 581 q 140 551 153 556 q 149 544 143 547 q 158 538 156 540 q 177 527 164 535 q 205 510 190 519 q 233 494 219 501 q 251 483 246 486 l 260 475 q 250 465 256 469 q 239 457 244 461 q 223 449 232 454 q 213 444 214 444 l 86 513 l 82 513 q 70 510 78 513 q 53 502 63 507 q 37 492 44 497 q 26 483 29 488 q 43 471 33 474 q 63 458 49 467 q 94 440 78 450 q 124 422 110 431 q 144 411 139 414 q 121 388 139 396 q 90 374 103 381 q 80 367 88 372 q 63 356 72 363 q 44 345 53 350 q 35 339 36 340 q 26 336 28 336 q 26 331 26 336 q 31 318 26 324 q 41 301 33 314 q 51 285 49 288 q 58 283 53 283 q 78 290 69 283 q 94 301 86 296 q 109 309 99 303 q 131 322 119 315 q 152 335 142 329 q 167 343 163 340 l 179 343 q 183 278 185 311 q 188 213 182 244 q 210 224 199 218 q 233 238 222 231 q 240 243 236 240 q 244 246 244 246 l 244 386 q 249 389 244 386 q 256 394 253 392 q 272 405 263 399 q 289 411 281 411 l 293 411 l 301 279 l 304 279 l 306 279 q 314 283 308 281 q 322 289 319 286 q 344 301 331 293 q 357 310 357 310 l 357 449 q 363 458 357 453 q 378 467 369 463 q 394 476 386 472 q 407 483 403 481 q 431 498 413 486 q 454 513 449 510 l 471 513 q 472 492 471 507 q 473 460 472 476 q 474 428 474 443 q 475 407 475 413 q 478 389 476 400 q 479 378 479 378 l 483 378 q 501 385 485 378 q 526 399 517 393 q 541 406 531 400 q 563 419 551 413 q 584 432 574 426 q 599 440 594 438 l 607 440 q 608 429 607 440 q 611 411 610 418 l 611 367 l 611 322 q 602 311 610 314 q 589 306 594 308 q 569 293 583 301 q 538 276 554 285 q 508 258 522 267 q 488 246 493 250 q 480 240 481 243 q 479 232 479 238 l 479 225 q 482 203 481 219 q 483 182 483 188 q 516 196 500 186 q 547 215 532 206 q 578 233 563 225 q 611 240 593 240 l 611 196 q 591 176 611 189 q 547 151 571 164 q 503 126 524 138 q 483 111 483 115 l 483 49 l 603 115 l 611 115 m 526 531 q 534 556 526 544 q 554 576 542 568 q 581 590 567 585 q 607 594 594 594 l 607 517 q 605 515 607 517 q 603 513 603 514 q 592 506 600 511 q 576 497 585 501 q 560 486 568 492 q 547 479 551 481 q 540 476 542 476 q 535 475 539 475 l 531 475 q 527 503 528 492 q 526 531 526 515 m 669 594 q 672 594 671 594 q 674 593 674 593 q 687 588 676 592 q 700 581 697 583 q 719 569 707 576 q 740 558 732 563 q 750 551 749 553 l 750 483 q 746 479 750 479 q 729 485 742 479 q 703 499 717 492 q 680 513 690 506 q 669 521 669 519 l 669 594 m 429 657 q 438 664 429 658 q 458 676 447 669 q 478 689 468 683 q 492 694 488 694 q 503 689 492 694 q 527 676 514 683 q 551 663 540 669 q 561 653 561 656 q 558 644 561 646 q 547 640 554 643 q 524 627 542 638 q 500 614 507 617 q 485 622 494 617 q 464 632 475 626 q 443 644 453 638 q 429 657 433 650 m 703 654 q 713 665 703 657 q 736 680 722 672 q 764 693 750 688 q 785 699 778 699 q 801 690 788 697 q 833 674 815 683 q 851 661 850 664 q 852 660 851 661 q 853 658 853 660 l 851 657 q 847 653 851 653 q 835 644 844 650 q 822 635 825 638 q 799 622 814 631 q 785 614 785 614 l 771 614 q 760 620 769 615 q 738 633 751 625 q 717 644 724 640 q 709 649 714 646 q 704 653 704 651 l 703 654 m 526 839 l 535 839 q 543 835 536 839 q 558 827 550 832 q 576 817 567 822 q 589 808 585 813 q 600 800 593 806 q 607 792 607 794 l 607 714 q 590 719 603 714 q 563 732 576 725 q 538 745 549 739 q 526 754 526 751 l 526 839 m 665 763 l 665 792 q 681 804 669 797 q 703 818 692 811 q 726 830 715 825 q 742 835 738 835 l 746 835 q 750 811 750 821 q 750 788 750 801 q 737 751 750 760 q 700 729 724 742 q 686 722 696 726 q 674 715 676 717 l 672 715 l 669 715 q 665 739 665 726 q 665 763 665 751 m 653 775 q 656 771 656 775 q 653 767 656 767 q 650 771 650 767 q 653 775 650 775 m 1110 843 q 1113 839 1113 843 q 1110 835 1113 835 q 1107 839 1107 835 q 1110 843 1107 843 m 1182 843 q 1185 839 1185 843 q 1182 835 1185 835 q 1179 839 1179 835 q 1182 843 1179 843 z "},"S":{"ha":1383,"x_min":14,"x_max":1368,"o":"m 640 118 q 646 114 646 118 l 646 0 q 657 -1 647 0 q 681 -3 667 -1 q 704 -4 696 -4 l 713 -4 q 721 -4 715 -4 q 726 0 726 -4 l 726 118 l 733 122 q 740 120 733 124 q 750 114 747 117 q 766 105 753 113 q 794 89 779 97 q 823 73 810 81 q 839 64 836 65 q 867 45 851 57 q 899 33 883 33 l 899 114 q 872 139 899 122 q 814 174 846 156 q 756 206 782 192 q 729 225 729 221 l 729 292 q 739 292 739 292 q 750 288 739 293 q 767 278 754 285 q 792 263 779 271 q 818 247 806 254 q 835 238 831 240 q 863 219 846 231 q 892 207 881 207 l 894 207 q 899 211 894 211 l 899 226 q 898 259 899 246 q 894 296 897 272 q 861 320 888 304 q 806 352 835 336 q 753 381 776 368 q 729 397 729 393 l 729 538 q 739 548 729 542 q 760 560 749 554 q 783 572 772 567 q 797 576 794 576 q 828 567 814 576 q 856 550 843 558 q 883 534 865 544 q 913 517 901 524 q 926 508 925 510 l 926 304 q 961 283 943 297 q 999 269 979 269 q 999 360 999 311 q 1004 453 1000 410 q 1008 457 1004 457 l 1010 457 l 1013 457 l 1029 449 q 1054 433 1039 443 q 1069 424 1069 424 l 1069 229 q 1076 225 1069 225 q 1110 203 1092 217 q 1146 189 1129 189 l 1146 368 q 1150 370 1146 368 q 1157 372 1154 372 l 1158 372 l 1161 372 q 1214 344 1188 358 q 1267 314 1240 329 q 1276 324 1269 315 q 1290 342 1283 332 q 1301 363 1297 353 q 1304 376 1306 372 q 1285 393 1301 385 q 1250 410 1268 401 q 1217 427 1232 418 q 1203 444 1203 436 q 1206 452 1203 451 q 1215 457 1208 453 q 1233 468 1219 460 q 1264 485 1247 476 q 1295 503 1281 494 q 1317 517 1310 513 q 1340 529 1328 524 q 1360 546 1351 535 q 1349 556 1358 549 q 1326 570 1339 563 q 1301 583 1314 578 q 1282 589 1289 589 q 1274 588 1275 589 q 1267 583 1272 588 q 1259 579 1265 583 q 1245 571 1253 575 q 1231 563 1238 567 q 1224 558 1225 560 q 1200 544 1215 554 q 1167 524 1185 533 q 1134 506 1150 514 q 1108 499 1118 499 q 1093 502 1103 499 q 1074 510 1083 506 q 1057 521 1064 515 q 1050 532 1050 526 l 1050 533 l 1203 626 q 1207 631 1207 626 l 1207 633 l 1207 635 q 1201 639 1206 636 q 1194 643 1197 642 q 1164 659 1183 650 q 1143 668 1144 668 l 1131 668 q 1110 659 1129 668 q 1081 643 1092 650 q 1073 638 1079 642 q 1059 631 1067 635 q 1045 623 1051 626 q 1038 618 1039 619 q 1024 610 1033 615 q 1002 598 1014 604 q 981 586 990 592 q 967 579 971 581 l 964 579 q 938 589 958 579 q 894 612 917 599 q 853 640 871 625 q 835 664 835 654 l 835 728 q 854 748 835 735 q 898 775 874 761 q 943 799 922 789 q 967 808 964 808 l 971 808 q 982 803 972 807 q 996 796 992 799 q 1005 790 997 794 q 1021 781 1013 786 q 1037 772 1029 776 q 1046 767 1044 768 q 1095 735 1068 754 q 1147 715 1122 715 q 1156 715 1154 715 q 1165 719 1158 715 q 1176 726 1168 721 q 1192 737 1183 732 q 1209 747 1201 742 q 1219 753 1217 751 q 1188 781 1208 772 q 1149 800 1167 789 q 1131 810 1143 803 q 1106 825 1119 817 q 1080 840 1092 833 q 1064 850 1068 847 q 1058 860 1058 853 q 1067 870 1058 864 q 1085 881 1075 876 q 1103 890 1094 886 q 1113 893 1113 893 l 1114 893 l 1292 796 l 1294 796 q 1307 801 1296 796 q 1331 814 1318 807 q 1354 828 1343 821 q 1368 838 1365 835 q 1294 884 1333 863 q 1219 926 1256 906 q 1210 933 1218 928 q 1203 942 1203 938 q 1215 957 1203 951 q 1232 965 1228 963 q 1259 981 1242 971 q 1288 999 1276 992 q 1300 1007 1299 1006 l 1300 1011 q 1297 1017 1300 1011 q 1288 1032 1293 1024 q 1278 1049 1283 1040 q 1271 1063 1274 1057 q 1266 1068 1269 1065 q 1263 1071 1263 1071 l 1165 1015 l 1157 1015 q 1154 1041 1156 1022 q 1153 1067 1153 1060 q 1152 1094 1153 1075 q 1151 1136 1151 1114 q 1152 1178 1151 1158 q 1153 1206 1153 1197 l 1149 1210 q 1138 1205 1149 1210 q 1113 1192 1126 1200 q 1087 1176 1099 1185 q 1072 1164 1075 1168 q 1068 965 1065 1064 q 1042 943 1061 956 q 1013 931 1024 931 q 1001 939 1001 931 l 1001 1121 q 988 1115 999 1119 q 975 1108 978 1111 q 945 1091 964 1101 q 926 1079 926 1081 l 926 881 q 906 865 926 876 q 863 840 886 853 q 818 818 839 828 q 797 808 797 808 l 793 808 q 776 815 786 810 q 755 827 765 821 q 737 839 744 833 q 729 846 729 844 l 729 990 l 733 994 q 806 1037 768 1018 q 878 1079 843 1056 q 890 1089 882 1082 q 899 1096 899 1096 l 899 1181 q 890 1176 894 1181 q 869 1165 886 1174 q 834 1145 853 1156 q 799 1125 815 1135 q 779 1113 783 1115 q 759 1100 772 1108 q 738 1092 746 1092 q 732 1092 735 1092 q 729 1096 729 1093 l 729 1164 q 756 1183 729 1168 q 814 1216 782 1199 q 872 1249 846 1233 q 899 1269 899 1264 l 899 1354 l 886 1350 q 860 1335 879 1346 q 820 1312 842 1324 q 780 1289 799 1300 q 754 1274 761 1278 l 738 1265 l 735 1265 l 733 1265 q 729 1268 732 1267 q 726 1269 726 1269 l 726 1375 l 646 1375 q 646 1360 646 1371 q 645 1339 646 1350 q 644 1317 644 1328 q 644 1303 644 1307 q 643 1280 644 1294 q 640 1265 642 1265 l 636 1265 q 619 1274 635 1265 q 593 1286 603 1282 q 577 1295 590 1288 q 549 1312 564 1303 q 522 1328 535 1321 q 504 1338 508 1335 q 492 1344 501 1340 q 479 1350 482 1349 q 478 1351 479 1350 q 475 1351 476 1351 l 475 1269 q 483 1260 475 1265 q 500 1249 490 1254 q 520 1240 510 1244 q 535 1232 531 1235 q 563 1215 546 1225 q 596 1194 579 1204 q 624 1176 613 1183 q 636 1168 636 1168 l 640 1164 q 643 1150 642 1163 q 644 1131 644 1138 q 643 1112 644 1124 q 640 1100 642 1100 l 632 1100 q 557 1146 596 1124 q 483 1189 518 1168 l 482 1189 l 479 1189 q 475 1185 475 1189 l 475 1100 l 483 1092 q 500 1082 483 1092 q 540 1058 517 1072 q 587 1031 563 1044 q 628 1007 611 1017 q 640 1001 635 1003 q 644 986 644 999 l 644 842 q 635 833 644 839 q 615 820 626 826 q 593 809 604 814 q 576 804 582 804 l 572 804 l 450 872 q 446 885 446 875 q 446 897 446 894 q 445 933 446 907 q 444 986 444 958 q 442 1040 443 1014 q 442 1075 442 1065 q 410 1099 431 1090 q 371 1113 389 1108 l 371 935 q 361 926 371 926 q 349 931 358 926 q 328 942 339 936 q 308 955 317 949 q 300 965 300 961 l 300 1156 q 297 1157 300 1156 q 293 1160 294 1158 q 258 1182 278 1168 q 219 1196 238 1196 l 219 1013 q 192 1020 204 1013 q 167 1038 179 1028 q 141 1055 154 1047 q 114 1063 128 1063 l 107 1063 q 94 1039 104 1057 q 82 1015 85 1021 q 77 1011 78 1008 q 76 1004 76 1014 q 80 997 76 996 q 94 990 83 997 q 110 981 99 988 q 133 967 121 975 q 156 953 144 960 q 171 943 167 946 q 174 940 172 943 q 175 935 175 938 q 160 922 174 931 q 130 903 147 913 q 96 885 113 893 q 74 872 79 876 q 46 855 67 868 q 18 838 25 842 q 14 833 14 838 l 22 825 q 33 819 25 824 q 50 810 42 815 q 67 801 58 806 q 78 796 75 797 l 83 796 q 91 797 90 796 q 99 800 92 797 q 169 842 135 822 q 243 885 204 863 q 250 888 249 888 q 257 889 251 889 q 272 884 261 889 q 294 873 283 879 q 315 860 306 867 q 324 849 324 853 q 323 848 324 849 q 322 846 322 847 q 312 840 319 844 q 296 830 304 835 q 279 819 288 825 q 268 813 271 814 q 260 808 267 811 q 251 804 253 806 q 231 792 243 800 q 206 776 218 783 q 184 763 193 769 q 175 757 175 757 l 167 749 q 178 740 168 747 q 200 726 188 733 q 224 713 213 719 q 240 707 236 707 l 243 707 q 278 728 254 713 q 329 759 303 743 q 378 788 356 775 q 410 800 401 800 q 425 797 421 800 q 442 788 429 794 q 466 774 451 782 q 495 757 481 765 q 520 742 510 749 q 531 736 531 736 l 535 732 l 535 651 l 531 647 q 526 645 529 647 q 522 643 522 643 q 503 633 517 640 q 476 616 490 625 q 448 599 461 607 q 429 589 435 592 q 410 583 418 583 q 399 585 401 583 q 386 593 396 586 q 360 608 379 597 q 321 631 342 618 q 281 653 300 643 q 256 668 263 664 q 249 671 253 669 q 243 672 244 672 q 240 674 242 674 q 240 674 240 674 q 225 668 236 674 q 201 655 214 663 q 178 640 189 647 q 167 631 168 633 l 171 626 q 185 617 172 625 q 217 598 199 610 q 247 579 236 586 q 251 578 247 579 q 256 575 254 576 q 282 559 265 569 q 310 542 299 549 q 322 533 321 535 l 322 529 q 313 522 322 529 q 297 513 304 515 q 281 503 292 510 q 268 496 269 496 q 264 494 268 494 q 246 500 257 494 q 222 513 235 506 q 198 526 210 519 q 179 538 186 533 q 167 544 176 539 q 147 556 158 550 q 127 568 136 563 q 115 575 118 574 q 101 583 111 578 q 90 589 92 588 q 75 583 86 589 q 51 570 64 578 q 28 554 39 563 q 14 542 18 546 l 18 538 l 167 449 q 168 447 167 449 q 171 444 169 444 l 171 442 q 156 428 171 438 q 122 410 140 419 q 88 392 103 401 q 72 378 72 383 q 76 366 72 371 q 82 356 79 361 q 92 337 85 351 q 103 318 100 322 l 115 318 q 163 347 138 332 q 213 372 189 361 l 215 372 l 217 372 q 222 370 219 372 q 224 368 224 368 l 224 182 q 289 215 260 197 q 296 221 292 218 q 300 225 300 224 l 300 424 q 307 428 300 424 q 318 436 314 433 q 340 447 324 439 q 361 457 356 454 q 367 451 364 456 q 369 444 369 447 l 369 265 q 388 269 378 265 q 410 278 399 272 q 431 291 421 285 q 446 304 440 297 q 445 406 444 351 q 450 508 446 460 l 458 517 q 509 547 481 533 q 560 575 538 561 l 585 575 l 636 550 l 644 538 l 644 397 q 621 376 644 390 q 567 347 597 363 q 510 317 538 332 q 475 292 482 301 l 475 258 q 474 233 475 247 q 479 207 474 218 q 510 224 488 211 q 558 253 532 238 q 606 280 583 268 q 636 292 628 292 q 642 292 639 292 q 644 288 644 292 l 644 233 q 619 208 644 225 q 562 174 593 192 q 505 143 531 157 q 479 126 479 129 l 479 33 l 483 33 q 524 53 504 39 q 560 76 544 67 q 599 101 575 85 q 640 118 622 118 m 689 771 l 700 771 q 725 756 706 767 q 750 740 744 744 q 756 735 753 739 q 758 728 758 731 l 758 656 l 754 647 q 741 639 754 647 q 721 626 728 631 q 706 619 715 624 q 689 614 696 614 q 674 619 685 614 q 651 633 663 625 q 629 647 639 640 q 619 656 619 653 l 619 732 q 629 742 619 736 q 651 755 639 749 q 675 766 664 761 q 689 771 686 771 m 1085 639 q 1082 636 1083 636 q 1081 639 1081 636 q 1082 642 1079 642 q 1085 639 1085 642 m 233 668 q 236 664 236 668 q 233 660 236 660 q 231 664 231 660 q 233 668 231 668 m 797 1121 q 800 1117 800 1121 q 797 1113 800 1113 q 794 1117 794 1113 q 797 1121 794 1121 z "},"T":{"ha":1388,"x_min":14,"x_max":1372,"o":"m 653 56 q 661 46 661 56 q 660 26 661 38 q 663 5 660 14 q 679 -4 665 -4 q 703 1 696 -4 q 713 15 710 6 q 715 35 715 24 q 717 60 715 47 l 725 60 q 747 53 736 60 q 769 38 758 46 q 790 24 779 31 q 813 17 800 17 l 814 17 l 818 56 q 810 69 818 61 q 792 83 803 76 q 769 94 781 89 q 754 101 758 99 q 731 117 746 107 q 717 126 717 126 l 717 169 q 719 173 717 172 q 725 174 722 174 l 729 174 q 759 157 738 169 q 805 131 781 144 q 851 106 829 118 q 882 89 874 93 q 897 80 888 86 q 915 67 906 74 q 934 56 925 61 q 949 51 943 51 q 953 56 953 51 l 953 97 q 938 108 953 99 q 915 122 924 117 q 902 130 913 124 q 877 144 892 136 q 849 161 863 153 q 826 174 835 169 q 782 196 807 185 q 746 225 757 207 q 781 249 760 240 q 814 275 801 258 q 815 297 814 281 q 816 330 815 313 q 817 363 817 347 q 818 385 818 378 l 818 440 q 819 454 818 450 q 828 458 821 458 q 832 458 829 458 q 835 457 835 457 l 936 401 q 938 400 936 401 q 940 397 940 399 q 966 385 950 393 q 983 376 982 376 l 996 376 l 1046 401 q 1050 403 1047 403 q 1054 403 1053 403 q 1066 397 1065 403 q 1068 381 1067 390 q 1069 340 1068 369 q 1070 277 1069 310 q 1072 215 1071 244 q 1072 174 1072 185 q 1093 154 1081 163 q 1121 146 1106 146 l 1121 397 q 1124 401 1121 400 q 1131 403 1128 403 q 1140 399 1133 403 q 1154 392 1147 396 q 1166 383 1161 388 q 1171 376 1171 379 l 1171 267 q 1178 259 1171 264 q 1194 250 1185 254 q 1212 243 1204 246 q 1222 240 1219 240 l 1222 335 q 1228 338 1222 338 q 1235 339 1233 339 q 1255 332 1246 339 q 1275 325 1264 325 q 1291 339 1286 325 q 1296 360 1296 353 q 1291 372 1296 367 q 1279 381 1286 376 q 1265 389 1272 385 q 1254 397 1258 393 q 1291 428 1265 415 q 1335 453 1317 440 l 1335 457 q 1322 474 1335 468 q 1300 479 1308 479 q 1272 471 1285 479 q 1247 453 1260 463 q 1222 436 1235 444 q 1194 428 1208 428 q 1187 431 1193 428 q 1178 436 1181 433 q 1165 444 1175 439 q 1153 453 1156 450 q 1151 454 1151 453 q 1151 457 1151 457 q 1161 469 1151 465 q 1196 490 1171 475 q 1249 520 1221 504 q 1303 551 1278 536 q 1339 571 1328 565 q 1342 574 1339 572 q 1347 575 1346 575 q 1360 584 1350 578 q 1372 593 1369 590 q 1352 610 1365 601 q 1328 618 1339 618 l 1321 618 q 1310 610 1318 615 q 1292 601 1301 606 q 1274 590 1282 596 q 1263 583 1265 585 q 1234 566 1253 578 q 1194 542 1215 554 q 1156 522 1174 531 q 1129 513 1138 513 l 1126 513 q 1121 517 1121 513 l 1121 583 q 1112 589 1121 583 q 1090 602 1103 594 q 1064 617 1078 610 q 1042 631 1050 625 q 1022 640 1036 633 q 994 656 1008 647 q 968 672 979 664 q 957 688 957 681 q 974 703 957 692 q 1011 726 990 714 q 1049 747 1032 738 q 1068 757 1067 757 q 1088 770 1075 761 q 1110 785 1101 779 q 1121 792 1119 790 l 1121 860 q 1124 863 1121 863 q 1131 864 1128 864 l 1135 864 q 1142 861 1138 863 q 1147 860 1146 860 l 1321 761 l 1328 761 q 1349 768 1335 761 q 1364 785 1364 775 q 1349 801 1364 790 q 1310 824 1333 811 q 1260 851 1286 836 q 1210 878 1233 865 q 1171 902 1186 892 q 1156 918 1156 913 q 1171 936 1156 929 q 1194 943 1186 943 q 1199 942 1194 943 q 1207 939 1204 940 q 1252 916 1226 932 q 1292 893 1278 900 l 1296 893 q 1319 899 1304 893 q 1335 917 1335 906 l 1335 918 l 1254 969 q 1253 971 1253 969 q 1253 972 1253 972 q 1260 985 1253 981 q 1274 994 1267 990 q 1289 1004 1282 999 q 1296 1018 1296 1010 q 1291 1038 1296 1025 q 1275 1050 1286 1050 q 1254 1042 1267 1050 q 1232 1032 1242 1035 l 1231 1032 l 1228 1032 q 1224 1035 1226 1033 q 1222 1036 1222 1036 l 1222 1128 q 1211 1124 1219 1128 q 1194 1117 1203 1121 q 1178 1108 1185 1113 q 1171 1100 1171 1103 l 1171 1003 q 1165 993 1171 999 q 1153 983 1160 988 q 1140 976 1146 979 q 1131 974 1133 974 q 1125 974 1129 974 q 1121 978 1121 975 l 1121 1229 q 1092 1222 1110 1229 q 1072 1201 1074 1215 q 1072 1166 1072 1192 q 1070 1111 1071 1140 q 1069 1056 1069 1082 q 1068 1019 1068 1029 l 1068 994 l 1064 974 l 1050 974 q 1026 988 1043 978 q 996 999 1008 999 l 992 999 q 985 997 989 999 q 979 994 981 996 q 913 957 946 976 q 847 918 879 938 q 838 915 842 915 q 828 914 835 914 l 822 914 q 820 1010 815 963 q 814 1104 825 1058 q 801 1111 810 1106 q 783 1123 793 1117 q 765 1135 774 1129 q 754 1143 757 1140 q 750 1147 750 1143 l 750 1149 l 750 1151 q 752 1156 750 1153 q 754 1160 754 1158 q 780 1174 761 1163 q 806 1189 799 1186 q 838 1207 815 1194 q 886 1233 861 1219 q 931 1260 911 1247 q 953 1282 950 1274 q 954 1289 954 1283 q 954 1299 954 1296 q 954 1307 954 1301 q 953 1317 954 1314 q 949 1320 951 1319 q 943 1321 946 1321 q 904 1305 926 1321 q 868 1282 882 1289 q 856 1275 865 1281 q 837 1263 847 1269 q 817 1251 826 1257 q 806 1244 807 1246 q 801 1242 804 1243 q 797 1240 797 1240 q 785 1234 794 1239 q 767 1223 776 1229 q 748 1212 757 1217 q 738 1206 739 1207 q 730 1202 731 1203 q 722 1201 729 1201 l 717 1201 q 713 1217 714 1211 q 713 1232 713 1224 q 725 1257 713 1250 l 814 1311 q 818 1325 818 1314 q 818 1339 818 1336 l 818 1354 q 810 1358 817 1358 q 788 1353 799 1358 q 765 1340 776 1347 q 742 1326 753 1333 q 721 1317 731 1319 q 712 1333 711 1319 q 713 1354 713 1347 l 708 1375 l 660 1375 l 660 1325 q 656 1321 660 1322 q 649 1319 651 1319 q 625 1326 636 1319 q 603 1340 614 1332 q 583 1353 593 1347 q 560 1360 572 1360 l 560 1317 q 575 1300 560 1310 q 608 1281 590 1290 q 642 1263 626 1272 q 657 1249 657 1254 l 657 1208 q 619 1218 633 1208 q 581 1240 604 1228 q 511 1280 546 1260 q 442 1321 476 1300 l 429 1321 l 429 1278 q 453 1258 429 1274 q 508 1225 478 1243 q 565 1192 538 1207 q 601 1172 593 1176 q 618 1163 608 1169 q 628 1156 628 1156 l 628 1143 q 603 1130 615 1136 q 582 1116 592 1124 q 566 1099 572 1108 q 560 1075 560 1089 q 559 1044 560 1067 q 558 996 558 1021 q 556 949 557 971 q 556 918 556 926 q 554 916 556 918 q 551 914 553 914 l 549 914 l 547 914 q 526 924 542 917 q 504 935 510 932 q 497 940 503 936 q 483 948 490 943 q 470 956 476 953 q 463 961 464 960 q 427 984 447 969 q 388 999 407 999 l 386 999 l 322 965 l 321 964 q 319 965 319 964 q 318 965 318 965 q 312 969 315 967 q 308 974 308 972 l 308 1201 q 293 1215 308 1207 q 271 1224 278 1224 q 264 1210 264 1224 l 264 1003 q 263 987 264 1001 q 256 969 263 972 l 253 969 q 231 978 243 969 q 213 994 219 986 q 212 1008 213 999 q 210 1026 211 1017 q 209 1045 210 1036 q 208 1058 208 1054 q 209 1088 207 1075 q 196 1113 211 1101 q 179 1124 190 1117 q 160 1131 168 1131 l 160 1036 q 154 1033 160 1033 q 147 1032 149 1032 q 127 1039 136 1032 q 107 1046 118 1046 q 91 1032 100 1046 q 82 1011 82 1018 l 86 1007 q 99 999 89 1004 q 111 990 108 993 q 122 985 115 988 q 128 975 128 982 q 115 958 128 965 q 88 943 103 950 q 60 929 72 936 q 47 914 47 922 q 63 897 47 904 q 82 889 78 890 q 103 894 90 886 q 130 913 115 903 q 160 931 144 922 q 188 940 175 940 q 212 933 201 940 q 229 914 222 925 q 184 880 218 900 q 113 840 150 860 q 47 804 76 821 q 18 781 18 788 q 31 763 18 768 q 56 757 44 757 q 83 767 71 757 q 107 783 96 776 q 138 801 117 789 q 181 827 158 814 q 223 850 203 840 q 251 860 243 860 q 260 858 258 860 q 264 846 263 857 q 266 817 264 839 q 268 788 268 794 l 272 779 q 285 770 272 778 q 306 757 299 763 q 310 756 307 757 q 314 753 314 754 q 333 742 319 750 q 362 725 347 733 q 390 709 376 717 q 407 699 403 701 q 419 690 410 696 q 429 679 429 685 l 429 678 q 425 668 425 674 q 380 643 401 656 q 336 618 358 631 q 318 608 329 614 q 297 595 307 601 q 279 584 286 589 q 272 579 272 579 l 265 571 l 265 517 q 260 508 265 510 q 251 507 256 507 q 239 508 242 507 q 225 517 236 510 q 212 524 222 518 q 190 538 201 531 q 167 551 178 544 q 154 558 157 557 q 105 590 133 571 q 51 610 76 610 q 30 603 46 610 q 14 589 14 597 q 22 575 14 581 q 125 517 78 543 q 225 457 172 490 q 231 449 231 456 l 229 444 q 193 426 213 426 q 187 427 190 426 q 183 428 183 428 l 94 474 q 90 472 94 474 q 82 469 85 471 q 67 463 79 468 q 56 451 56 458 q 71 435 56 440 q 94 424 86 429 q 112 413 99 421 q 128 401 125 404 q 131 398 129 401 q 132 393 132 394 l 132 392 l 132 389 l 128 385 q 119 379 125 383 q 107 370 114 375 q 94 361 100 365 q 86 356 88 357 l 86 349 q 94 329 86 342 q 108 317 101 317 q 111 318 111 317 q 128 326 114 319 q 144 335 142 333 l 149 335 q 159 329 156 335 q 163 318 163 324 l 163 242 q 164 236 163 239 q 167 233 165 233 q 172 234 167 232 q 179 238 176 236 q 199 249 186 242 q 211 258 211 257 l 211 364 q 224 383 211 374 q 243 393 236 392 q 254 392 246 394 q 265 390 263 390 l 265 147 q 297 162 285 147 q 310 194 310 176 l 310 381 l 318 401 q 322 403 318 403 q 356 388 340 403 q 390 368 372 372 q 418 380 396 367 q 466 409 440 393 q 515 439 492 425 q 550 453 539 453 q 557 452 554 453 q 560 444 560 451 l 560 279 q 570 266 560 272 q 594 253 581 260 q 617 240 607 247 q 628 226 628 233 q 599 202 628 219 q 534 165 569 185 q 468 128 499 146 q 433 101 438 110 q 429 85 431 94 q 428 69 428 76 q 428 60 428 65 q 435 54 428 54 l 438 56 q 445 59 439 56 q 454 64 451 63 q 522 104 489 83 q 589 144 556 125 q 600 150 592 146 q 617 159 608 154 q 633 168 625 164 q 644 174 642 172 l 649 174 q 658 167 656 174 q 661 153 661 160 q 653 122 661 133 q 634 101 646 110 q 608 87 622 93 q 581 72 593 81 q 568 63 576 69 q 560 56 560 56 l 560 11 q 584 18 572 11 q 607 33 596 25 q 629 49 618 42 q 653 56 640 56 m 694 554 q 713 549 701 554 q 737 538 725 544 q 758 522 749 531 q 767 508 767 514 l 767 313 l 758 296 q 753 292 758 296 q 740 283 747 288 q 725 274 733 279 q 713 267 717 269 q 700 261 708 264 q 686 258 692 258 l 682 258 q 655 273 675 261 q 628 288 635 285 q 616 295 621 292 q 611 308 611 299 l 611 500 q 622 517 611 507 q 647 535 633 526 q 675 549 661 543 q 694 554 689 554 m 314 478 l 314 542 q 331 558 314 547 q 367 581 347 569 q 405 603 388 593 q 425 614 422 613 q 434 619 426 615 q 450 628 442 624 q 465 638 458 633 q 475 643 472 642 q 480 645 476 643 q 483 647 483 647 q 494 654 486 649 q 504 660 503 660 q 524 653 510 661 q 554 635 539 646 q 581 614 569 625 q 593 597 593 603 l 593 546 q 579 534 593 543 q 544 511 565 525 q 497 483 522 497 q 450 456 472 468 q 411 435 428 443 q 390 426 394 426 q 378 428 382 426 q 365 436 375 429 q 337 454 354 443 q 318 465 319 465 l 314 478 m 804 582 q 805 597 804 585 q 806 614 806 610 q 840 644 817 628 q 881 660 864 660 q 894 657 888 660 q 907 651 900 654 q 918 644 908 650 q 938 633 928 639 q 958 621 949 626 q 971 614 968 615 q 990 603 976 611 q 1018 588 1003 596 q 1047 572 1033 579 q 1064 558 1060 564 q 1067 538 1067 553 q 1068 517 1068 522 q 1065 485 1068 497 q 1046 461 1063 472 q 1025 449 1042 458 q 1004 436 1008 439 l 979 436 q 953 451 972 440 q 913 474 935 463 q 873 497 892 486 q 847 513 854 508 q 822 526 831 521 q 810 536 814 531 q 805 552 806 542 q 804 582 804 563 m 704 597 l 690 597 l 649 575 l 643 575 q 635 576 640 575 q 629 579 629 576 l 629 635 q 622 642 629 639 q 603 651 614 646 q 584 660 593 656 q 572 672 575 665 q 582 685 569 679 q 597 694 594 692 q 615 704 604 697 q 625 711 625 711 l 625 771 l 632 775 q 640 772 632 775 q 653 765 649 768 l 686 749 l 689 749 l 690 749 l 742 775 l 750 775 q 754 765 754 775 q 753 746 754 757 q 754 723 753 735 q 763 707 756 711 q 790 690 779 696 q 814 672 800 685 q 803 666 811 671 q 788 656 796 661 q 772 645 779 650 q 765 639 765 640 l 765 575 q 763 574 765 575 q 758 571 761 572 l 757 571 l 754 571 q 728 583 740 575 q 704 597 715 590 m 389 940 q 413 935 400 940 q 438 922 425 929 q 462 906 450 914 q 483 893 474 899 q 501 883 489 890 q 528 867 514 875 q 556 852 543 860 q 572 842 568 844 q 590 814 589 835 q 590 778 590 793 q 574 724 590 749 q 521 699 557 699 l 518 699 l 322 808 l 318 813 q 313 820 317 815 q 310 825 310 825 l 310 893 q 320 906 310 897 q 344 922 331 914 q 370 935 357 929 q 389 940 383 940 m 994 940 q 1014 936 1001 940 q 1038 925 1026 932 q 1059 910 1050 918 q 1068 893 1068 901 l 1068 825 q 1058 812 1068 818 q 1046 804 1049 806 l 878 707 q 872 706 876 707 q 865 706 868 706 q 847 709 858 706 q 825 719 836 713 q 806 733 814 725 q 797 749 797 740 l 797 829 q 810 838 799 831 q 838 856 821 844 q 864 872 854 867 q 890 888 872 876 q 927 911 907 900 q 966 931 947 922 q 994 940 985 940 m 690 1118 q 706 1113 693 1118 q 731 1099 718 1107 q 756 1083 744 1090 q 767 1071 767 1075 l 767 868 q 747 831 767 842 q 708 808 726 819 q 696 804 701 804 q 685 804 692 804 q 663 808 676 804 q 639 817 650 811 q 619 831 628 822 q 611 850 611 839 l 611 1071 q 623 1083 611 1075 q 649 1098 635 1090 q 676 1112 664 1106 q 690 1118 689 1118 z "}}}
